<?xml version="1.0" standalone="no"?><!DOCTYPE svg PUBLIC "-//W3C//DTD SVG 1.1//EN" "http://www.w3.org/Graphics/SVG/1.1/DTD/svg11.dtd"><svg t="1728912127361" class="icon" viewBox="0 0 1024 1024" version="1.1" xmlns="http://www.w3.org/2000/svg" p-id="11494" xmlns:xlink="http://www.w3.org/1999/xlink" width="200" height="200"><path d="M460.8 42.666667H85.333333C38.4 42.666667 0 81.066667 0 128v768c0 46.933333 38.4 85.333333 85.333333 85.333333h853.333334c46.933333 0 85.333333-38.4 85.333333-85.333333V298.666667c0-46.933333-38.4-85.333333-85.333333-85.333334h-341.333334l-59.733333-123.733333c-17.066667-29.866667-46.933333-46.933333-76.8-46.933333zM85.333333 896V128h375.466667l59.733333 123.733333 25.6 46.933334H938.666667v597.333333H85.333333z" fill="#333333" p-id="11495"></path><path d="M554.666667 384h-85.333334v170.666667H298.666667v85.333333h170.666666v170.666667h85.333334v-170.666667h170.666666v-85.333333h-170.666666V384z" fill="#333333" p-id="11496"></path></svg>