<?xml version="1.0" standalone="no"?><!DOCTYPE svg PUBLIC "-//W3C//DTD SVG 1.1//EN" "http://www.w3.org/Graphics/SVG/1.1/DTD/svg11.dtd"><svg t="1748589598729" class="icon" viewBox="0 0 1024 1024" version="1.1" xmlns="http://www.w3.org/2000/svg" p-id="12232" xmlns:xlink="http://www.w3.org/1999/xlink" width="200" height="200"><path d="M170.666667 42.666667v128H42.666667v85.333333h128v128h85.333333V256h128V170.666667H256V42.666667H170.666667zM128 853.632V469.333333h85.333333v341.333334h341.333334v-213.333334c0-23.466667 19.2-42.666667 42.666666-42.666666l213.333334-0.042667V213.333333h-341.333334V128h384.298667c23.381333 0 42.368 19.456 42.368 42.752V640l-256 255.829333L170.752 896A42.581333 42.581333 0 0 1 128 853.632z m647.296-213.674667L640 640v135.210667l135.296-135.253334z" fill="#000000" p-id="12233"></path></svg>