<?xml version="1.0" standalone="no"?><!DOCTYPE svg PUBLIC "-//W3C//DTD SVG 1.1//EN" "http://www.w3.org/Graphics/SVG/1.1/DTD/svg11.dtd"><svg t="1757291815552" class="icon" viewBox="0 0 1074 1024" version="1.1" xmlns="http://www.w3.org/2000/svg" p-id="19957" xmlns:xlink="http://www.w3.org/1999/xlink" width="134.25" height="128"><path d="M411.969669 0.000565a67.067186 67.067186 0 0 1 59.942004 36.587243l72.948288 141.881592a230.607069 230.607069 0 0 0 100.318033 100.431132l142.05124 73.004837a67.349931 67.349931 0 0 1 0 119.827459l-142.05124 72.948288a230.607069 230.607069 0 0 0-100.318033 100.318033l-72.948288 142.05124a67.349931 67.349931 0 0 1-119.827459 0l-73.004837-142.05124a230.607069 230.607069 0 0 0-100.431131-100.318033L36.766653 471.732828a67.349931 67.349931 0 0 1 0-119.827459l141.881593-73.004837a230.607069 230.607069 0 0 0 100.431131-100.431132L352.084214 36.587808A67.067186 67.067186 0 0 1 411.969669 0.000565z m306.213162 411.790259L606.385339 354.393527a314.921718 314.921718 0 0 1-136.961825-137.018373L411.969669 105.577661 354.572373 217.375154a314.978267 314.978267 0 0 1-137.018374 137.018373L105.756507 411.790824l111.797492 57.453845a314.921718 314.921718 0 0 1 136.961825 136.961825l57.453845 111.797492 57.453845-111.797492a314.921718 314.921718 0 0 1 136.961825-136.961825z" p-id="19958"></path><path d="M860.969209 598.515821a67.067186 67.067186 0 0 1 59.885455 36.587242l5.259063 10.23538a230.550519 230.550519 0 0 0 100.318033 100.318034l10.291929 5.259062a67.349931 67.349931 0 0 1 0 119.827459l-10.23538 5.259063a230.550519 230.550519 0 0 0-100.318033 100.318033l-5.259063 10.291929a67.349931 67.349931 0 0 1-119.827459 0l-5.259063-10.23538a230.550519 230.550519 0 0 0-100.318033-100.318033l-10.291929-5.259063a67.349931 67.349931 0 0 1 0-119.827459l10.23538-5.259062a230.550519 230.550519 0 0 0 100.318033-100.318034l5.259063-10.291929a67.067186 67.067186 0 0 1 59.942004-36.587242z m108.121804 212.398271a314.18658 314.18658 0 0 1-108.121804-108.347999 314.18658 314.18658 0 0 1-108.348 108.347999 314.130031 314.130031 0 0 1 108.348 108.121804 314.18658 314.18658 0 0 1 108.121804-108.121804z" p-id="19959"></path></svg>