<?xml version="1.0" standalone="no"?><!DOCTYPE svg PUBLIC "-//W3C//DTD SVG 1.1//EN" "http://www.w3.org/Graphics/SVG/1.1/DTD/svg11.dtd"><svg t="1745398048322" class="icon" viewBox="0 0 1024 1024" version="1.1" xmlns="http://www.w3.org/2000/svg" p-id="4250" xmlns:xlink="http://www.w3.org/1999/xlink" width="200" height="200"><path d="M293.613968 201.418696c-72.126381 0-141.698539 16.541632-207.013659 49.016748-7.05452 3.52726-11.433187 10.581779-11.433187 18.487706v527.264521c0 11.433187 9.243853 20.67704 20.67704 20.67704h1.702815c2.067704 0 4.013778-0.243259 5.959853-0.851408 60.449935-18.001188 125.035277-27.123411 191.809953-27.123411 66.288158 0 130.265352 9.000594 190.228769 26.758522l5.473334 1.581186V245.813517c-62.517639-29.434375-128.805796-44.394821-197.404918-44.394821zM937.399691 250.435444c-65.315121-32.475116-134.887279-49.016748-207.013659-49.016748-68.599121 0-134.887279 14.960447-197.404918 44.394821v571.416083l5.473334-1.581186c60.085046-17.757928 124.06224-26.758522 190.228769-26.758522 66.896306 0 131.360019 9.122224 191.809953 27.123411 1.946074 0.608148 3.892149 0.851408 5.959853 0.851408h1.702815c11.433187 0 20.67704-9.243853 20.67704-20.67704V268.92315c0-7.784297-4.378667-14.960447-11.433187-18.487706z" p-id="4251"></path></svg>