<?xml version="1.0" standalone="no"?><!DOCTYPE svg PUBLIC "-//W3C//DTD SVG 1.1//EN" "http://www.w3.org/Graphics/SVG/1.1/DTD/svg11.dtd"><svg t="1721230300120" class="icon" viewBox="0 0 1024 1024" version="1.1" xmlns="http://www.w3.org/2000/svg" p-id="10272" xmlns:xlink="http://www.w3.org/1999/xlink" width="200" height="200"><path d="M972.8 464.457143H174.811429l321.828571-313.051429c19.748571-19.748571 19.748571-51.2 0-70.217143s-52.662857-19.748571-72.411429 0L16.091429 478.354286c-5.12 5.12-9.508571 10.971429-12.434286 16.822857-1.462857 3.657143-1.462857 7.314286-2.194286 11.702857 0 2.194286-1.462857 4.388571-1.462857 7.314286 0 12.434286 5.12 25.6 14.628571 35.108571l409.6 397.897143c10.24 9.508571 23.405714 14.628571 35.84 14.628571s26.331429-5.12 35.84-14.628571a49.005714 49.005714 0 0 0 0-70.217143L174.811429 563.931429H972.8c28.525714 0 51.2-21.942857 51.2-49.737143s-22.674286-49.737143-51.2-49.737143z" fill="#333333" p-id="10273"></path></svg>