<?xml version="1.0" standalone="no"?><!DOCTYPE svg PUBLIC "-//W3C//DTD SVG 1.1//EN" "http://www.w3.org/Graphics/SVG/1.1/DTD/svg11.dtd"><svg t="1746874058950" class="icon" viewBox="0 0 1024 1024" version="1.1" xmlns="http://www.w3.org/2000/svg" p-id="3377" xmlns:xlink="http://www.w3.org/1999/xlink" width="200" height="200"><path d="M789.333333 192a106.666667 106.666667 0 0 1 106.666667 106.666667v426.666666a106.666667 106.666667 0 0 1-106.666667 106.666667H234.666667a106.666667 106.666667 0 0 1-106.666667-106.666667V298.666667a106.666667 106.666667 0 0 1 106.666667-106.666667h554.666666m0-64H234.666667a170.666667 170.666667 0 0 0-170.666667 170.666667v426.666666a170.666667 170.666667 0 0 0 170.666667 170.666667h554.666666a170.666667 170.666667 0 0 0 170.666667-170.666667V298.666667a170.666667 170.666667 0 0 0-170.666667-170.666667z" fill="#333333" p-id="3378"></path><path d="M928 378.666667H96v64h832V378.666667zM405.333333 549.333333H245.333333a32 32 0 0 0 0 64h160a32 32 0 0 0 0-64z" fill="#333333" p-id="3379"></path></svg>