<?xml version="1.0" standalone="no"?><!DOCTYPE svg PUBLIC "-//W3C//DTD SVG 1.1//EN" "http://www.w3.org/Graphics/SVG/1.1/DTD/svg11.dtd"><svg t="1747466016953" class="icon" viewBox="0 0 1024 1024" version="1.1" xmlns="http://www.w3.org/2000/svg" p-id="4655" xmlns:xlink="http://www.w3.org/1999/xlink" width="200" height="200"><path d="M1024 210.744889V784.782222C1024 854.072889 965.034667 910.222222 892.330667 910.222222H131.697778C58.965333 910.222222 0 854.072889 0 784.810667V210.773333C0 141.482667 58.965333 85.333333 131.669333 85.333333H892.302222C965.034667 85.333333 1024 141.482667 1024 210.744889z m-640.739556 426.382222H184.32c-24.291556 0-43.889778 18.659556-43.889778 41.813333 0 23.096889 19.626667 41.784889 43.889778 41.784889h198.940444c24.291556 0 43.889778-18.688 43.889778-41.813333s-19.598222-41.813333-43.889778-41.813333zM128 312.888889a42.666667 42.666667 0 0 0 0 85.333333h768a42.666667 42.666667 0 0 0 0-85.333333h-768z" fill="#000000" p-id="4656"></path></svg>