<?xml version="1.0" standalone="no"?><!DOCTYPE svg PUBLIC "-//W3C//DTD SVG 1.1//EN" "http://www.w3.org/Graphics/SVG/1.1/DTD/svg11.dtd"><svg t="1744458630307" class="icon" viewBox="0 0 1024 1024" version="1.1" xmlns="http://www.w3.org/2000/svg" p-id="9082" xmlns:xlink="http://www.w3.org/1999/xlink" width="200" height="200"><path d="M327.68 204.8h368.64A122.88 122.88 0 0 1 819.2 327.68v368.64a122.88 122.88 0 0 1-122.88 122.88H327.68A122.88 122.88 0 0 1 204.8 696.32V327.68A122.88 122.88 0 0 1 327.68 204.8z m127.2832 367.1552l-48.4864-55.552a23.04 23.04 0 0 0-34.7136 30.2592l63.3856 72.6528a23.04 23.04 0 0 0 32.256 2.4576l182.272-153.6a23.04 23.04 0 1 0-29.6448-35.2256L454.9632 571.904z" fill="#232323" p-id="9083"></path></svg>