<?xml version="1.0" standalone="no"?><!DOCTYPE svg PUBLIC "-//W3C//DTD SVG 1.1//EN" "http://www.w3.org/Graphics/SVG/1.1/DTD/svg11.dtd"><svg t="1757746734752" class="icon" viewBox="0 0 1024 1024" version="1.1" xmlns="http://www.w3.org/2000/svg" p-id="6781" xmlns:xlink="http://www.w3.org/1999/xlink" width="128" height="128"><path d="M766.14 341.34l163.36 39.9c5.21 1.25 10.32-2.71 10.32-8.02l0.83-168.26c0-6.98-8.02-10.94-13.44-6.56l-164.2 128.25c-5.52 4.38-3.64 13.03 3.13 14.69zM537.14 262.99h-50.11c-4.58 0-8.33 3.75-8.33 8.34v286.82c0 2.71 1.25 5.21 3.44 6.77l172.22 125.75c3.75 2.71 8.96 1.98 11.67-1.77l29.8-40.63c2.81-3.85 1.98-9.06-1.77-11.67L545.47 529.19V271.33c0-4.58-3.75-8.34-8.33-8.34z" p-id="6782"></path><path d="M940.86 655.05l-59.07-20.32c-4.27-1.46-8.96 0.73-10.52 5-1.98 5.31-4.06 10.52-6.25 15.73-18.54 43.86-45.11 83.35-79.08 117.21-33.86 33.86-73.35 60.53-117.21 79.08-45.43 19.17-93.66 28.96-143.46 28.96-49.8 0-98.04-9.69-143.47-28.96-43.86-18.54-83.35-45.22-117.21-79.08s-60.43-73.35-79.08-117.21c-19.07-45.32-28.75-93.66-28.75-143.46 0-49.8 9.69-98.14 28.96-143.57 18.55-43.86 45.11-83.35 79.08-117.21 33.86-33.86 73.35-60.53 117.21-79.08 45.22-19.28 93.56-28.96 143.36-28.96 49.8 0 98.04 9.69 143.46 28.96 43.86 18.55 83.35 45.22 117.21 79.08 10.63 10.73 20.63 21.88 29.8 33.65l62.3-48.76C796.14 131.3 668.51 63.9 525.15 64c-249.62 0.1-450.08 202.85-447.58 452.59C80.07 761.94 279.59 960 525.36 960c193.26 0 357.88-122.52 420.6-294.12 1.56-4.37-0.73-9.27-5.1-10.83z" p-id="6783"></path></svg>