<?xml version="1.0" standalone="no"?><!DOCTYPE svg PUBLIC "-//W3C//DTD SVG 1.1//EN" "http://www.w3.org/Graphics/SVG/1.1/DTD/svg11.dtd"><svg t="1744094170338" class="icon" viewBox="0 0 1290 1024" version="1.1" xmlns="http://www.w3.org/2000/svg" p-id="10062" xmlns:xlink="http://www.w3.org/1999/xlink" width="251.953125" height="200"><path d="M690.21848616 453.37079478c10.74946565 0 19.94103777 3.90719692 27.52486337 11.45363371 7.64614127 7.6772991 11.43493858 16.78162943 11.43493858 27.58717901v257.11475218l50.2327197-50.61907776c7.47788871-7.54020509 16.72554549-11.31653898 27.68065323-11.31653825 11.14205471 0 20.4084059 3.77010218 27.83644164 11.19190694 7.41557304 7.41557304 11.09843347 16.65076642 11.0984342 27.84267336 0 11.06104393-3.73894435 20.29623728-11.24175991 27.71804278l-116.84201705 117.10374237C710.44617609 878.99354519 701.20475173 882.76987981 690.24964398 882.76987981c-10.96133873 0-20.20276381-3.77633389-27.66818909-11.3227707L545.72697514 754.34336675c-7.53397339-7.93902586-11.26045431-17.18045021-11.26045503-27.71804278 0-10.79931789 3.79502903-19.90987994 11.44117028-27.58717903 7.5775939-7.6772991 16.77539773-11.447402 27.52486338-11.44740127 10.98003386 0 20.20276381 3.77010218 27.70557936 11.31653825l50.19533014 50.61907775v-257.11475216c0-10.8055496 3.82618685-19.90987994 11.40378076-27.58717902 7.65237297-7.6772991 16.80655554-11.45363371 27.56848463-11.45363371h-0.0872425zM768.11316395 141.21254757c47.47213213 0 92.88784549 9.24142435 136.15989684 27.84890507 43.27205135 18.60748072 80.54932845 43.58986134 111.79444177 74.81628025 31.27003943 31.35728122 56.17140998 68.70310569 74.71034263 112.03747268 18.53893336 43.45899832 27.81151553 88.99934296 27.83644238 136.49640194 0 51.78438152-10.63106533 100.83933403-31.98043922 147.0339938-21.26213137 46.06379673-50.71255125 85.49096683-88.23285927 118.15064652-37.49538189 32.5288174-80.13804427 56.20879953-127.78466065 70.91531505l19.16832235-19.00006978a118.92959366 118.92959366 0 0 0 25.56191735-39.03458103c5.65826914-13.79670536 8.51856189-28.88957825 8.51856188-45.15398659 0-4.03182822-0.11839959-6.76748966-0.27418945-8.45624622 36.10574092-25.23787566 64.63388792-57.51742972 85.62182984-96.80750583 21.00040534-39.29630708 31.50060765-81.84549596 31.50060765-127.64756592 0-36.95323541-7.19123656-72.34857655-21.62356261-106.04893015-14.40739995-33.83744832-33.77513195-62.85165788-58.13435529-87.31058641-24.32806552-24.33429722-53.34227506-43.72072508-87.01147083-58.29637686a267.97015472 267.97015472 0 0 0-105.87444661-21.59863651c-33.66919577 0-66.07961286 6.11317457-97.22502027 18.21489168-31.15787083 12.1017171-58.52694507 28.49698919-82.14461152 49.18581553-23.655056 20.68882635-43.4340722 45.54034465-59.34951274 74.42992218a269.42834307 269.42834307 0 0 0-30.85875597 92.38308781h-80.94814923c-43.01655702 0-79.70806567 15.22373589-110.16800015 45.8020707-30.42254567 30.44747179-45.64628084 67.27607515-45.64628156 110.34248441 0 23.55535081 4.61759667 45.41571262 13.85279005 65.58108689 9.21649823 20.17160598 21.34314145 36.69774036 36.34877181 49.57840459a176.05443505 176.05443505 0 0 0 50.08939398 30.18574575c18.34575468 7.29094175 36.85976121 10.79931789 55.52332587 10.79931788h45.63381814c7.14138431 17.95939661 16.26440906 32.5288174 27.40646378 43.98245112l34.37959482 34.08671095H417.56841982c-42.39339975 0-81.49652742-10.53136013-117.33431131-31.35728121-35.79416264-20.94432068-64.12289855-49.31044684-84.99867257-85.22300908C194.35966263 691.22998283 183.90308084 652.06453878 183.87815473 609.51534989c-0.02492612-42.41832587 10.41296054-81.58376992 31.35728121-117.49633143 20.90070015-35.91256224 49.22943605-64.27868841 84.99867257-85.22924079 35.78169922-20.95055239 74.90352202-31.48814423 117.33431131-31.48814496h20.05943737c16.01514572-45.28484962 40.15626427-85.62182985 72.41712392-120.88007627 32.24839624-35.27070983 70.82807255-62.98252091 115.78264876-83.14789517C670.8009012 151.23291904 718.19825425 141.08168454 768.10070126 141.21254757h0.0186944z" p-id="10063"></path></svg>