<?xml version="1.0" standalone="no"?><!DOCTYPE svg PUBLIC "-//W3C//DTD SVG 1.1//EN" "http://www.w3.org/Graphics/SVG/1.1/DTD/svg11.dtd"><svg t="1744098103547" class="icon" viewBox="0 0 1024 1024" version="1.1" xmlns="http://www.w3.org/2000/svg" p-id="11090" xmlns:xlink="http://www.w3.org/1999/xlink" width="200" height="200"><path d="M857.6 1024H179.2c-76.8 0-140.8-64-140.8-140.8V147.2C38.4 70.4 102.4 6.4 179.2 6.4h672c76.8 0 140.8 64 140.8 140.8V576c0 19.2-19.2 38.4-38.4 38.4s-32-19.2-32-38.4V147.2c0-38.4-32-64-64-64H179.2c-38.4 0-64 32-64 64v736c0 38.4 32 64 64 64h672c38.4 0 64-32 64-64v-128c0-19.2 19.2-38.4 38.4-38.4s38.4 19.2 38.4 38.4v128c6.4 76.8-57.6 140.8-134.4 140.8z" p-id="11091"></path><path d="M236.8 300.8m-38.4 0a38.4 38.4 0 1 0 76.8 0 38.4 38.4 0 1 0-76.8 0Z" p-id="11092"></path><path d="M787.2 339.2H384c-25.6 0-38.4-19.2-38.4-38.4s19.2-38.4 38.4-38.4h403.2c19.2 0 38.4 19.2 38.4 38.4s-19.2 38.4-38.4 38.4z" p-id="11093"></path><path d="M236.8 512m-38.4 0a38.4 38.4 0 1 0 76.8 0 38.4 38.4 0 1 0-76.8 0Z" p-id="11094"></path><path d="M787.2 550.4H384c-25.6 0-38.4-19.2-38.4-38.4s19.2-38.4 38.4-38.4h403.2c19.2 0 38.4 19.2 38.4 38.4s-19.2 38.4-38.4 38.4z" p-id="11095"></path><path d="M236.8 723.2m-38.4 0a38.4 38.4 0 1 0 76.8 0 38.4 38.4 0 1 0-76.8 0Z" p-id="11096"></path><path d="M787.2 761.6H384c-19.2 0-38.4-19.2-38.4-38.4s19.2-38.4 38.4-38.4h403.2c19.2 0 38.4 19.2 38.4 38.4 0 25.6-19.2 38.4-38.4 38.4z" p-id="11097"></path></svg>