<?xml version="1.0" standalone="no"?><!DOCTYPE svg PUBLIC "-//W3C//DTD SVG 1.1//EN" "http://www.w3.org/Graphics/SVG/1.1/DTD/svg11.dtd"><svg t="1746457030471" class="icon" viewBox="0 0 1024 1024" version="1.1" xmlns="http://www.w3.org/2000/svg" p-id="5485" xmlns:xlink="http://www.w3.org/1999/xlink" width="200" height="200"><path d="M943.014488 243.489127c10.462597 6.099472 16.985025 17.274416 16.985025 29.451098v478.007133a34.059093 34.059093 0 0 1-16.985025 29.451098l-414.029463 239.081479A34.682397 34.682397 0 0 1 512 1023.998887c-5.78782 0-11.753726-1.558259-16.985025-4.518952L80.985512 780.398456a34.059093 34.059093 0 0 1-16.985025-29.451098V272.940225c0-12.176682 6.500167-23.373888 16.985025-29.451098L495.014975 4.563473a33.881007 33.881007 0 0 1 33.97005 0l414.051724 238.925654z m-50.955075 487.935469V292.618812L512 73.21592 131.940587 292.618812v438.805784L512 950.827488l380.059413-219.402892zM228.753004 360.692478a34.059093 34.059093 0 0 1 46.436123-12.599639L512 484.841212l236.810873-136.748373a33.992311 33.992311 0 0 1 33.97005 58.902197l-237.233829 137.015503v269.512055c0 18.810414-15.137375 33.97005-33.97005 33.97005s-33.97005-15.137375-33.97005-33.97005V543.587583l-236.387917-136.458982a33.992311 33.992311 0 0 1-12.466073-46.436123z" fill="#CCCCCC" p-id="5486"></path></svg>