<?xml version="1.0" standalone="no"?><!DOCTYPE svg PUBLIC "-//W3C//DTD SVG 1.1//EN" "http://www.w3.org/Graphics/SVG/1.1/DTD/svg11.dtd"><svg t="1754374167810" class="icon" viewBox="0 0 1024 1024" version="1.1" xmlns="http://www.w3.org/2000/svg" p-id="5046" xmlns:xlink="http://www.w3.org/1999/xlink" width="200" height="200"><path d="M853.323294 124.235294c14.576941 0 26.352941 11.806118 26.352941 26.352941v702.735059a26.352941 26.352941 0 0 1-26.352941 26.352941H150.588235a26.352941 26.352941 0 0 1-26.352941-26.352941v-421.647059c0-14.546824 11.806118-26.352941 26.352941-26.352941h324.99953V150.588235c0-13.432471 10.059294-24.515765 23.070117-26.142117l3.312942-0.210824h351.35247z m-497.242353 531.275294a26.142118 26.142118 0 0 0 1.566118 2.499765l0.331294 0.421647 0.602353 0.783059a26.503529 26.503529 0 0 0 1.114353 1.264941l0.662588 0.662588 70.264471 70.264471a26.352941 26.352941 0 0 0 37.255529 0l2.379294-2.710588a26.352941 26.352941 0 0 0-2.379294-34.544942l-25.268706-25.298823H677.647059a26.352941 26.352941 0 0 0 26.142117-23.04l0.210824-3.312941v-158.117647a26.352941 26.352941 0 0 0-26.352941-26.352942l-3.312941 0.210824a26.352941 26.352941 0 0 0-23.04 26.142118v131.764706h-208.715294l25.298823-25.298824a26.352941 26.352941 0 0 0 2.379294-34.544941l-2.379294-2.710588a26.352941 26.352941 0 0 0-37.255529 0l-70.264471 70.294588a26.834824 26.834824 0 0 0-6.354823 10.24 26.473412 26.473412 0 0 0 0.903529 19.124706l0.813176 1.65647z" fill="#000000" p-id="5047"></path></svg>