<?xml version="1.0" standalone="no"?><!DOCTYPE svg PUBLIC "-//W3C//DTD SVG 1.1//EN" "http://www.w3.org/Graphics/SVG/1.1/DTD/svg11.dtd"><svg t="1753265436192" class="icon" viewBox="0 0 1024 1024" version="1.1" xmlns="http://www.w3.org/2000/svg" p-id="24068" xmlns:xlink="http://www.w3.org/1999/xlink" width="200" height="200"><path d="M512 85.333333C277.333333 85.333333 85.333333 277.333333 85.333333 512s192 426.666667 426.666667 426.666667 426.666667-192 426.666667-426.666667S746.666667 85.333333 512 85.333333z m0 768c-187.733333 0-341.333333-153.6-341.333333-341.333333s153.6-341.333333 341.333333-341.333333 341.333333 153.6 341.333333 341.333333-153.6 341.333333-341.333333 341.333333z" p-id="24069"></path><path d="M601.6 711.893333c-51.2-51.2-132.266667-51.2-179.2 0-17.066667 17.066667-42.666667 17.066667-59.733333 0-17.066667-17.066667-17.066667-42.666667 0-59.733333 81.066667-85.333333 217.6-85.333333 302.933333 0 17.066667 17.066667 17.066667 42.666667 0 59.733333-17.066667 17.066667-46.933333 17.066667-64 0zM384 469.333333c25.6 0 42.666667-17.066667 42.666667-42.666666s-17.066667-42.666667-42.666667-42.666667c-21.333333 0-42.666667 17.066667-42.666667 42.666667s17.066667 42.666667 42.666667 42.666666zM640 469.333333c25.6 0 42.666667-17.066667 42.666667-42.666666s-17.066667-42.666667-42.666667-42.666667c-21.333333 0-42.666667 17.066667-42.666667 42.666667s17.066667 42.666667 42.666667 42.666666z" p-id="24070"></path></svg>