<?xml version="1.0" standalone="no"?><!DOCTYPE svg PUBLIC "-//W3C//DTD SVG 1.1//EN" "http://www.w3.org/Graphics/SVG/1.1/DTD/svg11.dtd"><svg t="1759661112891" class="icon" viewBox="0 0 1024 1024" version="1.1" xmlns="http://www.w3.org/2000/svg" p-id="4097" xmlns:xlink="http://www.w3.org/1999/xlink" width="128" height="128"><path d="M539.592 88c3.491 0 6.892 0.389 10.16 1.125a29.813 29.813 0 0 1 19.4 7.769l0.574 0.535 299.147 286.514a30.11 30.11 0 0 1 3.384 3.841c7.895 8.26 12.743 19.457 12.743 31.784v420.874C885 910.338 828.326 967 758.415 967h-494.83C193.674 967 137 910.338 137 840.442V214.558C137 144.662 193.674 88 263.585 88h276.007z m-13.81 59.827H263.586c-36.494 0-66.147 29.282-66.736 65.627l-0.009 1.104v625.884c0 36.486 29.288 66.133 65.64 66.722l1.105 0.009h494.83c36.494 0 66.147-29.282 66.736-65.627l0.009-1.104V433.373l-205.014 0.002c-51.594 0-93.517-41.399-94.35-92.783l-0.013-1.56V147.827z m245.734 225.72L585.622 195.504l0.001 143.528c0 19.062 15.456 34.515 34.523 34.515h151.37z" fill="#333333" p-id="4098"></path></svg>