<?xml version="1.0" standalone="no"?><!DOCTYPE svg PUBLIC "-//W3C//DTD SVG 1.1//EN" "http://www.w3.org/Graphics/SVG/1.1/DTD/svg11.dtd"><svg t="1746688193327" class="icon" viewBox="0 0 1024 1024" version="1.1" xmlns="http://www.w3.org/2000/svg" p-id="12123" xmlns:xlink="http://www.w3.org/1999/xlink" width="200" height="200"><path d="M948.6336 410.368c10.5472-2.304 18.2784-11.264 18.2784-22.016V238.4384c0-50.8928-41.2672-92.16-92.16-92.16H149.248c-50.8928 0-92.16 41.2672-92.16 92.16v149.3504c0 10.9056 7.9872 19.968 18.688 22.016 50.5856 9.8304 88.7808 54.272 88.7808 107.6736 0 53.4528-38.1952 97.8944-88.7808 107.6736-10.752 2.0992-18.688 11.1104-18.688 22.016v149.3504c0 50.8928 41.2672 92.16 92.16 92.16h725.504c50.8928 0 92.16-41.2672 92.16-92.16v-149.9136c0-10.8032-7.7312-19.7632-18.2784-22.016-49.408-10.7008-86.4256-54.5792-86.4256-107.1616 0-52.48 37.0176-96.3072 86.4256-107.0592zM329.0112 425.5232h302.6944L574.6688 351.744c-8.6528-11.2128-6.6048-27.2896 4.608-35.8912 11.2128-8.6528 27.2896-6.6048 35.8912 4.608l88.8832 115.0464a25.6256 25.6256 0 0 1-20.2752 41.2672h-354.816c-14.1312 0-25.6-11.4688-25.6-25.6s11.4688-25.6512 25.6512-25.6512z m354.7648 189.6448H381.1328l56.9856 73.7792c8.6528 11.2128 6.6048 27.2896-4.608 35.8912a25.6 25.6 0 0 1-15.616 5.3248c-7.68 0-15.2576-3.4304-20.2752-9.9328L308.736 605.2352a25.6256 25.6256 0 0 1 20.2752-41.2672h354.816c14.1312 0 25.6 11.4688 25.6 25.6s-11.52 25.6-25.6512 25.6z" fill="#FF623E" p-id="12124"></path></svg>