<?xml version="1.0" standalone="no"?><!DOCTYPE svg PUBLIC "-//W3C//DTD SVG 1.1//EN" "http://www.w3.org/Graphics/SVG/1.1/DTD/svg11.dtd"><svg t="1744345006729" class="icon" viewBox="0 0 1024 1024" version="1.1" xmlns="http://www.w3.org/2000/svg" p-id="9362" xmlns:xlink="http://www.w3.org/1999/xlink" width="200" height="200"><path d="M152.054497 952.5378a31.78468 31.78468 0 0 1-31.763349-31.78468V112.63296a31.763348 31.763348 0 0 1 31.763349-31.763348h527.73235a31.78468 31.78468 0 0 1 31.78468 31.763348 31.78468 31.78468 0 0 1-31.78468 31.784681H183.817845v744.486802h495.969002a31.742016 31.742016 0 0 1 31.78468 31.784681 31.806012 31.806012 0 0 1-31.78468 31.78468z m531.913422-242.075537a31.806012 31.806012 0 0 1 0-44.925192l118.947232-118.947233H370.046205a31.742016 31.742016 0 0 1-31.78468-31.78468 31.742016 31.742016 0 0 1 31.78468-31.763348h429.17851l-115.1928-115.192801a31.806012 31.806012 0 0 1 0-44.925192 31.699352 31.699352 0 0 1 44.925192 0l171.338625 171.295961a31.763348 31.763348 0 0 1 0 44.925192l-171.338625 171.295961a31.443368 31.443368 0 0 1-22.419932 9.322084 31.742016 31.742016 0 0 1-22.569256-9.300752z" fill="#666666" p-id="9363"></path></svg>