<?xml version="1.0" standalone="no"?><!DOCTYPE svg PUBLIC "-//W3C//DTD SVG 1.1//EN" "http://www.w3.org/Graphics/SVG/1.1/DTD/svg11.dtd"><svg t="1753547671047" class="icon" viewBox="0 0 1024 1024" version="1.1" xmlns="http://www.w3.org/2000/svg" p-id="7428" xmlns:xlink="http://www.w3.org/1999/xlink" width="200" height="200"><path d="M401.311653 489.579965m24.135911 24.135911l289.630938 289.630938q24.135911 24.135911 0 48.271823l0 0q-24.135911 24.135911-48.271823 0l-289.630937-289.630938q-24.135911-24.135911 0-48.271823l0 0q24.135911-24.135911 48.271822 0Z" fill="#28B28B" p-id="7429"></path><path d="M353.03983 827.482725m24.135912-24.135911l289.630937-289.630938q24.135911-24.135911 48.271823 0l0 0q24.135911 24.135911 0 48.271823l-289.630938 289.630938q-24.135911 24.135911-48.271822 0l0 0q-24.135911-24.135911 0-48.271823Z" fill="#28B28B" p-id="7430"></path><path d="M34.133333 409.6A68.266667 68.266667 0 0 1 102.4 341.333333h819.2a68.266667 68.266667 0 0 1 68.266667 68.266667v546.133333a68.266667 68.266667 0 0 1-68.266667 68.266667H250.709333l-0.085333-0.042667C135.978667 1021.653333 40.405333 945.493333 34.389333 844.970667L34.133333 836.266667l0.085334-5.546667L34.133333 409.6z m887.466667 546.133333V409.6H102.4v391.168l3.84 3.498667-2.773333 17.92a92.885333 92.885333 0 0 0-1.066667 13.056l0.170667 6.656c3.712 61.994667 70.058667 113.834667 152.746666 113.834666l14.336-0.298666 0.426667 0.298666H921.6z" fill="#28B28B" p-id="7431"></path><path d="M921.6 341.333333h-682.666667a136.533333 136.533333 0 1 1 0-273.066666h716.8a34.133333 34.133333 0 1 0 0-68.266667H238.933333a204.8 204.8 0 1 0 0 409.6h682.666667a34.133333 34.133333 0 1 0 0-68.266667z" fill="#28B28B" p-id="7432"></path><path d="M34.133333 204.8v239.658667h68.266667V204.8zM307.626667 238.933333H955.733333a34.133333 34.133333 0 1 0 0-68.266666H307.626667a34.133333 34.133333 0 1 0 0 68.266666z" fill="#28B28B" p-id="7433"></path></svg>