<?xml version="1.0" standalone="no"?><!DOCTYPE svg PUBLIC "-//W3C//DTD SVG 1.1//EN" "http://www.w3.org/Graphics/SVG/1.1/DTD/svg11.dtd"><svg t="1745245557793" class="icon" viewBox="0 0 1024 1024" version="1.1" xmlns="http://www.w3.org/2000/svg" p-id="6627" xmlns:xlink="http://www.w3.org/1999/xlink" width="200" height="200"><path d="M121.984 122.752l536.32-76.586667a21.333333 21.333333 0 0 1 24.362667 21.077334v889.514666a21.333333 21.333333 0 0 1-24.32 21.077334L121.941333 901.248a42.666667 42.666667 0 0 1-36.650666-42.24V164.992a42.666667 42.666667 0 0 1 36.650666-42.24zM725.333333 128h170.666667a42.666667 42.666667 0 0 1 42.666667 42.666667v682.666666a42.666667 42.666667 0 0 1-42.666667 42.666667h-170.666667V128z m-290.133333 384L554.666667 341.333333h-102.4L384 438.869333 315.733333 341.333333H213.333333l119.466667 170.666667L213.333333 682.666667h102.4L384 585.130667 452.266667 682.666667H554.666667l-119.466667-170.666667z" fill="#000000" p-id="6628"></path></svg>