<?xml version="1.0" standalone="no"?><!DOCTYPE svg PUBLIC "-//W3C//DTD SVG 1.1//EN" "http://www.w3.org/Graphics/SVG/1.1/DTD/svg11.dtd"><svg t="1753265319910" class="icon" viewBox="0 0 1024 1024" version="1.1" xmlns="http://www.w3.org/2000/svg" p-id="16569" xmlns:xlink="http://www.w3.org/1999/xlink" width="200" height="200"><path d="M512 85.333333c235.648 0 426.666667 191.018667 426.666667 426.666667s-191.018667 426.666667-426.666667 426.666667S85.333333 747.648 85.333333 512 276.352 85.333333 512 85.333333z m0 85.333334a341.333333 341.333333 0 1 0 0 682.666666 341.333333 341.333333 0 0 0 0-682.666666zM358.058667 350.250667a42.368 42.368 0 0 1 55.893333 3.584L512 452.010667l98.048-98.176a42.368 42.368 0 0 1 55.893333-3.584l4.010667 3.541333a42.410667 42.410667 0 0 1 0.042667 59.989333L571.904 512l98.133333 98.261333a42.453333 42.453333 0 0 1 3.456 56.021334l-3.498666 3.968-4.053334 3.541333a42.368 42.368 0 0 1-55.893333-3.541333L512 572.032 413.952 670.293333a42.368 42.368 0 0 1-55.893333 3.541334l-4.053334-3.541334a42.410667 42.410667 0 0 1 0-59.989333l98.048-98.261333-98.048-98.261334a42.453333 42.453333 0 0 1-3.498666-55.978666l3.498666-4.010667h0.042667z" fill="#000000" p-id="16570"></path></svg>