<?xml version="1.0" standalone="no"?><!DOCTYPE svg PUBLIC "-//W3C//DTD SVG 1.1//EN" "http://www.w3.org/Graphics/SVG/1.1/DTD/svg11.dtd"><svg t="1729358165473" class="icon" viewBox="0 0 1024 1024" version="1.1" xmlns="http://www.w3.org/2000/svg" p-id="10473" xmlns:xlink="http://www.w3.org/1999/xlink" width="200" height="200"><path d="M835.1 360.5H520.8V240.7c12.9-1.6 33.2-10.9 56.3-21.3 125.1-55.8 117.4 11.9 162.1-21.3 44.7-33.3-4.6-118.6-105.4-98.2-76 15.4-113 89.8-122.9 113.2-10.2-24.4-40.2-79.2-110.8-104.7-121.3-44.1-177.4 44.4-132.7 77.7 44.7 33.3 55.3-18.1 180.3 37.7 20.1 8.9 37.9 17.3 50.4 20.5v116.1H190.9c-25.6 0-46.4 18.4-46.4 41.1v74c0 13.2 7.1 24.8 18.1 32.3 1.5 1.6 4.6 3.3 8.5 4.7 4.7 2 10 3.3 15.6 3.7 1.5 0.2 3 0.4 4.4 0.4 1.2 0.1 11.3 0.1 28.3 0.2l46.5 336.1c0 40.4 36.7 73.2 82 73.2h333.5c45.3 0 82-32.7 82-73.2L810 516.7c16-0.1 25.2-0.1 25.2-0.1 3.3 0.1 6.4-0.3 9.3-0.8h0.1c2.9-0.6 5.5-1.2 7.8-2.1 17.2-6 29.3-20.8 29.3-38.1v-74c-0.2-22.7-21.1-41.1-46.6-41.1z" p-id="10474"></path></svg>