<?xml version="1.0" standalone="no"?><!DOCTYPE svg PUBLIC "-//W3C//DTD SVG 1.1//EN" "http://www.w3.org/Graphics/SVG/1.1/DTD/svg11.dtd"><svg t="1720978560347" class="icon" viewBox="0 0 1024 1024" version="1.1" xmlns="http://www.w3.org/2000/svg" p-id="38504" xmlns:xlink="http://www.w3.org/1999/xlink" width="200" height="200"><path d="M516.973714 950.857143a67.584 67.584 0 0 1-30.427428-7.606857l-111.616-53.248a64.073143 64.073143 0 0 1-38.034286-58.368V499.346286v-2.56L100.937143 179.712a65.609143 65.609143 0 0 1-5.046857-71.021714c10.166857-22.893714 32.914286-35.547429 58.368-35.547429h611.328c25.380571 0 48.274286 12.653714 58.368 35.547429 10.166857 22.820571 10.166857 48.201143-5.12 68.461714L582.948571 494.226286v388.169143c0 22.820571-12.653714 43.154286-30.427428 55.808a55.442286 55.442286 0 0 1-35.547429 12.653714zM154.185143 133.997714c-2.486857 0-5.046857 0-5.046857 2.56v5.12l235.958857 317.074286a70.217143 70.217143 0 0 1 12.653714 40.594286v332.288c0 2.56 0 5.12 2.56 5.12l114.102857 53.248h5.12c2.56 0 2.56-2.56 2.56-5.12V499.346286c0-15.213714 5.046857-27.940571 12.653715-40.594286l235.885714-317.147429c2.56-2.486857 2.56-5.046857 0-5.046857 0-2.56-2.486857-2.56-5.046857-2.56H154.331429z m740.790857 482.011429H717.385143a29.257143 29.257143 0 0 1-30.427429-30.427429 29.257143 29.257143 0 0 1 30.427429-30.427428h177.590857a29.257143 29.257143 0 0 1 30.427429 30.427428 29.257143 29.257143 0 0 1-30.427429 30.427429z m0 126.829714H717.385143a29.257143 29.257143 0 0 1-30.427429-30.427428 29.257143 29.257143 0 0 1 30.427429-30.427429h177.590857a29.257143 29.257143 0 0 1 30.427429 30.427429 29.257143 29.257143 0 0 1-30.427429 30.427428z m0 126.829714H717.385143a29.257143 29.257143 0 0 1-30.427429-30.427428 29.257143 29.257143 0 0 1 30.427429-30.427429h177.590857a29.257143 29.257143 0 0 1 30.427429 30.427429 29.257143 29.257143 0 0 1-30.427429 30.427428z" fill="#000000" fill-opacity=".65" p-id="38505"></path><path d="M483.254857 949.76q16.822857 8.411429 33.718857 8.411429 22.162286 0 39.936-14.189715 33.353143-23.917714 33.353143-61.586285V496.64l234.422857-315.099429q24.868571-33.206857 5.924572-75.849142Q812.909714 65.828571 765.586286 65.828571H154.331429q-47.177143 0-64.950858 39.497143-22.528 40.96 5.851429 78.701715l234.422857 315.172571v332.434286q0 46.08 42.276572 64.950857l111.396571 53.174857z m33.718857 1.097143a55.442286 55.442286 0 0 0 35.547429-12.653714 69.705143 69.705143 0 0 0 30.427428-55.808V494.226286l235.885715-317.074286c15.286857-20.260571 15.286857-45.641143 5.12-68.461714-10.166857-22.893714-32.987429-35.547429-58.368-35.547429H154.331429c-25.380571 0-48.274286 12.653714-58.368 35.547429a65.609143 65.609143 0 0 0 5.12 70.948571l235.885714 317.147429v334.848c0 25.380571 15.213714 48.201143 38.034286 58.368l111.616 53.248c10.166857 5.12 20.333714 7.606857 30.427428 7.606857z m248.685715-816.859429c2.486857 0 4.973714 0 4.973714 2.56 2.56 0 2.56 2.56 0 5.12l-1.462857 2.048-0.146286 0.146286L534.674286 458.752a76.653714 76.653714 0 0 0-12.653715 40.594286v385.536c0 2.56 0 5.12-2.56 5.12h-5.12l-114.102857-53.321143c-2.56 0-2.56-2.486857-2.56-5.12V499.419429a70.217143 70.217143 0 0 0-12.653714-40.594286L149.138286 141.604571v-5.046857c0-2.56 2.56-2.56 5.12-2.56h611.328z m-607.597715 7.314286h603.721143L528.676571 454.656l-0.219428 0.292571q-13.677714 22.893714-13.677714 44.397715v382.683428l-109.714286-51.2V499.346286q0-26.112-14.116572-44.982857l-232.886857-313.051429z m559.323429 482.011429h177.590857q16.310857 0 27.062857-10.678858 10.678857-10.752 10.678857-27.062857 0-37.741714-37.741714-37.741714H717.385143q-37.741714 0-37.741714 37.741714t37.741714 37.741715z m0-7.314286h177.590857a29.257143 29.257143 0 0 0 30.427429-30.427429 29.257143 29.257143 0 0 0-30.427429-30.427428H717.385143a29.257143 29.257143 0 0 0-30.427429 30.427428 29.257143 29.257143 0 0 0 30.427429 30.427429z m0 134.144h177.590857q37.741714 0 37.741714-37.741714t-37.741714-37.741715H717.385143q-16.310857 0-27.062857 10.678857-10.678857 10.678857-10.678857 27.062858 0 37.741714 37.741714 37.741714z m0-7.314286h177.590857a29.257143 29.257143 0 0 0 30.427429-30.427428 29.257143 29.257143 0 0 0-30.427429-30.427429H717.385143a29.257143 29.257143 0 0 0-30.427429 30.427429 29.257143 29.257143 0 0 0 30.427429 30.427428z m0 134.144h177.590857q37.741714 0 37.741714-37.741714 0-16.310857-10.678857-27.062857-10.752-10.678857-27.062857-10.678857H717.385143q-16.310857 0-27.062857 10.678857-10.678857 10.752-10.678857 27.062857 0 37.741714 37.741714 37.741714z m0-7.314286h177.590857a29.257143 29.257143 0 0 0 30.427429-30.427428 29.257143 29.257143 0 0 0-30.427429-30.427429H717.385143a29.257143 29.257143 0 0 0-30.427429 30.427429 29.257143 29.257143 0 0 0 30.427429 30.427428z" fill="#000000" fill-opacity=".65" p-id="38506"></path></svg>