<?xml version="1.0" standalone="no"?><!DOCTYPE svg PUBLIC "-//W3C//DTD SVG 1.1//EN" "http://www.w3.org/Graphics/SVG/1.1/DTD/svg11.dtd"><svg t="1744867407335" class="icon" viewBox="0 0 1024 1024" version="1.1" xmlns="http://www.w3.org/2000/svg" p-id="9009" xmlns:xlink="http://www.w3.org/1999/xlink" width="200" height="200"><path d="M139.636364 520.067879a31.030303 31.030303 0 0 1 31.030303-31.030303h682.666666a31.030303 31.030303 0 1 1 0 62.060606H170.666667a31.030303 31.030303 0 0 1-31.030303-31.030303z" fill="#303133" p-id="9010"></path><path d="M471.877818 218.856727a31.030303 31.030303 0 0 1 0 43.876849L214.543515 520.067879l257.334303 257.334303a31.030303 31.030303 0 0 1-43.876848 43.876848l-279.272728-279.272727a31.030303 31.030303 0 0 1 0-43.876848l279.272728-279.272728a31.030303 31.030303 0 0 1 43.876848 0z" fill="#303133" p-id="9011"></path></svg>