<?xml version="1.0" standalone="no"?><!DOCTYPE svg PUBLIC "-//W3C//DTD SVG 1.1//EN" "http://www.w3.org/Graphics/SVG/1.1/DTD/svg11.dtd"><svg t="1744867345472" class="icon" viewBox="0 0 1024 1024" version="1.1" xmlns="http://www.w3.org/2000/svg" p-id="5115" xmlns:xlink="http://www.w3.org/1999/xlink" width="200" height="200"><path d="M754.986667 480H160a31.146667 31.146667 0 0 0-23.04 8.96A31.146667 31.146667 0 0 0 128 512c0 9.344 2.986667 17.024 8.96 23.04 6.016 5.973333 13.696 8.96 23.04 8.96h594.986667l-233.984 232.96a33.450667 33.450667 0 0 0-9.002667 23.04 30.72 30.72 0 0 0 9.514667 22.485333 30.72 30.72 0 0 0 22.485333 9.514667c8.661333 0 16.341333-2.986667 23.04-8.96l288-288a33.408 33.408 0 0 0 8.96-23.04 33.408 33.408 0 0 0-8.96-23.04l-288-288a33.450667 33.450667 0 0 0-23.04-8.96 30.72 30.72 0 0 0-22.485333 9.514667 30.72 30.72 0 0 0-9.514667 22.485333c0 8.661333 2.986667 16.341333 8.96 23.04l234.026667 232.96z" fill="#08080A" fill-opacity=".96" p-id="5116"></path></svg>