<?xml version="1.0" standalone="no"?><!DOCTYPE svg PUBLIC "-//W3C//DTD SVG 1.1//EN" "http://www.w3.org/Graphics/SVG/1.1/DTD/svg11.dtd"><svg t="1745080979961" class="icon" viewBox="0 0 1024 1024" version="1.1" xmlns="http://www.w3.org/2000/svg" p-id="15773" xmlns:xlink="http://www.w3.org/1999/xlink" width="200" height="200"><path d="M883.964063 81.759947h-525.938099c-31.617585 0-57.341667 25.723058-57.341667 57.341667v101.779847h77.775002v-81.345489h485.070405v485.070406h-79.489122v77.775002h99.922457c31.617585 0 57.341667-25.723058 57.341667-57.341667v-525.938099c0-31.618608-25.723058-57.341667-57.340643-57.341667z" fill="#3A3A3A" p-id="15774"></path><path d="M675.878069 291.385067h-535.500331c-31.802812 0-57.677327 25.873492-57.677327 57.677328v535.50033c0 31.802812 25.874515 57.676304 57.677327 57.676304h535.500331c31.802812 0 57.676304-25.873492 57.676304-57.676304v-535.50033c0-31.802812-25.873492-57.677327-57.676304-57.677328z m-20.098698 573.078961h-495.303959v-495.303959h495.303959v495.303959z" fill="#3A3A3A" p-id="15775"></path></svg>