<?xml version="1.0" standalone="no"?><!DOCTYPE svg PUBLIC "-//W3C//DTD SVG 1.1//EN" "http://www.w3.org/Graphics/SVG/1.1/DTD/svg11.dtd"><svg t="1728885491149" class="icon" viewBox="0 0 1088 1024" version="1.1" xmlns="http://www.w3.org/2000/svg" p-id="1481" xmlns:xlink="http://www.w3.org/1999/xlink" width="212.5" height="200"><path d="M465.024 85.12c35.648-19.968 68.672-31.808 105.6-31.808 36.992 0 70.016 11.84 105.728 31.872 34.56 19.392 74.112 48 123.904 84.032l64.384 46.528c39.936 28.864 71.872 51.968 96 73.344 24.832 22.016 43.392 44.032 55.232 71.68 11.776 27.712 14.656 56.128 13.056 88.832-1.536 31.616-7.36 69.76-14.72 117.312l-13.44 87.552c-10.368 67.584-18.624 121.344-30.784 163.264-12.544 43.392-30.272 77.824-61.888 104.128-31.488 26.176-68.992 37.824-114.816 43.392-44.608 5.44-100.864 5.44-171.904 5.44H519.936c-71.04 0-127.296 0-171.84-5.44-45.824-5.568-83.392-17.28-114.88-43.456-31.616-26.24-49.28-60.672-61.888-104.064-12.16-41.92-20.416-95.68-30.72-163.264l-13.504-87.552c-7.296-47.552-13.184-85.696-14.72-117.312-1.536-32.704 1.28-61.12 13.12-88.832 11.776-27.648 30.4-49.664 55.232-71.68 24.064-21.376 56-44.48 96-73.344l64.32-46.528c49.792-36.032 89.408-64.64 123.968-84.032z m3.84 606.528a42.688 42.688 0 0 0-52.416 67.392 250.88 250.88 0 0 0 154.24 51.648c58.368 0 112.448-19.2 154.24-51.648a42.688 42.688 0 1 0-52.48-67.392c-26.496 20.608-62.08 33.664-101.76 33.664a165.568 165.568 0 0 1-101.76-33.664z" fill="#333333" p-id="1482"></path></svg>