<?xml version="1.0" standalone="no"?><!DOCTYPE svg PUBLIC "-//W3C//DTD SVG 1.1//EN" "http://www.w3.org/Graphics/SVG/1.1/DTD/svg11.dtd"><svg t="1744878882866" class="icon" viewBox="0 0 1024 1024" version="1.1" xmlns="http://www.w3.org/2000/svg" p-id="15853" xmlns:xlink="http://www.w3.org/1999/xlink" width="200" height="200"><path d="M983.04 512c0 153.31328-228.10624 307.2-471.04 307.2-90.3168 0-178.56512-21.25824-253.80864-55.86944l129.49504-129.47456a174.08 174.08 0 1 0 246.1696-246.1696l128.57344-128.57344C891.392 317.44 983.04 414.8224 983.04 512zM512 204.8c65.00352 0 128.96256 11.01824 187.76064 30.1056l-117.69856 117.69856a174.08 174.08 0 0 0-229.4784 229.4784l-151.18336 151.1424C105.02144 674.67264 40.96 593.26464 40.96 512c0-153.31328 228.10624-307.2 471.04-307.2z m112.64 307.2a112.64 112.64 0 0 1-193.49504 78.41792l159.27296-159.27296c21.0944 20.48 34.22208 49.13152 34.22208 80.85504zM512 399.36c7.2704 0 14.37696 0.69632 21.27872 2.00704l-131.91168 131.8912A112.64 112.64 0 0 1 512 399.36z" fill="#131415" p-id="15854"></path><path d="M872.796352 148.719008m21.72232 21.72232l0 0q21.72232 21.72232 0 43.444641l-680.632703 680.632703q-21.72232 21.72232-43.444641 0l0 0q-21.72232-21.72232 0-43.444641l680.632703-680.632703q21.72232-21.72232 43.444641 0Z" fill="#131415" p-id="15855"></path></svg>