<?xml version="1.0" standalone="no"?><!DOCTYPE svg PUBLIC "-//W3C//DTD SVG 1.1//EN" "http://www.w3.org/Graphics/SVG/1.1/DTD/svg11.dtd"><svg t="1759928081305" class="icon" viewBox="0 0 1065 1024" version="1.1" xmlns="http://www.w3.org/2000/svg" p-id="25853" xmlns:xlink="http://www.w3.org/1999/xlink" width="133.125" height="128"><path d="M1049.448844 398.095073L608.039497 27.054342a112.043233 112.043233 0 0 0-146.031958 0L14.825233 398.095073a37.88291 37.88291 0 0 0-14.722754 30.436134 38.839377 38.839377 0 0 0 38.497781 38.361144 37.575475 37.575475 0 0 0 24.902292-9.018114l13.663809-11.272642v421.767621a150.677653 150.677653 0 0 0 146.031958 155.630784h619.107182a151.395003 151.395003 0 0 0 146.031958-155.630784V446.601595l11.306802 9.018113a41.401341 41.401341 0 0 0 27.327617 9.018114 38.805217 38.805217 0 0 0 38.497782-38.326984 47.823331 47.823331 0 0 0-16.020816-28.215765zM456.23458 947.311872v-265.009574a38.839377 38.839377 0 0 1 38.497781-38.361143H570.464022a38.839377 38.839377 0 0 1 38.497782 38.361143v265.009574z m456.23458-78.942656a76.961404 76.961404 0 0 1-72.452347 80.069921h-156.211496v-265.043734a114.536878 114.536878 0 0 0-114.331921-113.887847H493.605097a114.536878 114.536878 0 0 0-114.331921 113.887847v265.043734h-155.084231a76.961404 76.961404 0 0 1-72.452347-80.069921v-485.065216l357.752677-297.734397a40.991427 40.991427 0 0 1 49.804584 0l353.20946 295.479868v487.183107z" p-id="25854"></path></svg>