<?xml version="1.0" standalone="no"?><!DOCTYPE svg PUBLIC "-//W3C//DTD SVG 1.1//EN" "http://www.w3.org/Graphics/SVG/1.1/DTD/svg11.dtd"><svg t="1731302228431" class="icon" viewBox="0 0 1088 1024" version="1.1" xmlns="http://www.w3.org/2000/svg" p-id="4160" xmlns:xlink="http://www.w3.org/1999/xlink" width="212.5" height="200"><path d="M462.336 700.096a32 32 0 0 0-39.36 50.496 240.192 240.192 0 0 0 147.648 49.408c56.128 0 107.84-18.432 147.712-49.408a32 32 0 0 0-39.36-50.56 176.192 176.192 0 0 1-108.352 35.968c-42.048 0-79.936-13.824-108.288-35.904z" fill="#333333" p-id="4161"></path><path d="M570.688 53.312c-36.992 0-70.016 11.84-105.664 31.872-34.56 19.392-74.176 48-123.968 84.032l-64.384 46.528c-39.936 28.864-71.872 51.968-95.936 73.344-24.832 22.016-43.456 44.032-55.232 71.68-11.84 27.712-14.72 56.128-13.12 88.832 1.536 31.616 7.424 69.76 14.72 117.312l13.44 87.552c10.368 67.584 18.688 121.344 30.784 163.264 12.608 43.392 30.272 77.824 61.888 104.128 31.488 26.176 69.056 37.824 114.88 43.392 44.544 5.44 100.8 5.44 171.84 5.44H621.44c71.04 0 127.296 0 171.904-5.44 45.824-5.568 83.328-17.28 114.816-43.456 31.616-26.24 49.28-60.672 61.888-104.064 12.16-41.856 20.416-95.68 30.784-163.264l13.44-87.552c7.36-47.552 13.184-85.696 14.72-117.312 1.6-32.704-1.28-61.12-13.12-88.832-11.776-27.648-30.336-49.664-55.232-71.68-24.064-21.376-56-44.48-95.936-73.344l-64.384-46.528c-49.792-36.032-89.408-64.64-123.904-84.032-35.712-20.032-68.736-31.872-105.664-31.872zM376.96 222.208c51.776-37.44 88.384-63.872 119.36-81.28 30.272-16.896 52.288-23.616 74.368-23.616 22.016 0 44.096 6.72 74.304 23.68 30.976 17.344 67.648 43.776 119.36 81.216l61.44 44.416c41.6 30.08 70.912 51.328 92.352 70.336 20.864 18.56 32.064 33.088 38.848 48.896 6.656 15.744 9.344 33.536 8 60.672-1.28 27.904-6.656 62.72-14.272 112.384l-12.8 83.584c-10.88 70.336-18.56 120-29.44 157.44-10.56 36.48-23.104 57.6-41.28 72.704-18.368 15.232-42.24 24.32-81.664 29.056-40.32 4.928-92.608 4.992-166.272 4.992H522.048c-73.6 0-125.952-0.064-166.272-4.992-39.488-4.8-63.296-13.824-81.6-29.056-18.24-15.168-30.72-36.224-41.344-72.704-10.88-37.44-18.56-87.104-29.376-157.44l-12.8-83.584c-7.68-49.664-12.992-84.48-14.336-112.384-1.28-27.136 1.28-44.928 8.064-60.672 6.72-15.808 17.92-30.4 38.848-48.896 21.376-19.008 50.688-40.256 92.288-70.4l61.44-44.352z" fill="#333333" p-id="4162"></path></svg>