<?xml version="1.0" standalone="no"?><!DOCTYPE svg PUBLIC "-//W3C//DTD SVG 1.1//EN" "http://www.w3.org/Graphics/SVG/1.1/DTD/svg11.dtd"><svg t="1744611715909" class="icon" viewBox="0 0 1024 1024" version="1.1" xmlns="http://www.w3.org/2000/svg" p-id="4322" xmlns:xlink="http://www.w3.org/1999/xlink" width="200" height="200"><path d="M512.019443 581.700455c-181.588755 0-350.951047-89.440032-441.984367-233.476519-9.039887-14.256702-4.77884-33.171494 9.517771-42.171472 14.256702-9.079796 33.171494-4.77884 42.171472 9.517771C201.64658 442.004833 351.21813 520.53335 512.019443 520.53335s310.332954-78.529541 390.256238-204.964138c8.999978-14.295588 27.91477-18.596544 42.171472-9.517771 14.296611 8.999978 18.556635 27.91477 9.517771 42.171472C862.931604 492.2594 693.568289 581.700455 512.019443 581.700455z" fill="#231815" p-id="4323"></path><path d="M354.683045 722.710003c-1.7519 0-3.504824-0.159636-5.296633-0.437975-16.645099-2.907213-27.796066-18.756179-24.888853-35.401278l23.773449-136.151913c2.947122-16.646122 18.71627-27.436886 35.401278-24.888854 16.645099 2.907213 27.796066 18.756179 24.888854 35.401278l-23.77345 136.151913C382.15984 712.236464 369.257995 722.710003 354.683045 722.710003z" fill="#231815" p-id="4324"></path><path d="M665.891949 722.710003c-14.176884 0-26.920116-9.955746-29.906123-24.41097l-28.114315-136.151913c-3.425006-16.526395 7.208169-32.69361 23.77345-36.118615 16.286941-3.305279 32.69361 7.208169 36.118615 23.773449l28.114315 136.151913c3.425006 16.526395-7.208169 32.69361-23.77345 36.118616C670.033269 722.510458 667.963121 722.710003 665.891949 722.710003z" fill="#231815" p-id="4325"></path><path d="M147.130965 622.198821c-3.504824 0-7.048533-0.597611-10.473539-1.871627-15.888875-5.774517-24.052812-23.335475-18.238386-39.184441l49.737798-136.191822c5.774517-15.928784 23.375383-24.092721 39.184441-18.238386 15.888875 5.774517 24.052812 23.335475 18.238386 39.184441l-49.737798 136.191822C171.34239 614.513792 159.594835 622.198821 147.130965 622.198821z" fill="#231815" p-id="4326"></path><path d="M873.444029 644.897799c-12.145621 0-23.654746-7.286963-28.432563-19.313881l-54.038753-136.191822c-6.212492-15.690354 1.473561-33.450856 17.162891-39.702234 15.690354-6.252401 33.450856 1.433652 39.702234 17.162892l54.038754 136.191822c6.212492 15.690354-1.433652 33.450856-17.162892 39.702234C881.010355 644.220371 877.187283 644.897799 873.444029 644.897799z" fill="#231815" p-id="4327"></path></svg>