<?xml version="1.0" standalone="no"?><!DOCTYPE svg PUBLIC "-//W3C//DTD SVG 1.1//EN" "http://www.w3.org/Graphics/SVG/1.1/DTD/svg11.dtd"><svg t="1743744088316" class="icon" viewBox="0 0 1024 1024" version="1.1" xmlns="http://www.w3.org/2000/svg" p-id="4325" xmlns:xlink="http://www.w3.org/1999/xlink" width="200" height="200"><path d="M457.531915 21.787234c14.524823-14.524823 36.312057-21.787234 50.836879-21.787234s36.312057 7.262411 50.83688 21.787234L973.163121 363.120567c7.262411 7.262411 14.524823 14.524823 21.787234 29.049646 7.262411 7.262411 7.262411 21.787234 7.262411 36.312057V944.113475c0 21.787234-7.262411 43.574468-21.787234 58.099291-14.524823 14.524823-36.312057 21.787234-58.099291 21.787234H602.780142c-7.262411 0-21.787234-7.262411-29.049646-14.524823-7.262411-7.262411-14.524823-14.524823-14.524822-29.049645V639.092199H457.531915v341.333333c0 7.262411-7.262411 21.787234-14.524823 29.049645-7.262411 7.262411-14.524823 14.524823-29.049645 14.524823H101.673759c-21.787234 0-43.574468-7.262411-58.099291-21.787234-14.524823-14.524823-21.787234-36.312057-21.787234-58.099291V428.48227c0-21.787234 7.262411-43.574468 29.049645-65.361703L457.531915 21.787234z m50.836879 58.099291L101.673759 428.48227V944.113475h275.971631V602.780142c0-7.262411 7.262411-21.787234 14.524823-29.049646 7.262411-7.262411 14.524823-14.524823 29.049645-14.524822h188.822695c7.262411 0 21.787234 7.262411 29.049646 14.524822 7.262411 7.262411 7.262411 14.524823 7.262411 29.049646V944.113475h275.971631V428.48227L508.368794 79.886525z" p-id="4326"></path></svg>