<?xml version="1.0" standalone="no"?><!DOCTYPE svg PUBLIC "-//W3C//DTD SVG 1.1//EN" "http://www.w3.org/Graphics/SVG/1.1/DTD/svg11.dtd"><svg t="1744885430308" class="icon" viewBox="0 0 1024 1024" version="1.1" xmlns="http://www.w3.org/2000/svg" p-id="35007" xmlns:xlink="http://www.w3.org/1999/xlink" width="200" height="200"><path d="M512 64C265.006545 64 64 265.006545 64 512S265.006545 960 512 960 960 758.993455 960 512 758.993455 64 512 64z m0 832c-211.688727 0-384-172.288-384-384 0-211.688727 172.311273-384 384-384 211.712 0 384 172.311273 384 384 0 211.712-172.288 384-384 384z m-32-224h64v64h-64v-64zM512 288c-55.109818 0-94.72 23.505455-117.410909 63.511273-15.080727 26.600727-20.992 56.389818-21.294546 85.480727l64 0.698182c0.605091-50.990545 20.317091-85.690182 74.705455-85.690182 47.592727 0 74.705455 23.808 74.705455 64 0 19.595636-7.307636 31.697455-30.603637 54.109091l-12.8 12.194909c-43.287273 41.495273-63.208727 76.986182-63.208727 136.378182h64c0-38.865455 11.613091-59.578182 43.52-90.181818 1.978182-1.908364 10.589091-10.100364 12.893091-12.194909 34.676364-33.303273 50.292364-59.205818 50.292363-100.212364-0.093091-77.591273-57.483636-128.093091-138.798545-128.093091z" fill="#333333" p-id="35008"></path></svg>