<?xml version="1.0" standalone="no"?><!DOCTYPE svg PUBLIC "-//W3C//DTD SVG 1.1//EN" "http://www.w3.org/Graphics/SVG/1.1/DTD/svg11.dtd"><svg t="1744183089291" class="icon" viewBox="0 0 1024 1024" version="1.1" xmlns="http://www.w3.org/2000/svg" p-id="4362" xmlns:xlink="http://www.w3.org/1999/xlink" width="200" height="200"><path d="M197.1 504.71c-11.72-11.72-11.72-30.71 0-42.43 11.72-11.72 30.71-11.72 42.43 0l241.68 241.68V138.39c0-16.57 13.43-30 30-30s30 13.43 30 30v567.15l243.26-243.26c11.71-11.72 30.71-11.72 42.43 0 11.72 11.72 11.72 30.71 0 42.43L533.22 798.39c-5.86 5.86-13.54 8.79-21.21 8.79s-15.36-2.93-21.21-8.79L197.1 504.71z m686.1 350.9H140.8c-16.57 0-30 13.43-30 30s13.43 30 30 30h742.4c16.57 0 30-13.43 30-30s-13.43-30-30-30z" p-id="4363"></path></svg>