<?xml version="1.0" standalone="no"?><!DOCTYPE svg PUBLIC "-//W3C//DTD SVG 1.1//EN" "http://www.w3.org/Graphics/SVG/1.1/DTD/svg11.dtd"><svg t="1760334906931" class="icon" viewBox="0 0 1024 1024" version="1.1" xmlns="http://www.w3.org/2000/svg" p-id="4345" xmlns:xlink="http://www.w3.org/1999/xlink" width="128" height="128"><path d="M379.465143 563.2l66.194286 66.194286a51.2 51.2 0 1 1-72.411429 72.411428l-153.6-153.6a51.2 51.2 0 0 1 0-72.411428l153.6-153.6a51.2 51.2 0 1 1 72.411429 72.411428l-66.194286 66.194286H972.8a51.2 51.2 0 0 1 0 102.4H379.465143zM767.926857 51.053714a51.2 51.2 0 0 1 0 102.4H50.980571a51.2 51.2 0 0 1 0-102.4h716.946286z m0 819.419429a51.2 51.2 0 0 1 0 102.4H50.980571a51.2 51.2 0 0 1 0-102.4h716.946286z" fill="#4C4C4C" p-id="4346"></path></svg>