<?xml version="1.0" standalone="no"?><!DOCTYPE svg PUBLIC "-//W3C//DTD SVG 1.1//EN" "http://www.w3.org/Graphics/SVG/1.1/DTD/svg11.dtd"><svg t="1760334920101" class="icon" viewBox="0 0 1024 1024" version="1.1" xmlns="http://www.w3.org/2000/svg" p-id="5341" xmlns:xlink="http://www.w3.org/1999/xlink" width="128" height="128"><path d="M923.3 534.16c20 0 36.03-16.13 36.03-35.94V173.94c0-60.7-49.51-110.07-110.35-110.07H174.37c-60.85 0-110.35 49.38-110.35 110.07v675.17c0 60.7 49.5 110.08 110.35 110.08h324.54c20 0 36.03-16.13 36.03-35.94s-16.17-35.94-36.03-35.94H174.37c-21 0-38.16-17.12-38.16-38.06V173.94c0-20.94 17.16-38.06 38.16-38.06h674.75c21 0 38.16 17.12 38.16 38.06v324.29a35.713 35.713 0 0 0 10.52 25.45 35.898 35.898 0 0 0 25.5 10.48z" fill="#333333" p-id="5342"></path><path d="M920.47 758.67H522.55c-21.48 0-38.86-17.73-38.86-39.64s17.38-39.63 38.86-39.63h397.92c21.48 0 38.87 17.73 38.87 39.63-0.01 21.91-17.39 39.64-38.87 39.64z" fill="#333333" p-id="5343"></path><path d="M679.55 915.79V517.76c0-21.48 17.73-38.87 39.64-38.87s39.63 17.39 39.63 38.87v397.89c0 21.49-17.73 38.88-39.63 38.88-21.92 0.14-39.64-17.25-39.64-38.74z" fill="#333333" p-id="5344"></path></svg>