<?xml version="1.0" standalone="no"?><!DOCTYPE svg PUBLIC "-//W3C//DTD SVG 1.1//EN" "http://www.w3.org/Graphics/SVG/1.1/DTD/svg11.dtd"><svg t="1757583548044" class="icon" viewBox="0 0 1331 1024" version="1.1" xmlns="http://www.w3.org/2000/svg" p-id="15186" xmlns:xlink="http://www.w3.org/1999/xlink" width="166.375" height="128"><path d="M450.763264 588.8c35.84 0 66.56 30.72 66.56 66.56v168.96c0 25.6-10.24 46.08-30.72 61.44-20.48 15.36-46.08 15.36-66.56 0-20.48-10.24-30.72-35.84-30.72-56.32v-168.96c0-20.48 5.12-35.84 20.48-46.08 5.12-20.48 20.48-25.6 40.96-25.6z m378.88 0c35.84 0 66.56 30.72 66.56 66.56v168.96c0 25.6-10.24 46.08-30.72 61.44-20.48 15.36-46.08 15.36-66.56 0-20.48-10.24-30.72-35.84-30.72-56.32v-168.96c0-20.48 5.12-35.84 20.48-46.08 10.24-20.48 25.6-25.6 40.96-25.6z m-189.44 56.32c35.84 0 66.56 30.72 66.56 66.56V768c0 25.6-10.24 46.08-30.72 61.44-20.48 15.36-46.08 15.36-66.56 0-20.48-10.24-30.72-35.84-30.72-56.32V716.8c0-20.48 5.12-35.84 20.48-46.08 5.12-20.48 25.6-25.6 40.96-25.6z" fill="" p-id="15187"></path><path d="M450.763264 921.6c-15.36 0-30.72-5.12-46.08-15.36-25.6-15.36-46.08-51.2-40.96-81.92v-168.96c0-25.6 10.24-46.08 25.6-66.56 10.24-15.36 35.84-25.6 61.44-25.6 51.2 0 87.04 40.96 87.04 92.16v168.96c0 30.72-15.36 66.56-40.96 81.92-15.36 10.24-30.72 15.36-46.08 15.36z m-5.12-307.2c-10.24 0-20.48 5.12-25.6 10.24-5.12 10.24-10.24 20.48-10.24 30.72v174.08c0 15.36 5.12 30.72 20.48 35.84 10.24 10.24 25.6 10.24 40.96 0 10.24-10.24 20.48-20.48 20.48-35.84v-174.08c-5.12-20.48-20.48-40.96-46.08-40.96 5.12 0 0 0 0 0z m384 307.2c-15.36 0-30.72-5.12-46.08-15.36-25.6-15.36-46.08-51.2-40.96-81.92v-168.96c0-25.6 10.24-46.08 25.6-66.56s40.96-30.72 66.56-25.6c51.2 0 87.04 40.96 87.04 92.16v168.96c0 30.72-15.36 66.56-40.96 81.92-15.36 10.24-30.72 15.36-51.2 15.36z m0-307.2c-10.24 0-20.48 5.12-25.6 10.24-5.12 10.24-10.24 20.48-10.24 30.72v174.08c0 15.36 5.12 30.72 20.48 35.84 10.24 10.24 25.6 10.24 40.96 0 10.24-10.24 20.48-20.48 20.48-35.84v-174.08c-5.12-20.48-20.48-40.96-46.08-40.96z m-189.44 250.88c-15.36 0-30.72-5.12-46.08-15.36-25.6-15.36-46.08-51.2-40.96-81.92v-56.32c0-25.6 10.24-46.08 25.6-66.56s40.96-30.72 66.56-25.6c51.2 0 87.04 40.96 87.04 92.16V768c0 30.72-15.36 61.44-40.96 81.92-20.48 10.24-35.84 15.36-51.2 15.36z m0-194.56c-10.24 0-20.48 5.12-25.6 10.24-5.12 10.24-10.24 20.48-10.24 30.72V768c0 15.36 5.12 30.72 20.48 35.84 10.24 10.24 25.6 10.24 40.96 0 10.24-10.24 20.48-20.48 20.48-35.84v-56.32c-5.12-20.48-25.6-40.96-46.08-40.96z" fill="#FFFFFF" p-id="15188"></path><path d="M1085.643264 476.16c128 20.48 220.16 133.12 220.16 266.24-5.12 143.36-117.76 256-256 256H1024.203264c-20.48 0-35.84-5.12-46.08-20.48-10.24-10.24-20.48-30.72-20.48-46.08V455.68c0-168.96-122.88-296.96-291.84-296.96-168.96 0-291.84 128-291.84 296.96v476.16c0 20.48-5.12 35.84-20.48 46.08-10.24 15.36-30.72 20.48-46.08 20.48h-25.6c-138.24 0-250.88-112.64-256-256-5.12-133.12 92.16-245.76 220.16-266.24v-20.48C245.963264 215.04 430.283264 25.6 665.803264 25.6c112.64 0 220.16 40.96 302.08 122.88 81.92 81.92 122.88 189.44 122.88 307.2v20.48z" fill="" p-id="15189"></path><path d="M1019.083264 1024c-20.48 0-46.08-10.24-61.44-25.6-15.36-15.36-25.6-40.96-25.6-66.56V455.68c0-153.6-112.64-271.36-266.24-271.36S399.563264 302.08 399.563264 455.68v476.16c0 25.6-10.24 46.08-25.6 66.56-15.36 15.36-40.96 25.6-66.56 25.6h-25.6c-153.6 0-276.48-122.88-281.6-281.6-5.12-138.24 87.04-256 220.16-286.72C220.363264 199.68 414.923264 0 665.803264 0c117.76 0 235.52 46.08 317.44 133.12 81.92 87.04 128 204.8 128 322.56 128 30.72 220.16 148.48 220.16 286.72-5.12 158.72-128 281.6-281.6 281.6h-30.72c5.12 0 0 0 0 0zM665.803264 133.12c179.2 0 317.44 138.24 317.44 322.56v476.16c0 10.24 5.12 20.48 10.24 30.72 5.12 10.24 20.48 10.24 30.72 10.24h25.6c128 0 225.28-102.4 230.4-230.4 5.12-117.76-81.92-220.16-194.56-240.64l-20.48-5.12v-40.96c0-107.52-40.96-209.92-112.64-286.72C875.723264 92.16 768.203264 51.2 665.803264 51.2 445.643264 51.2 271.563264 230.4 271.563264 455.68v40.96l-25.6 5.12c-112.64 20.48-199.68 122.88-194.56 240.64C56.523264 870.4 153.803264 972.8 281.803264 972.8H307.403264c10.24 0 20.48-5.12 30.72-10.24 5.12-10.24 10.24-20.48 10.24-30.72V455.68c0-184.32 138.24-322.56 317.44-322.56z" fill="#FFFFFF" p-id="15190"></path></svg>