<?xml version="1.0" standalone="no"?><!DOCTYPE svg PUBLIC "-//W3C//DTD SVG 1.1//EN" "http://www.w3.org/Graphics/SVG/1.1/DTD/svg11.dtd"><svg t="1744881490046" class="icon" viewBox="0 0 1066 1024" version="1.1" xmlns="http://www.w3.org/2000/svg" p-id="21638" xmlns:xlink="http://www.w3.org/1999/xlink" width="208.203125" height="200"><path d="M258.08 770.346667a256.853333 256.853333 0 0 1-182.869333-75.690667C-25.013333 593.92-25.013333 430.165333 75.125333 329.514667a256.981333 256.981333 0 0 1 182.997334-75.818667c69.077333 0 134.016 26.88 182.869333 75.690667l137.386667 137.386666a64 64 0 1 1-90.496 90.496l-137.386667-137.344c-49.408-49.408-135.509333-49.365333-184.746667-0.042666a130.986667 130.986667 0 0 0 0.085334 184.362666c49.024 49.024 135.253333 49.237333 184.533333-0.128l16.682667-16.682666a64 64 0 0 1 90.496 90.581333l-16.64 16.64a256.853333 256.853333 0 0 1-182.826667 75.690667z" fill="#333333" p-id="21639"></path><path d="M808.053333 770.346667a257.024 257.024 0 0 1-182.869333-75.690667l-137.386667-137.386667a64 64 0 1 1 90.496-90.496l137.386667 137.344c49.365333 49.450667 135.466667 49.365333 184.704 0.042667a130.986667 130.986667 0 0 0-0.085333-184.362667c-49.024-49.066667-135.253333-49.194667-184.533334 0.128l-16.682666 16.682667a64 64 0 0 1-90.496-90.581333l16.64-16.64a256.853333 256.853333 0 0 1 182.826666-75.648c69.12 0 134.058667 26.88 182.869334 75.690666 100.224 100.736 100.224 264.490667 0.085333 365.141334a257.109333 257.109333 0 0 1-182.954667 75.776z" fill="#333333" p-id="21640"></path></svg>