<?xml version="1.0" standalone="no"?><!DOCTYPE svg PUBLIC "-//W3C//DTD SVG 1.1//EN" "http://www.w3.org/Graphics/SVG/1.1/DTD/svg11.dtd"><svg t="1744344915232" class="icon" viewBox="0 0 1024 1024" version="1.1" xmlns="http://www.w3.org/2000/svg" p-id="6635" xmlns:xlink="http://www.w3.org/1999/xlink" width="200" height="200"><path d="M688.605 45.362H103.664l311.696 132.03V802.94h273.132V551.132h45.824v294.57H415.36v173.656L4.075 845.588V3.735h730.241v337.217h-45.71V45.362z m331.093 400.057l-193.96 178.76V508.484H506.782V382.58h318.843V266.771l194.073 178.648z" p-id="6636"></path><path d="M688.605 45.362H103.664l311.696 132.03V802.94h273.132V551.132h45.824v294.57H415.36v173.656L4.075 845.588V3.735h730.241v337.217h-45.71V45.362z m331.093 400.057l-193.96 178.76V508.484H506.782V382.58h318.843V266.771l194.073 178.648z" p-id="6637"></path></svg>