<?xml version="1.0" standalone="no"?><!DOCTYPE svg PUBLIC "-//W3C//DTD SVG 1.1//EN" "http://www.w3.org/Graphics/SVG/1.1/DTD/svg11.dtd"><svg t="1757583594598" class="icon" viewBox="0 0 1024 1024" version="1.1" xmlns="http://www.w3.org/2000/svg" p-id="15350" xmlns:xlink="http://www.w3.org/1999/xlink" width="128" height="128"><path d="M821.76 802.676364a58.181818 58.181818 0 0 1-58.181818-58.181819V428.218182c0-142.429091-113.105455-258.327273-252.276364-258.327273s-252.276364 115.898182-252.276363 258.327273V744.727273a58.181818 58.181818 0 0 1-116.363637 0V428.218182c0-206.661818 165.236364-374.690909 368.64-374.690909s368.64 168.029091 368.64 374.690909V744.727273c0 31.883636-26.065455 57.949091-58.181818 57.949091z" p-id="15351"></path><path d="M915.083636 912.290909h-67.490909c-46.08 0-83.549091-37.469091-83.549091-83.549091v-207.825454h151.04c46.08 0 83.549091 37.469091 83.549091 83.549091v124.276363a83.316364 83.316364 0 0 1-83.549091 83.549091zM176.407273 912.290909h-67.490909c-46.08 0-83.549091-37.469091-83.549091-83.549091v-124.276363c0-46.08 37.469091-83.549091 83.549091-83.549091h151.04v207.825454c0 46.08-37.469091 83.549091-83.549091 83.549091zM646.749091 892.741818a58.181818 58.181818 0 0 1-58.181818-58.181818v-195.723636a58.181818 58.181818 0 0 1 116.363636 0v195.723636a58.181818 58.181818 0 0 1-58.181818 58.181818zM382.370909 892.741818a58.181818 58.181818 0 0 1-58.181818-58.181818v-195.723636a58.181818 58.181818 0 0 1 116.363636 0v195.723636a58.181818 58.181818 0 0 1-58.181818 58.181818z" p-id="15352"></path></svg>