<?xml version="1.0" standalone="no"?><!DOCTYPE svg PUBLIC "-//W3C//DTD SVG 1.1//EN" "http://www.w3.org/Graphics/SVG/1.1/DTD/svg11.dtd"><svg t="1745129028981" class="icon" viewBox="0 0 1024 1024" version="1.1" xmlns="http://www.w3.org/2000/svg" p-id="8575" xmlns:xlink="http://www.w3.org/1999/xlink" width="200" height="200"><path d="M729.55904 123.28448V56.8576H293.2736v66.42688H56.8576v758.57408c0 46.99136 38.29248 85.27872 85.28384 85.27872h739.71712c46.99136 0 85.27872-38.29248 85.27872-85.27872V123.28448h-237.57824z m-379.42784-9.5744h322.28864v94.85824H350.1312V113.71008z m560.15872 768.14848a28.48256 28.48256 0 0 1-28.43136 28.43136H142.14144a28.47744 28.47744 0 0 1-28.43136-28.43136V180.14208H293.2736v85.28384h436.28544V180.14208h180.73088v701.71648z" p-id="8576"></path><path d="M236.70784 726.94784h550.00064v56.8576H236.70784v-56.8576z m479.80032-292.68992l-63.24224-70.49216-176.95232 158.67392-103.84384-102.97856-66.71872 67.3024 167.08608 165.92896 243.67104-218.43456z" p-id="8577"></path></svg>