<?xml version="1.0" standalone="no"?><!DOCTYPE svg PUBLIC "-//W3C//DTD SVG 1.1//EN" "http://www.w3.org/Graphics/SVG/1.1/DTD/svg11.dtd"><svg t="1721062709678" class="icon" viewBox="0 0 1024 1024" version="1.1" xmlns="http://www.w3.org/2000/svg" p-id="27190" xmlns:xlink="http://www.w3.org/1999/xlink" width="200" height="200"><path d="M113.777778 625.777778c62.577778 0 113.777778-51.2 113.777778-113.777778s-51.2-113.777778-113.777778-113.777778-113.777778 51.2-113.777778 113.777778 51.2 113.777778 113.777778 113.777778z m398.222222 0c62.577778 0 113.777778-51.2 113.777778-113.777778s-51.2-113.777778-113.777778-113.777778-113.777778 51.2-113.777778 113.777778 51.2 113.777778 113.777778 113.777778z m398.222222 0c62.577778 0 113.777778-51.2 113.777778-113.777778s-51.2-113.777778-113.777778-113.777778-113.777778 51.2-113.777778 113.777778 51.2 113.777778 113.777778 113.777778z" fill="#666666" p-id="27191"></path></svg>