<?xml version="1.0" standalone="no"?><!DOCTYPE svg PUBLIC "-//W3C//DTD SVG 1.1//EN" "http://www.w3.org/Graphics/SVG/1.1/DTD/svg11.dtd"><svg t="1731570992228" class="icon" viewBox="0 0 1024 1024" version="1.1" xmlns="http://www.w3.org/2000/svg" p-id="6313" xmlns:xlink="http://www.w3.org/1999/xlink" width="200" height="200"><path d="M512 64a448 448 0 1 1 0 896A448 448 0 0 1 512 64z m0 89.6a358.4 358.4 0 1 0 0 716.8A358.4 358.4 0 0 0 512 153.6zM320 448a64 64 0 1 1 0 128 64 64 0 0 1 0-128z m192 0a64 64 0 1 1 0 128 64 64 0 0 1 0-128z m192 0a64 64 0 1 1 0 128 64 64 0 0 1 0-128z" fill="#2B2B2D" p-id="6314"></path></svg>