<?xml version="1.0" standalone="no"?><!DOCTYPE svg PUBLIC "-//W3C//DTD SVG 1.1//EN" "http://www.w3.org/Graphics/SVG/1.1/DTD/svg11.dtd"><svg t="1754483147821" class="icon" viewBox="0 0 1024 1024" version="1.1" xmlns="http://www.w3.org/2000/svg" p-id="19048" xmlns:xlink="http://www.w3.org/1999/xlink" width="200" height="200"><path d="M887.9 637.1c-22-195.2-213.1-298.3-213.1-298.3 44.7-45.2 63-109.6 52.2-147.1-12.4-42.8-68.3-68.6-127.7-44.8 0 0-14.4-14.3-35.1-25.3-20.6-11-52.2-9.6-52.2-9.6s-31.6-1.4-52.2 9.6-35.1 25.3-35.1 25.3c-59.4-23.9-115.3 1.9-127.7 44.8-10.8 37.5 7.5 101.9 52.2 147.1 0 0-191.1 103.1-213.1 298.3-22 195.2 48.1 274.9 138.8 274.9h474.3c90.6 0 160.7-79.7 138.7-274.9z m-244.3 43.7c13 0 23.6 10.6 23.6 23.6S656.6 728 643.6 728H531.1v66.3c0 13.1-10.6 23.6-23.6 23.6-13 0-23.6-10.6-23.6-23.6V728H371.3c-13 0-23.6-10.6-23.6-23.6 0-13.1 10.6-23.6 23.6-23.6h112.5v-61.1H371.3c-13 0-23.6-10.6-23.6-23.6s10.6-23.6 23.6-23.6h109.5l-89.6-98.8c-8.8-9.7-8-24.6 1.6-33.4 9.7-8.8 24.6-8 33.4 1.6l81.3 89.6 81.3-89.6c8.8-9.7 23.7-10.4 33.4-1.6s10.4 23.7 1.6 33.4l-89.6 98.8h109.5c13 0 23.6 10.6 23.6 23.6 0 13.1-10.6 23.6-23.6 23.6H531.1v61.1h112.5z" p-id="19049"></path></svg>