<?xml version="1.0" standalone="no"?><!DOCTYPE svg PUBLIC "-//W3C//DTD SVG 1.1//EN" "http://www.w3.org/Graphics/SVG/1.1/DTD/svg11.dtd"><svg t="1746596903828" class="icon" viewBox="0 0 1024 1024" version="1.1" xmlns="http://www.w3.org/2000/svg" p-id="8855" xmlns:xlink="http://www.w3.org/1999/xlink" width="200" height="200"><path d="M688.4352 397.824L511.7952 610.2016l-177.2544-212.992h-91.136v34.5088a30.8224 30.8224 0 0 1 28.9792 12.288v3.6864c38.8096 49.8688 191.488 223.4368 234.5984 276.992 43.1104-54.1696 195.1744-227.7376 234.5984-278.2208 6.656-9.1136 17.7152-13.824 28.9792-12.288v-39.424h-86.2208c-0.2048 0 6.5536 0 4.096 3.072z m259.7888-52.9408c32.6656 38.7072 32.6656 95.4368 0 134.2464L736.4608 709.3248 580.096 877.9776a85.7088 85.7088 0 0 1-67.6864 34.5088 86.00576 86.00576 0 0 1-67.6864-34.5088L293.2736 714.8544 75.8784 479.6416a100.97664 100.97664 0 0 1 0-132.4032l100.352-111.4112 83.1488-90.5216a88.40192 88.40192 0 0 1 68.9152-33.8944h369.3568a90.8288 90.8288 0 0 1 66.4576 33.28C798.72 179.2 873.1648 261.7344 918.1184 310.3744l30.1056 34.5088z" fill="#409EFF" p-id="8856"></path></svg>