<?xml version="1.0" standalone="no"?><!DOCTYPE svg PUBLIC "-//W3C//DTD SVG 1.1//EN" "http://www.w3.org/Graphics/SVG/1.1/DTD/svg11.dtd"><svg t="1760243490204" class="icon" viewBox="0 0 1024 1024" version="1.1" xmlns="http://www.w3.org/2000/svg" p-id="6567" xmlns:xlink="http://www.w3.org/1999/xlink" width="128" height="128"><path d="M648.45 446.06l-194.47 176.4-75.45-83.43c-15.74-17.41-42.62-18.76-60.03-3.01-17.41 15.74-18.76 42.62-3.02 60.03l87.88 97.17c11.93 13.19 28.27 20.94 46.03 21.81 1.13 0.06 2.25 0.08 3.37 0.08 16.54 0 32.26-6.06 44.6-17.25l208.2-188.85c17.39-15.77 18.69-42.65 2.92-60.03-15.77-17.38-42.65-18.69-60.03-2.92z" p-id="6568"></path><path d="M836.5 145h-76.67c-19.78-46.95-66.27-80-120.33-80h-255c-54.06 0-100.55 33.05-120.33 80H187.5c-66.27 0-120 53.73-120 120v574c0 66.27 53.73 120 120 120h649c66.27 0 120-53.73 120-120V265c0-66.27-53.73-120-120-120z m-452 0h255c25.95 0 47.37 19.67 50.18 44.88 0.08 0.73 0.14 1.47 0.19 2.2 0.01 0.2 0.03 0.4 0.05 0.59 0.05 0.95 0.08 1.89 0.08 2.83 0 27.85-22.65 50.5-50.5 50.5h-255c-27.85 0-50.5-22.65-50.5-50.5 0-0.93 0.03-1.88 0.08-2.83 0.01-0.2 0.03-0.4 0.05-0.59 0.05-0.73 0.11-1.47 0.19-2.2 2.81-25.21 24.23-44.88 50.18-44.88z m492 694c0 22.09-17.91 40-40 40h-649c-22.09 0-40-17.91-40-40V265c0-22.09 17.91-40 40-40h66.87c1.75 0 3.26 1.19 3.69 2.88 0 0.01 0 0.02 0.01 0.03 0.07 0.29 0.15 0.57 0.23 0.86 0.18 0.69 0.37 1.38 0.56 2.07l0.3 1.05c0.18 0.62 0.37 1.25 0.56 1.87 0.11 0.36 0.22 0.72 0.34 1.08 0.19 0.61 0.39 1.23 0.6 1.84 0.12 0.35 0.23 0.69 0.35 1.04 0.22 0.65 0.45 1.3 0.69 1.95 0.11 0.29 0.21 0.59 0.32 0.88 0.32 0.86 0.64 1.71 0.97 2.56 0.03 0.08 0.06 0.15 0.09 0.23 0.37 0.94 0.75 1.87 1.15 2.8 0.09 0.22 0.19 0.44 0.29 0.67 0.3 0.69 0.6 1.38 0.91 2.07 0.14 0.31 0.28 0.61 0.42 0.91 0.28 0.6 0.56 1.21 0.84 1.81 0.15 0.32 0.31 0.64 0.47 0.96 0.29 0.59 0.58 1.17 0.87 1.76 0.16 0.31 0.31 0.62 0.47 0.93 0.32 0.62 0.65 1.23 0.98 1.85l0.42 0.78c0.43 0.78 0.86 1.56 1.31 2.34 0.05 0.08 0.09 0.16 0.14 0.25 0.5 0.87 1.02 1.74 1.54 2.6 0.1 0.17 0.21 0.34 0.31 0.5 0.41 0.67 0.83 1.34 1.25 2.01 0.17 0.26 0.34 0.52 0.51 0.79 0.37 0.57 0.74 1.14 1.12 1.7l0.57 0.84c0.37 0.55 0.75 1.09 1.14 1.64a247.483 247.483 0 0 0 1.81 2.5c0.17 0.23 0.34 0.47 0.52 0.7 0.52 0.69 1.05 1.38 1.58 2.06 0.07 0.09 0.14 0.19 0.22 0.28 0.62 0.79 1.25 1.57 1.89 2.35l0.31 0.37c0.53 0.63 1.06 1.26 1.59 1.88 0.19 0.23 0.39 0.45 0.59 0.67 0.45 0.52 0.91 1.03 1.37 1.55 0.22 0.25 0.45 0.49 0.68 0.74 0.45 0.49 0.9 0.97 1.36 1.46l0.69 0.72c0.48 0.5 0.96 0.99 1.45 1.48 0.21 0.21 0.41 0.42 0.62 0.63 0.59 0.59 1.19 1.17 1.79 1.75 0.11 0.1 0.21 0.2 0.31 0.3a107.167 107.167 0 0 0 2.51 2.32c0.63 0.57 1.26 1.13 1.9 1.68 0.22 0.19 0.45 0.38 0.67 0.57 0.52 0.45 1.05 0.9 1.58 1.34 0.26 0.22 0.52 0.43 0.78 0.64 0.51 0.42 1.02 0.83 1.54 1.24 0.27 0.21 0.53 0.42 0.8 0.63 0.54 0.42 1.07 0.83 1.62 1.24l0.74 0.56c0.64 0.48 1.28 0.95 1.93 1.41l0.45 0.33c0.82 0.58 1.64 1.15 2.47 1.71 0.1 0.07 0.21 0.14 0.31 0.2 0.71 0.48 1.43 0.95 2.16 1.42 0.25 0.16 0.51 0.32 0.76 0.48 0.58 0.37 1.16 0.73 1.75 1.09 0.29 0.18 0.59 0.36 0.88 0.54 0.56 0.34 1.12 0.67 1.69 1 0.3 0.18 0.61 0.35 0.92 0.53 0.58 0.33 1.16 0.65 1.74 0.98 0.29 0.16 0.57 0.32 0.86 0.47 0.67 0.36 1.34 0.71 2.01 1.06 0.21 0.11 0.41 0.22 0.62 0.32 0.89 0.46 1.79 0.9 2.69 1.34 0.1 0.05 0.19 0.09 0.29 0.14 0.79 0.38 1.59 0.76 2.4 1.12 0.29 0.13 0.57 0.25 0.86 0.38 0.62 0.28 1.25 0.55 1.87 0.82 0.33 0.14 0.67 0.28 1 0.42 0.59 0.25 1.19 0.49 1.78 0.73 0.34 0.14 0.69 0.27 1.03 0.41 0.61 0.24 1.22 0.47 1.83 0.7 0.33 0.12 0.66 0.25 0.99 0.37 0.68 0.25 1.37 0.49 2.05 0.72l0.78 0.27c0.95 0.32 1.91 0.63 2.87 0.93l0.29 0.09c0.86 0.27 1.73 0.52 2.59 0.77 0.31 0.09 0.63 0.17 0.94 0.26l1.98 0.54c0.36 0.1 0.73 0.19 1.1 0.28a102.17 102.17 0 0 0 3.01 0.72c0.63 0.14 1.26 0.28 1.89 0.41 0.37 0.08 0.74 0.16 1.1 0.23 0.69 0.14 1.38 0.27 2.08 0.4 0.31 0.06 0.62 0.12 0.93 0.17 1 0.18 2.01 0.35 3.02 0.5l0.19 0.03c0.95 0.14 1.89 0.28 2.85 0.4l1.01 0.12 2.07 0.24 1.17 0.12c0.64 0.06 1.29 0.12 1.94 0.17l1.22 0.09c0.65 0.05 1.3 0.09 1.94 0.12 0.4 0.02 0.79 0.05 1.19 0.06 0.71 0.03 1.41 0.06 2.12 0.08 0.34 0.01 0.68 0.03 1.02 0.03 1.05 0.02 2.1 0.04 3.15 0.04h255c1.05 0 2.1-0.02 3.15-0.04l1.02-0.03c0.71-0.02 1.42-0.05 2.12-0.08l1.19-0.06 1.94-0.12 1.22-0.09c0.65-0.05 1.29-0.11 1.94-0.17 0.39-0.04 0.78-0.07 1.17-0.12 0.69-0.07 1.38-0.15 2.07-0.24l1.01-0.12c0.95-0.12 1.9-0.26 2.85-0.4l0.19-0.03c1.01-0.16 2.02-0.32 3.02-0.5 0.31-0.06 0.62-0.12 0.93-0.17 0.69-0.13 1.39-0.26 2.08-0.4 0.37-0.07 0.74-0.15 1.1-0.23 0.63-0.13 1.26-0.27 1.89-0.41 0.38-0.09 0.76-0.17 1.14-0.26 0.62-0.15 1.25-0.3 1.87-0.46 0.37-0.09 0.73-0.18 1.1-0.28 0.66-0.17 1.32-0.35 1.98-0.54 0.31-0.09 0.63-0.17 0.94-0.26 0.87-0.25 1.73-0.51 2.59-0.77l0.29-0.09c0.96-0.3 1.92-0.61 2.87-0.93l0.78-0.27c0.69-0.24 1.37-0.48 2.05-0.72 0.33-0.12 0.66-0.25 0.99-0.37 0.61-0.23 1.22-0.46 1.83-0.7 0.35-0.14 0.69-0.27 1.03-0.41 0.6-0.24 1.19-0.48 1.78-0.73 0.33-0.14 0.67-0.28 1-0.42 0.63-0.27 1.25-0.54 1.87-0.82 0.29-0.13 0.57-0.25 0.86-0.38 0.8-0.37 1.6-0.74 2.4-1.12 0.1-0.05 0.19-0.09 0.29-0.14 0.9-0.44 1.8-0.88 2.69-1.34 0.21-0.11 0.41-0.22 0.62-0.32 0.67-0.35 1.34-0.7 2.01-1.06 0.29-0.16 0.58-0.32 0.86-0.47a97.6 97.6 0 0 0 1.74-0.98c0.31-0.17 0.61-0.35 0.92-0.53 0.56-0.33 1.13-0.66 1.69-1 0.3-0.18 0.59-0.36 0.88-0.54 0.59-0.36 1.17-0.73 1.75-1.09 0.25-0.16 0.51-0.32 0.76-0.48 0.72-0.47 1.44-0.94 2.16-1.42 0.1-0.07 0.21-0.14 0.31-0.2 0.83-0.56 1.65-1.13 2.47-1.71l0.45-0.33c0.65-0.46 1.29-0.93 1.93-1.41 0.25-0.18 0.49-0.37 0.74-0.56 0.54-0.41 1.08-0.82 1.62-1.24 0.27-0.21 0.54-0.42 0.8-0.63 0.52-0.41 1.03-0.82 1.54-1.24 0.26-0.21 0.52-0.43 0.78-0.64 0.53-0.44 1.06-0.89 1.58-1.34 0.22-0.19 0.45-0.38 0.67-0.57 0.64-0.55 1.27-1.12 1.9-1.68l0.3-0.27c0.74-0.68 1.48-1.36 2.21-2.05 0.11-0.1 0.21-0.2 0.31-0.3 0.6-0.58 1.2-1.16 1.79-1.75 0.21-0.21 0.42-0.42 0.62-0.63 0.49-0.49 0.97-0.98 1.45-1.48l0.69-0.72c0.46-0.48 0.91-0.97 1.36-1.46l0.68-0.74c0.46-0.51 0.92-1.03 1.37-1.55 0.2-0.22 0.39-0.45 0.59-0.67 0.54-0.62 1.07-1.25 1.59-1.88l0.31-0.37c0.64-0.78 1.27-1.56 1.89-2.35 0.07-0.09 0.14-0.19 0.22-0.28 0.53-0.68 1.06-1.37 1.58-2.06l0.52-0.7c0.42-0.56 0.83-1.12 1.23-1.69 0.19-0.27 0.39-0.54 0.58-0.81 0.38-0.54 0.76-1.09 1.14-1.64l0.57-0.84c0.38-0.56 0.75-1.13 1.12-1.7 0.17-0.26 0.34-0.52 0.51-0.79 0.42-0.66 0.84-1.33 1.25-2.01 0.1-0.17 0.21-0.33 0.31-0.5 0.52-0.86 1.04-1.73 1.54-2.6 0.05-0.08 0.09-0.16 0.14-0.25 0.44-0.77 0.88-1.55 1.31-2.34l0.42-0.78c0.33-0.61 0.66-1.23 0.98-1.85 0.16-0.31 0.32-0.62 0.47-0.93 0.3-0.58 0.59-1.17 0.87-1.76 0.16-0.32 0.31-0.64 0.47-0.96 0.29-0.6 0.57-1.2 0.84-1.81 0.14-0.3 0.28-0.61 0.42-0.91 0.31-0.69 0.61-1.38 0.91-2.07 0.1-0.22 0.19-0.44 0.29-0.67 0.39-0.93 0.78-1.86 1.15-2.8 0.03-0.08 0.06-0.15 0.09-0.23 0.33-0.85 0.66-1.7 0.97-2.56 0.11-0.29 0.21-0.59 0.32-0.88 0.23-0.65 0.46-1.29 0.69-1.95 0.12-0.35 0.23-0.69 0.35-1.04 0.2-0.61 0.4-1.22 0.6-1.84 0.11-0.36 0.23-0.72 0.34-1.08 0.19-0.62 0.37-1.24 0.56-1.87l0.3-1.05c0.19-0.69 0.38-1.38 0.56-2.07 0.08-0.29 0.15-0.57 0.23-0.86 0-0.01 0-0.02 0.01-0.03a3.817 3.817 0 0 1 3.69-2.88h66.87c22.09 0 40 17.91 40 40v574z" p-id="6569"></path></svg>