<svg width="400.000000" height="300.000000" viewBox="0 0 400 300" fill="none" xmlns="http://www.w3.org/2000/svg" xmlns:xlink="http://www.w3.org/1999/xlink">
	<desc>
			Created with Pixso.
	</desc>
	<defs>
		<clipPath id="clip107_1">
			<rect id="未开通支付方式 (1)" width="400.000000" height="300.000000" fill="white" fill-opacity="0"/>
		</clipPath>
		<linearGradient id="paint_linear_107_2_0" x1="143.612000" y1="96.030998" x2="143.612000" y2="136.559006" gradientUnits="userSpaceOnUse">
			<stop stop-color="#DCDCE4"/>
			<stop offset="1.000000" stop-color="#DEDEE6" stop-opacity="0.000000"/>
		</linearGradient>
		<linearGradient id="paint_linear_107_3_0" x1="274.009003" y1="126.867996" x2="274.009003" y2="156.824005" gradientUnits="userSpaceOnUse">
			<stop stop-color="#DCDCE4"/>
			<stop offset="1.000000" stop-color="#DEDEE6" stop-opacity="0.000000"/>
		</linearGradient>
		<linearGradient id="paint_linear_107_4_0" x1="186.895004" y1="73.123993" x2="186.895004" y2="175.258011" gradientUnits="userSpaceOnUse">
			<stop stop-color="#F0F0F5"/>
			<stop offset="1.000000" stop-color="#FAFAFC"/>
		</linearGradient>
		<linearGradient id="paint_linear_107_6_0" x1="167.666000" y1="172.651993" x2="167.666000" y2="149.934006" gradientUnits="userSpaceOnUse">
			<stop stop-color="#EEEEF8"/>
			<stop offset="1.000000" stop-color="#BDBDC8"/>
		</linearGradient>
		<linearGradient id="paint_linear_107_7_0" x1="148.968994" y1="146.792007" x2="148.968994" y2="236.475006" gradientUnits="userSpaceOnUse">
			<stop stop-color="#E9E9EF"/>
			<stop offset="1.000000" stop-color="#FAFAFC"/>
		</linearGradient>
		<linearGradient id="paint_linear_107_8_0" x1="136.792007" y1="203.481995" x2="136.792007" y2="226.403000" gradientUnits="userSpaceOnUse">
			<stop stop-color="#FAFAFB"/>
			<stop offset="1.000000" stop-color="#E3E3EF"/>
		</linearGradient>
		<linearGradient id="paint_linear_107_10_0" x1="271.585999" y1="175.326004" x2="271.585999" y2="209.490997" gradientUnits="userSpaceOnUse">
			<stop stop-color="#EBEBEE"/>
			<stop offset="1.000000" stop-color="#FCFCFD"/>
		</linearGradient>
		<linearGradient id="paint_linear_107_12_0" x1="299.559998" y1="177.968994" x2="299.559998" y2="199.429001" gradientUnits="userSpaceOnUse">
			<stop stop-color="#EBEBEE"/>
			<stop offset="1.000000" stop-color="#FCFCFD"/>
		</linearGradient>
		<linearGradient id="paint_linear_107_16_0" x1="145.300995" y1="108.467003" x2="145.300995" y2="101.317001" gradientUnits="userSpaceOnUse">
			<stop stop-color="#FDFDFF"/>
			<stop offset="1.000000" stop-color="#E7E7ED"/>
		</linearGradient>
		<linearGradient id="paint_linear_107_17_0" x1="152.229980" y1="119.040001" x2="152.229980" y2="111.889999" gradientUnits="userSpaceOnUse">
			<stop stop-color="#FDFDFF"/>
			<stop offset="1.000000" stop-color="#E7E7ED"/>
		</linearGradient>
		<linearGradient id="paint_linear_107_18_0" x1="131.276993" y1="161.229004" x2="131.276993" y2="175.326004" gradientUnits="userSpaceOnUse">
			<stop stop-color="#FFFFFF"/>
			<stop offset="1.000000" stop-color="#FAFAFC"/>
		</linearGradient>
		<linearGradient id="paint_linear_107_19_0" x1="160.351990" y1="161.229004" x2="160.351990" y2="165.634003" gradientUnits="userSpaceOnUse">
			<stop stop-color="#FFFFFF"/>
			<stop offset="1.000000" stop-color="#FAFAFC"/>
		</linearGradient>
		<linearGradient id="paint_linear_107_20_0" x1="160.352005" y1="170.921005" x2="160.352005" y2="175.326004" gradientUnits="userSpaceOnUse">
			<stop stop-color="#FFFFFF"/>
			<stop offset="1.000000" stop-color="#FAFAFC"/>
		</linearGradient>
		<linearGradient id="paint_linear_107_21_0" x1="149.779999" y1="180.612000" x2="149.779999" y2="185.018005" gradientUnits="userSpaceOnUse">
			<stop stop-color="#FFFFFF"/>
			<stop offset="1.000000" stop-color="#FAFAFC"/>
		</linearGradient>
	</defs>
	<g clip-path="url(#clip107_1)">
		<g opacity="0.302000">
			<path id="path" d="M85.39 115.55C95.56 113.9 99.67 112.66 109.59 103.01C119.52 93.36 129.58 107.44 144.51 101.78C159.43 96.13 160.8 89.29 183.62 110.25C194.15 119.16 202.52 115.64 207.67 119.16C211.11 121.51 214.43 127.31 217.62 136.55L85.39 136.55C74.86 132.86 69.6 129.79 69.6 127.34C69.6 123.68 75.23 117.2 85.39 115.55Z" fill="url(#paint_linear_107_2_0)" fill-opacity="1.000000" fill-rule="nonzero"/>
		</g>
		<g opacity="0.302000">
			<path id="path" d="M228.96 141.3C236.82 140.08 240 139.16 247.68 132.02C255.36 124.89 263.15 135.3 274.7 131.12C286.25 126.94 287.3 121.88 304.97 137.38C313.11 143.96 319.59 141.36 323.58 143.96C326.24 145.7 328.8 149.99 331.27 156.82L228.96 156.82C220.81 154.09 216.74 151.82 216.74 150.01C216.74 147.3 221.09 142.52 228.96 141.3Z" fill="url(#paint_linear_107_3_0)" fill-opacity="1.000000" fill-rule="nonzero"/>
		</g>
		<path id="path" d="M143.39 73.12L220.56 73.12C221.08 73.12 221.34 73.38 221.34 73.9L221.34 163.93C221.34 169.67 216.69 174.32 210.95 174.32L144.17 174.32C143.65 174.32 143.39 174.06 143.39 173.54L143.39 73.12Z" fill="url(#paint_linear_107_4_0)" fill-opacity="1.000000" fill-rule="nonzero"/>
		<path id="path" d="M165.28 146.79L190.97 146.79L190.97 165.91L165.75 165.91L165.28 146.79Z" fill="#E9E9EF" fill-opacity="1.000000" fill-rule="evenodd"/>
		<path id="path" d="M200.05 164.97C200.05 166.17 200.27 167.32 200.72 168.43C201.16 169.54 201.79 170.53 202.61 171.4C203.43 172.27 204.39 172.95 205.47 173.45C206.56 173.96 207.7 174.24 208.89 174.31C208.72 174.32 208.55 174.32 208.38 174.32L136.82 174.32C131.08 174.32 126.43 169.67 126.43 163.93L126.43 155.72L181.4 155.72C181.45 154.52 181.71 153.38 182.2 152.29C182.69 151.2 183.37 150.24 184.22 149.4C185.08 148.57 186.07 147.93 187.17 147.48C188.28 147.03 189.43 146.8 190.63 146.79C191.83 146.79 193.07 147.01 194.18 147.46C195.3 147.91 196.29 148.55 197.16 149.38C198.03 150.21 198.72 151.17 199.22 152.27C199.71 153.37 199.99 154.52 200.04 155.72L200.05 164.97Z" fill="url(#paint_linear_107_6_0)" fill-opacity="1.000000" fill-rule="nonzero"/>
		<path id="path" d="M124.45 146.79L181.01 146.79C181.53 146.79 181.79 147.05 181.79 147.57L181.79 210.92C181.79 212.04 181.57 213.12 181.14 214.15C180.71 215.19 180.1 216.1 179.31 216.9C178.52 217.69 177.6 218.3 176.57 218.73C175.53 219.16 174.45 219.37 173.33 219.37L116.92 219.37C116.4 219.37 116.14 219.11 116.14 218.6L116.14 155.1C116.14 154 116.35 152.94 116.77 151.92C117.2 150.9 117.8 150 118.58 149.22C119.35 148.44 120.25 147.84 121.27 147.42C122.29 147 123.35 146.79 124.45 146.79Z" fill="url(#paint_linear_107_7_0)" fill-opacity="1.000000" fill-rule="nonzero"/>
		<path id="path" d="M164.38 203.48L164.38 211.49C164.38 212.54 164.58 213.54 164.98 214.51C165.38 215.47 165.94 216.33 166.68 217.07C167.42 217.81 168.28 218.37 169.24 218.77C170.21 219.17 171.21 219.37 172.26 219.37L116.16 219.37C107.96 219.37 101.32 212.73 101.32 204.53L101.32 203.48L164.38 203.48Z" fill="url(#paint_linear_107_8_0)" fill-opacity="1.000000" fill-rule="nonzero"/>
		<path id="path" d="M271.13 201.14C272.08 201.14 272.85 201.91 272.85 202.87L272.85 217.21C272.85 217.68 272.68 218.09 272.34 218.42C272.01 218.76 271.6 218.93 271.13 218.93C270.65 218.93 270.24 218.76 269.91 218.42C269.57 218.09 269.4 217.68 269.4 217.21L269.4 202.87C269.4 201.91 270.18 201.14 271.13 201.14Z" fill="#F0F0F3" fill-opacity="0.898039" fill-rule="evenodd"/>
		<path id="path" d="M267.59 179.92C264.39 186.57 253.37 206.95 268.81 209.23C284.26 211.51 283.57 197.95 280.86 193.09C278.15 188.24 275.09 185.52 275.09 179.92C275.09 174.32 270.79 173.28 267.59 179.92Z" fill="url(#paint_linear_107_10_0)" fill-opacity="1.000000" fill-rule="evenodd"/>
		<path id="path" d="M299 194.55L299.17 194.55C299.64 194.55 300.02 194.93 300.02 195.4L300.02 204.42C300.02 204.99 299.74 205.28 299.17 205.28L299 205.28C298.43 205.28 298.15 204.99 298.15 204.42L298.15 195.4C298.15 194.93 298.53 194.55 299 194.55Z" fill="#F0F0F3" fill-opacity="0.898039" fill-rule="evenodd"/>
		<path id="path" d="M296.95 180.85C294.86 185.03 287.66 197.83 297.75 199.26C307.83 200.7 307.38 192.18 305.61 189.13C303.84 186.08 301.85 184.37 301.85 180.85C301.85 177.34 299.04 176.68 296.95 180.85Z" fill="url(#paint_linear_107_12_0)" fill-opacity="1.000000" fill-rule="evenodd"/>
		<path id="path" d="M168.28 101.31L119.82 101.31C119.23 101.31 118.94 101.61 118.94 102.19L118.94 106.6C118.94 107.09 119.33 107.48 119.82 107.48L168.28 107.48C168.86 107.48 169.16 107.19 169.16 106.6L169.16 102.19C169.16 101.61 168.86 101.31 168.28 101.31Z" fill="url(#paint_linear_107_16_0)" fill-opacity="1.000000" fill-rule="nonzero"/>
		<path id="path" d="M133.92 111.89L168.72 111.89C169.31 111.88 169.6 112.18 169.6 112.77L169.6 117.17C169.6 117.76 169.31 118.05 168.72 118.05L133.92 118.05C133.33 118.05 133.03 117.76 133.03 117.17L133.03 112.77C133.03 112.18 133.33 111.88 133.92 111.89Z" fill="url(#paint_linear_107_17_0)" fill-opacity="1.000000" fill-rule="evenodd"/>
		<path id="path" d="M137.44 161.22L125.11 161.22C124.52 161.22 124.22 161.52 124.22 162.11L124.22 174.44C124.22 175.03 124.52 175.32 125.11 175.32L137.44 175.32C138.03 175.32 138.32 175.03 138.32 174.44L138.32 162.11C138.32 161.52 138.03 161.23 137.44 161.22Z" fill="url(#paint_linear_107_18_0)" fill-opacity="1.000000" fill-rule="nonzero"/>
		<path id="path" d="M146.25 161.22L174.44 161.22C174.93 161.22 175.33 161.62 175.33 162.11L175.33 164.75C175.33 165.34 175.03 165.63 174.44 165.63L146.25 165.63C145.66 165.63 145.37 165.34 145.37 164.75L145.37 162.11C145.37 161.62 145.76 161.22 146.25 161.22Z" fill="url(#paint_linear_107_19_0)" fill-opacity="1.000000" fill-rule="nonzero"/>
		<path id="path" d="M146.25 170.92L174.44 170.92C175.03 170.92 175.33 171.21 175.33 171.8L175.33 174.44C175.33 175.03 175.03 175.32 174.44 175.32L146.25 175.32C145.66 175.32 145.37 175.03 145.37 174.44L145.37 171.8C145.37 171.21 145.66 170.92 146.25 170.92Z" fill="url(#paint_linear_107_20_0)" fill-opacity="1.000000" fill-rule="nonzero"/>
		<path id="path" d="M125.11 180.61L174.44 180.61C174.93 180.61 175.33 181 175.33 181.49L175.33 184.13C175.33 184.72 175.03 185.01 174.44 185.01L125.11 185.01C124.52 185.01 124.22 184.72 124.22 184.13L124.22 181.49C124.22 181 124.62 180.61 125.11 180.61Z" fill="url(#paint_linear_107_21_0)" fill-opacity="1.000000" fill-rule="nonzero"/>
		<path id="path" d="M216.45 196.34L216.46 196.32C216.95 196.24 217.4 196.56 217.48 197.04C217.56 197.53 217.24 197.98 216.76 198.06L216.73 198.04L216.45 196.34ZM202.8 200.4L202.79 200.42C202.3 200.5 201.85 200.18 201.77 199.7C201.69 199.21 202.01 198.76 202.49 198.68L202.51 198.7L202.8 200.4ZM218.59 182.38L218.61 182.36C219.1 182.28 219.54 182.6 219.62 183.09C219.7 183.57 219.38 184.02 218.9 184.1L218.87 184.08L218.59 182.38ZM205.44 186.3L205.42 186.32C204.94 186.4 204.49 186.08 204.41 185.6C204.33 185.11 204.65 184.66 205.14 184.58L205.16 184.6L205.44 186.3ZM232.05 177.94L232.06 177.91C232.55 177.83 233 178.14 233.08 178.63C233.17 179.11 232.86 179.56 232.37 179.65L232.35 179.63L232.05 177.94ZM219.55 181.89L219.53 181.92C219.05 182 218.6 181.69 218.51 181.2C218.43 180.72 218.74 180.27 219.23 180.18L219.25 180.2L219.55 181.89ZM234.61 189.46L234.62 189.44C235.11 189.34 235.56 189.64 235.66 190.13C235.76 190.61 235.45 191.07 234.97 191.16L234.95 191.15L234.61 189.46ZM217.82 194.59L217.81 194.61C217.32 194.71 216.87 194.41 216.77 193.92C216.67 193.44 216.98 192.98 217.46 192.89L217.48 192.9L217.82 194.59ZM238.14 200.91L238.16 200.89C238.64 200.8 239.09 201.1 239.19 201.59C239.28 202.07 238.97 202.53 238.49 202.62L238.46 202.6L238.14 200.91ZM215.6 207L215.58 207.02C215.1 207.12 214.64 206.81 214.55 206.32C214.46 205.84 214.76 205.39 215.25 205.29L215.27 205.31L215.6 207ZM220.54 168.31L220.56 168.28C221.05 168.21 221.49 168.53 221.57 169.01C221.65 169.5 221.33 169.95 220.84 170.02L220.82 170.01L220.54 168.31ZM207.2 172.2L207.18 172.23C206.7 172.3 206.25 171.98 206.17 171.5C206.1 171.01 206.42 170.57 206.9 170.49L206.93 170.5L207.2 172.2ZM226.71 163.02L226.73 163C227.21 162.92 227.66 163.24 227.74 163.73C227.82 164.21 227.49 164.66 227.01 164.74L226.98 164.72L226.71 163.02ZM213.37 166.92L213.35 166.94C212.86 167.02 212.42 166.7 212.34 166.21C212.26 165.72 212.58 165.28 213.07 165.2L213.09 165.22L213.37 166.92ZM229.96 223.12L229.98 223.13C230.11 223.6 229.85 224.08 229.37 224.22C228.9 224.35 228.42 224.08 228.28 223.61L228.3 223.58L229.96 223.12ZM199.97 220.81L199.98 220.83C199.91 221.32 199.46 221.64 198.98 221.57C198.49 221.49 198.17 221.04 198.24 220.56L198.27 220.54L199.97 220.81Z" fill="#000000" fill-opacity="0" fill-rule="nonzero"/>
		<path id="path" d="M216.61 197.19L202.64 199.55M218.75 183.23L205.28 185.45M232.22 178.78L219.38 181.05M234.8 190.3L217.63 193.75M238.32 201.75L215.41 206.16M220.7 169.15L207.04 171.36M226.87 163.87L213.21 166.07M229.13 223.37L209.69 154.22L199.11 220.7" stroke="#E0E0EA" stroke-opacity="1.000000" stroke-width="1.762000" stroke-linejoin="round"/>
		<path id="path" d="M244.49 218.66L244.52 218.68C244.65 219.15 244.38 219.63 243.91 219.76C243.43 219.9 242.95 219.63 242.82 219.15L242.84 219.13L244.49 218.66ZM214.51 216.36L214.52 216.38C214.44 216.87 214 217.19 213.51 217.11C213.03 217.04 212.7 216.59 212.78 216.11L212.8 216.09L214.51 216.36Z" fill="#000000" fill-opacity="0" fill-rule="nonzero"/>
		<path id="path" d="M243.67 218.92L224.22 149.77L213.65 216.24" stroke="#E0E0EA" stroke-opacity="1.000000" stroke-width="1.762000" stroke-linejoin="round" stroke-linecap="round"/>
	</g>
</svg>
