<?xml version="1.0" standalone="no"?><!DOCTYPE svg PUBLIC "-//W3C//DTD SVG 1.1//EN" "http://www.w3.org/Graphics/SVG/1.1/DTD/svg11.dtd"><svg t="1731904459377" class="icon" viewBox="0 0 1024 1024" version="1.1" xmlns="http://www.w3.org/2000/svg" p-id="18018" xmlns:xlink="http://www.w3.org/1999/xlink" width="200" height="200"><path d="M392.005818 123.997091c9.355636 0 18.106182 4.654545 23.272727 12.474182l71.68 107.52h345.041455a107.985455 107.985455 0 0 1 107.985455 107.985454v440.040728a107.985455 107.985455 0 0 1-107.985455 107.985454H192a107.985455 107.985455 0 0 1-107.985455-107.985454V231.982545a107.985455 107.985455 0 0 1 107.985455-107.985454h200.005818zM512 444.043636a28.020364 28.020364 0 0 0-28.020364 28.020364v91.973818H392.005818a28.020364 28.020364 0 1 0 0 55.994182h91.973818v92.020364a28.020364 28.020364 0 1 0 56.040728 0L539.927273 619.985455h92.020363a28.020364 28.020364 0 1 0 0-55.994182h-92.020363v-91.973818A28.020364 28.020364 0 0 0 512 443.997091z" fill="#333333" p-id="18019"></path></svg>