<?xml version="1.0" standalone="no"?><!DOCTYPE svg PUBLIC "-//W3C//DTD SVG 1.1//EN" "http://www.w3.org/Graphics/SVG/1.1/DTD/svg11.dtd"><svg t="1759905569281" class="icon" viewBox="0 0 1024 1024" version="1.1" xmlns="http://www.w3.org/2000/svg" p-id="12210" xmlns:xlink="http://www.w3.org/1999/xlink" width="128" height="128"><path d="M844.8 679.424c-136.192 0-256.512-68.608-322.56-182.272-66.048-114.176-64.512-252.928 3.072-370.688 4.608-7.68 4.096-17.408-0.512-25.088-4.608-7.68-12.8-12.8-22.016-12.8-83.968 0-156.672 17.408-216.064 51.712-98.304 56.32-168.96 148.48-198.144 258.56-29.696 110.08-14.336 224.768 42.496 323.584 75.776 131.584 217.6 213.504 369.664 213.504 74.24 0 147.968-19.968 212.992-57.344C773.12 844.288 824.32 790.016 866.816 716.8c4.608-7.68 4.608-17.408 0-25.088-5.12-7.68-13.312-12.288-22.016-12.288zM666.624 822.272C612.352 853.504 550.4 870.4 488.448 870.4c-127.488 0-246.272-68.608-309.76-178.688-47.616-82.432-60.416-179.2-35.84-271.36 24.576-92.16 83.968-169.472 166.4-217.088 39.424-23.04 87.04-36.864 141.824-40.96-53.76 118.272-48.128 250.88 15.872 362.496 64.512 111.616 176.64 182.272 305.664 195.072-30.72 45.056-66.048 79.36-105.984 102.4z" fill="#0B0015" p-id="12211"></path><path d="M692.736 476.16h13.312v13.312c0 18.432 14.848 33.792 33.28 33.792s33.792-14.848 33.792-33.792V476.16h13.312c18.432 0 33.792-14.848 33.792-33.28s-14.848-33.792-33.792-33.792H773.12v-13.312c0-18.432-14.848-33.792-33.792-33.792-18.432 0-33.28 14.848-33.28 33.792v13.312h-13.312c-18.432 0-33.792 14.848-33.792 33.792 0 17.92 14.848 33.28 33.792 33.28zM916.48 190.464h-13.312v-13.312c0-18.432-14.848-33.792-33.792-33.792-18.432 0-33.28 14.848-33.28 33.792v13.312h-13.312c-18.432 0-33.792 14.848-33.792 33.792 0 18.432 14.848 33.28 33.792 33.28h13.312v13.312c0 18.432 14.848 33.792 33.28 33.792s33.792-14.848 33.792-33.792v-13.312h13.312c18.432 0 33.792-14.848 33.792-33.28 0-18.944-14.848-33.792-33.792-33.792z" fill="#0B0015" p-id="12212"></path></svg>