<?xml version="1.0" standalone="no"?><!DOCTYPE svg PUBLIC "-//W3C//DTD SVG 1.1//EN" "http://www.w3.org/Graphics/SVG/1.1/DTD/svg11.dtd"><svg t="1731904326229" class="icon" viewBox="0 0 1024 1024" version="1.1" xmlns="http://www.w3.org/2000/svg" p-id="14182" xmlns:xlink="http://www.w3.org/1999/xlink" width="200" height="200"><path d="M0 0h1024v1024H0z" fill="#FFFFFF" p-id="14183"></path><path d="M864 944c44.112 0 80-35.888 80-80V432c0-44.112-35.888-80-80-80H540V160c0-44.112-35.888-80-80-80H160c-44.112 0-80 35.888-80 80v704c0 44.112 35.888 80 80 80h704m0 80H160c-88.366 0-160-71.634-160-160V160C0 71.634 71.634 0 160 0h300c88.366 0 160 71.634 160 160v112h244c88.366 0 160 71.636 160 160v432c0 88.366-71.634 160-160 160z" fill="#707070" p-id="14184"></path><path d="M552 488v312a12 12 0 0 1-12 12h-56a12 12 0 0 1-12-12V488a12 12 0 0 1 12-12h56a12 12 0 0 1 12 12z" fill="#707070" p-id="14185"></path><path d="M356 604h312a12 12 0 0 1 12 12v56a12 12 0 0 1-12 12H356a12 12 0 0 1-12-12v-56a12 12 0 0 1 12-12z" fill="#707070" p-id="14186"></path><path d="M22 272h834a12 12 0 0 1 12 12v56a12 12 0 0 1-12 12H22a12 12 0 0 1-12-12v-56a12 12 0 0 1 12-12z" fill="#707070" p-id="14187"></path></svg>