<svg width="400.000000" height="300.000000" viewBox="0 0 400 300" fill="none" xmlns="http://www.w3.org/2000/svg" xmlns:xlink="http://www.w3.org/1999/xlink">
	<desc>
			Created with Pixso.
	</desc>
	<defs>
		<clipPath id="clip14_1">
			<rect id="ic_not_select_light" width="400.000000" height="300.000000" fill="white" fill-opacity="0"/>
		</clipPath>
		<linearGradient x1="143.611969" y1="96.031021" x2="143.611969" y2="136.559036" id="paint_linear_14_8_0" gradientUnits="userSpaceOnUse">
			<stop stop-color="#666666"/>
			<stop offset="0.970740" stop-color="#6D6D6D"/>
		</linearGradient>
		<linearGradient x1="274.008972" y1="126.868042" x2="274.008972" y2="156.824036" id="paint_linear_14_15_0" gradientUnits="userSpaceOnUse">
			<stop stop-color="#585858"/>
			<stop offset="1.000000" stop-color="#616162"/>
		</linearGradient>
		<linearGradient x1="186.895035" y1="73.123962" x2="186.895035" y2="175.257996" id="paint_linear_14_21_0" gradientUnits="userSpaceOnUse">
			<stop stop-color="#707070"/>
			<stop offset="1.000000" stop-color="#38393B"/>
		</linearGradient>
		<linearGradient x1="167.665924" y1="172.651978" x2="167.665924" y2="149.934021" id="paint_linear_14_33_0" gradientUnits="userSpaceOnUse">
			<stop offset="0.035419" stop-color="#454545"/>
			<stop offset="1.000000" stop-color="#5D5D5D"/>
		</linearGradient>
		<linearGradient x1="148.969009" y1="146.791992" x2="148.969009" y2="236.474976" id="paint_linear_14_39_0" gradientUnits="userSpaceOnUse">
			<stop stop-color="#707070"/>
			<stop offset="1.000000" stop-color="#4B4B4B"/>
		</linearGradient>
		<linearGradient x1="136.792099" y1="203.481995" x2="136.792099" y2="226.403015" id="paint_linear_14_45_0" gradientUnits="userSpaceOnUse">
			<stop stop-color="#616162"/>
			<stop offset="1.000000" stop-color="#878787"/>
		</linearGradient>
		<linearGradient x1="231.800629" y1="176.004333" x2="231.800629" y2="210.169312" id="paint_linear_14_57_0" gradientUnits="userSpaceOnUse">
			<stop offset="0.125161" stop-color="#444444"/>
			<stop offset="1.000000" stop-color="#2E2E2E"/>
		</linearGradient>
		<linearGradient x1="267.054626" y1="197.004333" x2="267.054626" y2="218.464355" id="paint_linear_14_69_0" gradientUnits="userSpaceOnUse">
			<stop stop-color="#3D3D3D"/>
			<stop offset="1.000000" stop-color="#373737"/>
		</linearGradient>
	</defs>
	<g clip-path="url(#clip14_1)">
		<g opacity="0.302000">
			<mask id="mask14_5" mask-type="alpha" maskUnits="userSpaceOnUse" x="0.000000" y="0.000000" width="400.000000" height="300.000000">
				<rect id="rect" width="400.000000" height="300.000000" fill="#FFFFFF" fill-opacity="1.000000"/>
				<rect id="rect" width="400.000000" height="300.000000" fill="#FFFFFF" fill-opacity="1.000000"/>
			</mask>
			<g mask="url(#mask14_5)">
				<path id="path" d="M85.39 115.55C95.55 113.9 99.66 112.66 109.59 103.01C119.52 93.36 129.58 107.44 144.5 101.78C159.42 96.13 160.8 89.29 183.62 110.25C194.15 119.16 202.52 115.64 207.67 119.16C211.11 121.51 214.43 127.31 217.62 136.55L85.39 136.55C74.86 132.86 69.6 129.78 69.6 127.34C69.6 123.68 75.23 117.2 85.39 115.55Z" fill="url(#paint_linear_14_8_0)" fill-opacity="1.000000" fill-rule="nonzero"/>
			</g>
		</g>
		<g opacity="0.302000">
			<mask id="mask14_12" mask-type="alpha" maskUnits="userSpaceOnUse" x="0.000000" y="0.000000" width="400.000000" height="300.000000">
				<rect id="rect" width="400.000000" height="300.000000" fill="#FFFFFF" fill-opacity="1.000000"/>
				<rect id="rect" width="400.000000" height="300.000000" fill="#FFFFFF" fill-opacity="1.000000"/>
			</mask>
			<g mask="url(#mask14_12)">
				<path id="path" d="M228.96 141.3C236.82 140.08 240 139.16 247.68 132.02C255.36 124.89 263.15 135.3 274.7 131.12C286.25 126.94 287.29 121.88 304.97 137.38C313.1 143.96 319.59 141.36 323.57 143.96C326.24 145.7 328.8 149.99 331.27 156.82L228.96 156.82C220.81 154.09 216.74 151.82 216.74 150C216.74 147.3 221.09 142.52 228.96 141.3Z" fill="url(#paint_linear_14_15_0)" fill-opacity="1.000000" fill-rule="nonzero"/>
			</g>
		</g>
		<mask id="mask14_18" mask-type="alpha" maskUnits="userSpaceOnUse" x="0.000000" y="0.000000" width="400.000000" height="300.000000">
			<rect id="rect" width="400.000000" height="300.000000" fill="#FFFFFF" fill-opacity="1.000000"/>
			<rect id="rect" width="400.000000" height="300.000000" fill="#FFFFFF" fill-opacity="1.000000"/>
		</mask>
		<g mask="url(#mask14_18)">
			<path id="path" d="M143.39 73.12L220.56 73.12C221.08 73.12 221.34 73.37 221.34 73.9L221.34 163.93C221.34 169.67 216.69 174.32 210.95 174.32L144.17 174.32C143.64 174.32 143.39 174.06 143.39 173.54L143.39 73.12Z" fill="url(#paint_linear_14_21_0)" fill-opacity="1.000000" fill-rule="nonzero"/>
		</g>
		<mask id="mask14_24" mask-type="alpha" maskUnits="userSpaceOnUse" x="0.000000" y="0.000000" width="400.000000" height="300.000000">
			<rect id="rect" width="400.000000" height="300.000000" fill="#FFFFFF" fill-opacity="1.000000"/>
			<rect id="rect" width="400.000000" height="300.000000" fill="#FFFFFF" fill-opacity="1.000000"/>
		</mask>
		<g mask="url(#mask14_24)">
			<path id="path" d="M165.28 146.78L190.97 146.78L190.97 165.91L165.75 165.91L165.28 146.78Z" fill="#727272" fill-opacity="1.000000" fill-rule="evenodd"/>
		</g>
		<mask id="mask14_30" mask-type="alpha" maskUnits="userSpaceOnUse" x="0.000000" y="0.000000" width="400.000000" height="300.000000">
			<rect id="rect" width="400.000000" height="300.000000" fill="#FFFFFF" fill-opacity="1.000000"/>
			<rect id="rect" width="400.000000" height="300.000000" fill="#FFFFFF" fill-opacity="1.000000"/>
		</mask>
		<g mask="url(#mask14_30)">
			<path id="path" d="M200.05 164.97C200.05 166.17 200.27 167.32 200.72 168.43C201.16 169.54 201.79 170.53 202.61 171.4C203.43 172.27 204.39 172.95 205.47 173.45C206.56 173.96 207.7 174.24 208.89 174.31C208.72 174.32 208.55 174.32 208.38 174.32L136.82 174.32C131.08 174.32 126.43 169.67 126.43 163.93L126.43 155.72L181.4 155.72C181.45 154.52 181.71 153.38 182.2 152.28C182.69 151.2 183.37 150.24 184.22 149.39C185.08 148.57 186.07 147.92 187.17 147.48C188.28 147.03 189.43 146.8 190.63 146.78C191.83 146.78 193.07 147 194.18 147.46C195.3 147.91 196.29 148.55 197.16 149.38C198.03 150.21 198.72 151.17 199.22 152.27C199.71 153.37 199.99 154.52 200.04 155.72L200.05 164.97Z" fill="url(#paint_linear_14_33_0)" fill-opacity="1.000000" fill-rule="nonzero"/>
		</g>
		<mask id="mask14_36" mask-type="alpha" maskUnits="userSpaceOnUse" x="0.000000" y="0.000000" width="400.000000" height="300.000000">
			<rect id="rect" width="400.000000" height="300.000000" fill="#FFFFFF" fill-opacity="1.000000"/>
			<rect id="rect" width="400.000000" height="300.000000" fill="#FFFFFF" fill-opacity="1.000000"/>
		</mask>
		<g mask="url(#mask14_36)">
			<path id="path" d="M124.45 146.78L181.01 146.78C181.53 146.78 181.79 147.05 181.79 147.57L181.79 210.92C181.79 212.04 181.57 213.12 181.14 214.15C180.71 215.19 180.1 216.1 179.31 216.9C178.52 217.69 177.6 218.3 176.57 218.73C175.53 219.16 174.45 219.37 173.33 219.37L116.92 219.37C116.4 219.37 116.14 219.11 116.14 218.6L116.14 155.1C116.14 154 116.35 152.94 116.77 151.92C117.2 150.89 117.8 150 118.58 149.22C119.35 148.44 120.25 147.84 121.27 147.42C122.29 147 123.35 146.78 124.45 146.78Z" fill="url(#paint_linear_14_39_0)" fill-opacity="1.000000" fill-rule="nonzero"/>
		</g>
		<mask id="mask14_42" mask-type="alpha" maskUnits="userSpaceOnUse" x="0.000000" y="0.000000" width="400.000000" height="300.000000">
			<rect id="rect" width="400.000000" height="300.000000" fill="#FFFFFF" fill-opacity="1.000000"/>
			<rect id="rect" width="400.000000" height="300.000000" fill="#FFFFFF" fill-opacity="1.000000"/>
		</mask>
		<g mask="url(#mask14_42)">
			<path id="path" d="M164.38 203.48L164.38 211.49C164.38 212.54 164.58 213.54 164.98 214.51C165.38 215.47 165.94 216.33 166.68 217.07C167.42 217.81 168.28 218.37 169.24 218.77C170.21 219.17 171.21 219.37 172.26 219.37L116.16 219.37C107.96 219.37 101.32 212.73 101.32 204.53L101.32 203.48L164.38 203.48Z" fill="url(#paint_linear_14_45_0)" fill-opacity="1.000000" fill-rule="nonzero"/>
		</g>
		<mask id="mask14_54" mask-type="alpha" maskUnits="userSpaceOnUse" x="0.000000" y="0.000000" width="400.000000" height="300.000000">
			<rect id="rect" width="400.000000" height="300.000000" fill="#FFFFFF" fill-opacity="1.000000"/>
			<rect id="rect" width="400.000000" height="300.000000" fill="#FFFFFF" fill-opacity="1.000000"/>
		</mask>
		<g mask="url(#mask14_54)">
			<path id="path" d="M227.8 180.59C224.6 187.24 213.58 207.62 229.02 209.9C244.47 212.18 243.78 198.62 241.07 193.76C238.36 188.91 235.3 186.19 235.3 180.59C235.3 174.99 231 173.95 227.8 180.59Z" fill="url(#paint_linear_14_57_0)" fill-opacity="1.000000" fill-rule="evenodd"/>
		</g>
		<mask id="mask14_66" mask-type="alpha" maskUnits="userSpaceOnUse" x="0.000000" y="0.000000" width="400.000000" height="300.000000">
			<rect id="rect" width="400.000000" height="300.000000" fill="#FFFFFF" fill-opacity="1.000000"/>
			<rect id="rect" width="400.000000" height="300.000000" fill="#FFFFFF" fill-opacity="1.000000"/>
		</mask>
		<g mask="url(#mask14_66)">
			<path id="path" d="M264.44 199.88C262.35 204.06 255.15 216.86 265.24 218.29C275.32 219.73 274.87 211.21 273.1 208.16C271.33 205.11 269.34 203.4 269.34 199.88C269.34 196.37 266.53 195.71 264.44 199.88Z" fill="url(#paint_linear_14_69_0)" fill-opacity="1.000000" fill-rule="evenodd"/>
		</g>
		<mask id="mask14_72" mask-type="alpha" maskUnits="userSpaceOnUse" x="0.000000" y="0.000000" width="400.000000" height="300.000000">
			<rect id="rect" width="400.000000" height="300.000000" fill="#FFFFFF" fill-opacity="1.000000"/>
			<rect id="rect" width="400.000000" height="300.000000" fill="#FFFFFF" fill-opacity="1.000000"/>
		</mask>
		<g mask="url(#mask14_72)">
			<path id="path" d="M168.28 101.31L119.82 101.31C119.23 101.31 118.94 101.61 118.94 102.19L118.94 106.6C118.94 107.09 119.33 107.48 119.82 107.48L168.28 107.48C168.86 107.48 169.16 107.19 169.16 106.6L169.16 102.19C169.16 101.61 168.86 101.31 168.28 101.31Z" fill="#7B7B7B" fill-opacity="1.000000" fill-rule="nonzero"/>
		</g>
		<mask id="mask14_78" mask-type="alpha" maskUnits="userSpaceOnUse" x="0.000000" y="0.000000" width="400.000000" height="300.000000">
			<rect id="rect" width="400.000000" height="300.000000" fill="#FFFFFF" fill-opacity="1.000000"/>
			<rect id="rect" width="400.000000" height="300.000000" fill="#FFFFFF" fill-opacity="1.000000"/>
		</mask>
		<g mask="url(#mask14_78)">
			<path id="path" d="M133.92 111.89L168.72 111.89C169.31 111.88 169.6 112.18 169.6 112.77L169.6 117.17C169.6 117.76 169.31 118.05 168.72 118.05L133.92 118.05C133.33 118.05 133.03 117.76 133.03 117.17L133.03 112.77C133.03 112.18 133.33 111.88 133.92 111.89Z" fill="#7B7B7B" fill-opacity="1.000000" fill-rule="evenodd"/>
		</g>
		<mask id="mask14_84" mask-type="alpha" maskUnits="userSpaceOnUse" x="0.000000" y="0.000000" width="400.000000" height="300.000000">
			<rect id="rect" width="400.000000" height="300.000000" fill="#FFFFFF" fill-opacity="1.000000"/>
			<rect id="rect" width="400.000000" height="300.000000" fill="#FFFFFF" fill-opacity="1.000000"/>
		</mask>
		<g mask="url(#mask14_84)">
			<path id="path" d="M137.44 161.22L125.11 161.22C124.52 161.22 124.22 161.52 124.22 162.11L124.22 174.44C124.22 175.03 124.52 175.32 125.11 175.32L137.44 175.32C138.03 175.32 138.32 175.03 138.32 174.44L138.32 162.11C138.32 161.52 138.03 161.23 137.44 161.22Z" fill="#7B7B7B" fill-opacity="1.000000" fill-rule="nonzero"/>
		</g>
		<mask id="mask14_90" mask-type="alpha" maskUnits="userSpaceOnUse" x="0.000000" y="0.000000" width="400.000000" height="300.000000">
			<rect id="rect" width="400.000000" height="300.000000" fill="#FFFFFF" fill-opacity="1.000000"/>
			<rect id="rect" width="400.000000" height="300.000000" fill="#FFFFFF" fill-opacity="1.000000"/>
		</mask>
		<g mask="url(#mask14_90)">
			<path id="path" d="M146.25 161.22L174.44 161.22C174.93 161.22 175.33 161.62 175.33 162.11L175.33 164.75C175.33 165.34 175.03 165.63 174.44 165.63L146.25 165.63C145.66 165.63 145.37 165.34 145.37 164.75L145.37 162.11C145.37 161.62 145.75 161.22 146.25 161.22Z" fill="#7B7B7B" fill-opacity="1.000000" fill-rule="nonzero"/>
		</g>
		<mask id="mask14_96" mask-type="alpha" maskUnits="userSpaceOnUse" x="0.000000" y="0.000000" width="400.000000" height="300.000000">
			<rect id="rect" width="400.000000" height="300.000000" fill="#FFFFFF" fill-opacity="1.000000"/>
			<rect id="rect" width="400.000000" height="300.000000" fill="#FFFFFF" fill-opacity="1.000000"/>
		</mask>
		<g mask="url(#mask14_96)">
			<path id="path" d="M146.25 170.92L174.44 170.92C175.03 170.92 175.33 171.21 175.33 171.8L175.33 174.44C175.33 175.03 175.03 175.32 174.44 175.32L146.25 175.32C145.66 175.32 145.37 175.03 145.37 174.44L145.37 171.8C145.37 171.21 145.66 170.92 146.25 170.92Z" fill="#7B7B7B" fill-opacity="1.000000" fill-rule="nonzero"/>
		</g>
		<mask id="mask14_102" mask-type="alpha" maskUnits="userSpaceOnUse" x="0.000000" y="0.000000" width="400.000000" height="300.000000">
			<rect id="rect" width="400.000000" height="300.000000" fill="#FFFFFF" fill-opacity="1.000000"/>
			<rect id="rect" width="400.000000" height="300.000000" fill="#FFFFFF" fill-opacity="1.000000"/>
		</mask>
		<g mask="url(#mask14_102)">
			<path id="path" d="M125.11 180.61L174.44 180.61C174.93 180.61 175.33 181 175.33 181.49L175.33 184.13C175.33 184.72 175.03 185.01 174.44 185.01L125.11 185.01C124.52 185.01 124.22 184.72 124.22 184.13L124.22 181.49C124.22 181 124.62 180.61 125.11 180.61Z" fill="#7B7B7B" fill-opacity="1.000000" fill-rule="nonzero"/>
		</g>
	</g>
</svg>
