<svg xmlns="http://www.w3.org/2000/svg" xmlns:xlink="http://www.w3.org/1999/xlink" width="400" height="300" viewBox="0 0 400 300" fill="none">
<g opacity="0.302">
<g  mask="url(#mask-16_319)">
<path d="M85.39 115.55C95.56 113.9 99.67 112.66 109.59 103.01C119.52 93.36 129.58 107.44 144.51 101.78C159.43 96.13 160.8 89.29 183.62 110.25C194.15 119.16 202.52 115.64 207.67 119.16C211.11 121.51 214.43 127.31 217.62 136.55L85.39 136.55C74.86 132.86 69.6 129.79 69.6 127.34C69.6 123.68 75.23 117.2 85.39 115.55Z"   fill="url(#linear_fill_16_323)" >
</path>
</g>
</g>
<g opacity="0.302">
<g  mask="url(#mask-16_319)">
<path d="M228.96 141.3C236.82 140.08 240 139.16 247.68 132.02C255.36 124.89 263.15 135.3 274.7 131.12C286.25 126.94 287.3 121.88 304.97 137.38C313.11 143.96 319.59 141.36 323.58 143.96C326.24 145.7 328.8 149.99 331.27 156.82L228.96 156.82C220.81 154.09 216.74 151.82 216.74 150.01C216.74 147.3 221.09 142.52 228.96 141.3Z"   fill="url(#linear_fill_16_325)" >
</path>
</g>
</g>
<g mask="url(#mask-16_319)">
<path d="M143.39 73.12L220.56 73.12C221.08 73.12 221.34 73.38 221.34 73.9L221.34 163.93C221.34 169.67 216.69 174.32 210.95 174.32L144.17 174.32C143.65 174.32 143.39 174.06 143.39 173.54L143.39 73.12Z"   fill="url(#linear_fill_16_326)" >
</path>
</g>
<g mask="url(#mask-16_319)">
<path d="M165.28 146.79L190.97 146.79L190.97 165.91L165.75 165.91L165.28 146.79Z" fill-rule="evenodd"  fill="#ABCAFF" >
</path>
</g>
<g mask="url(#mask-16_319)">
<path d="M200.05 164.97C200.05 166.17 200.27 167.32 200.72 168.43C201.16 169.54 201.79 170.53 202.61 171.4C203.43 172.27 204.39 172.95 205.47 173.45C206.56 173.96 207.7 174.24 208.89 174.31C208.72 174.32 208.55 174.32 208.38 174.32L136.82 174.32C131.08 174.32 126.43 169.67 126.43 163.93L126.43 155.72L181.4 155.72C181.45 154.52 181.71 153.38 182.2 152.29C182.69 151.2 183.37 150.24 184.22 149.4C185.08 148.57 186.07 147.93 187.17 147.48C188.28 147.03 189.43 146.8 190.63 146.79C191.83 146.79 193.07 147.01 194.18 147.46C195.3 147.91 196.29 148.55 197.16 149.38C198.03 150.21 198.72 151.17 199.22 152.27C199.71 153.37 199.99 154.52 200.04 155.72L200.05 164.97Z"   fill="url(#linear_fill_16_328)" >
</path>
</g>
<g mask="url(#mask-16_319)">
<path d="M124.45 146.79L181.01 146.79C181.53 146.79 181.79 147.05 181.79 147.57L181.79 210.92C181.79 212.04 181.57 213.12 181.14 214.15C180.71 215.19 180.1 216.1 179.31 216.9C178.52 217.69 177.6 218.3 176.57 218.73C175.53 219.16 174.45 219.37 173.33 219.37L116.92 219.37C116.4 219.37 116.14 219.11 116.14 218.6L116.14 155.1C116.14 154 116.35 152.94 116.77 151.92C117.2 150.9 117.8 150 118.58 149.22C119.35 148.44 120.25 147.84 121.27 147.42C122.29 147 123.35 146.79 124.45 146.79Z"   fill="url(#linear_fill_16_329)" >
</path>
</g>
<g mask="url(#mask-16_319)">
<path d="M164.38 203.48L164.38 211.49C164.38 212.54 164.58 213.54 164.98 214.51C165.38 215.47 165.94 216.33 166.68 217.07C167.42 217.81 168.28 218.37 169.24 218.77C170.21 219.17 171.21 219.37 172.26 219.37L116.16 219.37C107.96 219.37 101.32 212.73 101.32 204.53L101.32 203.48L164.38 203.48Z"   fill="url(#linear_fill_16_330)" >
</path>
</g>
<g mask="url(#mask-16_319)">
<path d="M271.13 201.14C272.08 201.14 272.85 201.91 272.85 202.87L272.85 217.21C272.85 217.68 272.68 218.09 272.34 218.42C272.01 218.76 271.6 218.93 271.13 218.93C270.65 218.93 270.24 218.76 269.91 218.42C269.57 218.09 269.4 217.68 269.4 217.21L269.4 202.87C269.4 201.91 270.18 201.14 271.13 201.14Z" fill-rule="evenodd"  fill="#F0F0F3" fill-opacity="0.9">
</path>
</g>
<g mask="url(#mask-16_319)">
<path d="M227.805 180.598C224.605 187.248 213.585 207.628 229.025 209.908C244.475 212.188 243.785 198.628 241.075 193.768C238.365 188.918 235.305 186.198 235.305 180.598C235.305 174.998 231.005 173.958 227.805 180.598Z" fill-rule="evenodd"  fill="url(#linear_fill_16_332)" >
</path>
</g>
<g mask="url(#mask-16_319)">
<path d="M299 194.55L299.17 194.55C299.64 194.55 300.02 194.93 300.02 195.4L300.02 204.42C300.02 204.99 299.74 205.28 299.17 205.28L299 205.28C298.43 205.28 298.15 204.99 298.15 204.42L298.15 195.4C298.15 194.93 298.53 194.55 299 194.55Z" fill-rule="evenodd"  fill="#F0F0F3" fill-opacity="0.9">
</path>
</g>
<g mask="url(#mask-16_319)">
<path d="M264.445 199.885C262.355 204.065 255.155 216.865 265.245 218.295C275.325 219.735 274.875 211.215 273.105 208.165C271.335 205.115 269.345 203.405 269.345 199.885C269.345 196.375 266.535 195.715 264.445 199.885Z" fill-rule="evenodd"  fill="url(#linear_fill_16_334)" >
</path>
</g>
<g mask="url(#mask-16_319)">
<path d="M168.28 101.31L119.82 101.31C119.23 101.31 118.94 101.61 118.94 102.19L118.94 106.6C118.94 107.09 119.33 107.48 119.82 107.48L168.28 107.48C168.86 107.48 169.16 107.19 169.16 106.6L169.16 102.19C169.16 101.61 168.86 101.31 168.28 101.31Z"   fill="#BFD7FF" >
</path>
</g>
<g mask="url(#mask-16_319)">
<path d="M133.92 111.89L168.72 111.89C169.31 111.88 169.6 112.18 169.6 112.77L169.6 117.17C169.6 117.76 169.31 118.05 168.72 118.05L133.92 118.05C133.33 118.05 133.03 117.76 133.03 117.17L133.03 112.77C133.03 112.18 133.33 111.88 133.92 111.89Z" fill-rule="evenodd"  fill="#BFD7FF" >
</path>
</g>
<g mask="url(#mask-16_319)">
<path d="M137.44 161.22L125.11 161.22C124.52 161.22 124.22 161.52 124.22 162.11L124.22 174.44C124.22 175.03 124.52 175.32 125.11 175.32L137.44 175.32C138.03 175.32 138.32 175.03 138.32 174.44L138.32 162.11C138.32 161.52 138.03 161.23 137.44 161.22Z"   fill="#ECF1FC" >
</path>
</g>
<g mask="url(#mask-16_319)">
<path d="M146.25 161.22L174.44 161.22C174.93 161.22 175.33 161.62 175.33 162.11L175.33 164.75C175.33 165.34 175.03 165.63 174.44 165.63L146.25 165.63C145.66 165.63 145.37 165.34 145.37 164.75L145.37 162.11C145.37 161.62 145.76 161.22 146.25 161.22Z"   fill="#ECF1FC" >
</path>
</g>
<g mask="url(#mask-16_319)">
<path d="M146.25 170.92L174.44 170.92C175.03 170.92 175.33 171.21 175.33 171.8L175.33 174.44C175.33 175.03 175.03 175.32 174.44 175.32L146.25 175.32C145.66 175.32 145.37 175.03 145.37 174.44L145.37 171.8C145.37 171.21 145.66 170.92 146.25 170.92Z"   fill="#ECF1FC" >
</path>
</g>
<g mask="url(#mask-16_319)">
<path d="M125.11 180.61L174.44 180.61C174.93 180.61 175.33 181 175.33 181.49L175.33 184.13C175.33 184.72 175.03 185.01 174.44 185.01L125.11 185.01C124.52 185.01 124.22 184.72 124.22 184.13L124.22 181.49C124.22 181 124.62 180.61 125.11 180.61Z"   fill="#ECF1FC" >
</path>
</g>
<defs>
<mask id="mask-16_319" style="mask-type:alpha" maskUnits="userSpaceOnUse">
<rect x="0" y="0" width="400" height="300"   fill="#FFFFFF" >
</rect>
<rect x="0" y="0" width="400" height="300"   fill="#FFFFFF" >
</rect>
</mask>
<linearGradient id="linear_fill_16_323" x1="143.61200714111328" y1="96.031005859375" x2="143.61200714111328" y2="136.55902099609375" gradientUnits="userSpaceOnUse">
<stop offset="0" stop-color="#DCDCE4"  />
<stop offset="1" stop-color="#A9C8FC"  />
</linearGradient>
<linearGradient id="linear_fill_16_325" x1="274.0090026855469" y1="126.8680419921875" x2="274.0090026855469" y2="156.82403564453125" gradientUnits="userSpaceOnUse">
<stop offset="0" stop-color="#DCDCE4"  />
<stop offset="1" stop-color="#A8C6FA"  />
</linearGradient>
<linearGradient id="linear_fill_16_326" x1="186.89500427246094" y1="73.12396240234375" x2="186.89500427246094" y2="175.25799560546875" gradientUnits="userSpaceOnUse">
<stop offset="0" stop-color="#ABCAFF"  />
<stop offset="1" stop-color="#A6C3F5"  />
</linearGradient>
<linearGradient id="linear_fill_16_328" x1="167.66600036621094" y1="172.6519775390625" x2="167.66600036621094" y2="149.93402099609375" gradientUnits="userSpaceOnUse">
<stop offset="0" stop-color="#ABCAFF"  />
<stop offset="1" stop-color="#CBDAF5"  />
</linearGradient>
<linearGradient id="linear_fill_16_329" x1="148.968994140625" y1="146.7919921875" x2="148.968994140625" y2="236.4749755859375" gradientUnits="userSpaceOnUse">
<stop offset="0" stop-color="#ABCAFF"  />
<stop offset="1" stop-color="#ABCAFF"  />
</linearGradient>
<linearGradient id="linear_fill_16_330" x1="136.7920150756836" y1="203.48199462890625" x2="136.7920150756836" y2="226.40301513671875" gradientUnits="userSpaceOnUse">
<stop offset="0" stop-color="#BAD5FF"  />
<stop offset="1" stop-color="#A6DDFF"  />
</linearGradient>
<linearGradient id="linear_fill_16_332" x1="231.80056762695312" y1="176.00433349609375" x2="231.80056762695312" y2="210.1693115234375" gradientUnits="userSpaceOnUse">
<stop offset="0" stop-color="#D9E7FF"  />
<stop offset="1" stop-color="#A9C7FB"  />
</linearGradient>
<linearGradient id="linear_fill_16_334" x1="267.05462646484375" y1="197.00433349609375" x2="267.05462646484375" y2="218.46435546875" gradientUnits="userSpaceOnUse">
<stop offset="0" stop-color="#CAD9F5"  />
<stop offset="1" stop-color="#A9C7FB"  />
</linearGradient>
</defs>
</svg>
