<?xml version="1.0" standalone="no"?><!DOCTYPE svg PUBLIC "-//W3C//DTD SVG 1.1//EN" "http://www.w3.org/Graphics/SVG/1.1/DTD/svg11.dtd"><svg t="1759821110824" class="icon" viewBox="0 0 1024 1024" version="1.1" xmlns="http://www.w3.org/2000/svg" p-id="4358" xmlns:xlink="http://www.w3.org/1999/xlink" width="128" height="128"><path d="M780.8 128c8.704 0 17.28 0.384 25.984 1.216 27.072 2.496 47.808 25.28 47.744 52.48v591.808a52.64 52.64 0 0 1-50.816 52.608c-51.072 1.92-94.4 8.704-129.856 20.544-46.464 15.552-91.712 43.776-135.488 84.48V269.44a276.48 276.48 0 0 1 135.552-119.68A278.08 278.08 0 0 1 780.864 128H780.8z m126.528 657.92V245.952A52.992 52.992 0 0 1 960 298.624v535.808c0 41.856-26.24 109.568-105.408 102.784-55.744-4.736-59.392-6.72-106.432-5.952-46.08 0.832-110.592-0.768-168.32 12.8 32.32-27.072 79.616-46.08 110.912-52.736 31.168-6.72 70.208-9.6 116.096-11.328 58.24-2.112 100.48-45.888 100.48-94.08zM243.2 128c36.416 0 72.064 7.296 106.944 21.76 57.92 24.128 103.168 64 135.488 119.68V931.2c-43.776-40.832-88.96-69.056-135.488-84.48-35.392-11.776-78.72-18.688-129.856-20.48A52.544 52.544 0 0 1 169.6 773.568v-592c0-27.136 20.672-49.792 47.808-52.352 8.512-0.896 17.152-1.28 25.792-1.28V128zM116.8 785.92c0 43.52 32.128 91.52 101.568 94.08 45.952 1.664 74.624 6.72 115.072 11.328 40.448 4.48 79.36 25.792 111.744 52.672-57.728-13.504-117.44-12.736-169.216-12.736-40.768 0-47.872 5.952-106.496 5.952-69.12 0-105.472-62.528-105.472-102.784V298.496c0-29.12 23.616-52.672 52.672-52.672v540.16h0.128v-0.064z" p-id="4359"></path></svg>