<?xml version="1.0" standalone="no"?><!DOCTYPE svg PUBLIC "-//W3C//DTD SVG 1.1//EN" "http://www.w3.org/Graphics/SVG/1.1/DTD/svg11.dtd"><svg t="1731904381000" class="icon" viewBox="0 0 1024 1024" version="1.1" xmlns="http://www.w3.org/2000/svg" p-id="16061" xmlns:xlink="http://www.w3.org/1999/xlink" width="200" height="200"><path d="M128 192v640h768v-512h-410.026667l-128-128H128zM96 128H384l128 128h416a31.146667 31.146667 0 0 1 23.04 8.96c5.973333 6.016 8.96 13.696 8.96 23.04v576a31.146667 31.146667 0 0 1-8.96 23.04 31.146667 31.146667 0 0 1-23.04 8.96H96a31.146667 31.146667 0 0 1-23.04-8.96 31.146667 31.146667 0 0 1-8.96-23.04V160a31.146667 31.146667 0 0 1 8.96-23.04 31.146667 31.146667 0 0 1 23.04-8.96z m384 416v-128h64v128h128v64h-128v128h-64v-128h-128v-64h128z" fill="#000000" fill-opacity=".65" p-id="16062"></path></svg>