<?xml version="1.0" standalone="no"?><!DOCTYPE svg PUBLIC "-//W3C//DTD SVG 1.1//EN" "http://www.w3.org/Graphics/SVG/1.1/DTD/svg11.dtd"><svg t="1759997624434" class="icon" viewBox="0 0 1024 1024" version="1.1" xmlns="http://www.w3.org/2000/svg" p-id="7158" xmlns:xlink="http://www.w3.org/1999/xlink" width="128" height="128"><path d="M153.2721875 482.46125l335.625-262.5C513.515 200.7078125 549.5 218.2475 549.5 249.5v525c0 31.2525-35.985 48.7921875-60.6028125 29.53875l-335.625-262.5c-19.19625-15.0140625-19.19625-44.0625 0-59.0775zM237.2440625 512L474.5 697.563125V326.4359375L237.2440625 512z" fill="#000000" p-id="7159"></path><path d="M488.8971875 482.46125l335.625-262.5C849.14 200.7078125 885.125 218.2475 885.125 249.5v525c0 31.2525-35.985 48.7921875-60.6028125 29.53875l-335.625-262.5c-19.19625-15.0140625-19.19625-44.0625 0-59.0775zM572.8690625 512L810.125 697.563125V326.4359375L572.8690625 512z" fill="#000000" p-id="7160"></path></svg>