<?xml version="1.0" standalone="no"?><!DOCTYPE svg PUBLIC "-//W3C//DTD SVG 1.1//EN" "http://www.w3.org/Graphics/SVG/1.1/DTD/svg11.dtd"><svg t="1743745981831" class="icon" viewBox="0 0 1024 1024" version="1.1" xmlns="http://www.w3.org/2000/svg" p-id="26701" xmlns:xlink="http://www.w3.org/1999/xlink" width="200" height="200"><path d="M862.623828 440.261473H846.656678V313.944842c0-36.934687-14.148826-71.482826-39.946285-97.280284a136.715166 136.715166 0 0 0-97.734864-40.28722h-125.63476v-16.364908A159.78514 159.78514 0 0 0 423.726097 0.397758a159.841962 159.841962 0 0 0-159.728317 159.614672v16.364908h-125.577936c-37.161978 0-71.880584 14.319294-97.734865 40.28722a136.60152 136.60152 0 0 0-40.05993 97.280284v217.119139H116.486322c38.184784 0 68.187115 30.229621 68.187115 68.812163 0 38.639365-30.002331 68.812164-68.187115 68.812164H0.625049v217.119139c0 36.934687 14.262472 71.482826 40.05993 97.280284a136.828811 136.828811 0 0 0 97.734865 40.28722h217.062316v-115.57716c0-38.639365 30.002331-68.868986 68.243937-68.868986s68.187115 30.229621 68.187115 68.868986v115.57716h217.062317c37.161978 0 71.823761-14.262472 97.734864-40.28722a136.487875 136.487875 0 0 0 39.946285-97.280284v-128.021309h15.96715c88.018201 0 159.671494-71.596471 159.671494-159.614671 0-87.109039-71.653293-157.909994-159.671494-157.909994z m-115.747628 218.25559v227.290384a37.730204 37.730204 0 0 1-37.900671 38.355252h-117.225016v-16.364908a167.058432 167.058432 0 0 0-168.024416-168.024415 167.342545 167.342545 0 0 0-168.138061 168.024415v16.364908H138.419844a37.673381 37.673381 0 0 1-37.843849-38.355252v-117.906887h15.910327c45.287609 0 87.620443-17.444537 119.213806-49.151545 31.536541-31.536541 48.867432-73.812552 48.867432-118.872871 0-45.117141-17.330892-87.33633-48.867432-118.87287A167.058432 167.058432 0 0 0 116.486322 431.851729h-15.910327V313.944842c0-21.535764 16.592198-38.355252 37.843849-38.355252h225.47206V160.01243a60.231952 60.231952 0 0 1 59.834193-60.402419c32.957106 0 59.720548 27.104378 59.720549 60.402419V275.58959h225.528883c21.251651 0 37.900671 16.819488 37.900671 38.355252v225.585706h115.747628c32.957106 0 59.720548 26.308862 59.720548 58.640919 0 33.298041-26.763443 60.345597-59.720548 60.345596h-115.747628z" fill="#666666" p-id="26702"></path></svg>