<?xml version="1.0" standalone="no"?><!DOCTYPE svg PUBLIC "-//W3C//DTD SVG 1.1//EN" "http://www.w3.org/Graphics/SVG/1.1/DTD/svg11.dtd"><svg t="1746545200411" class="icon" viewBox="0 0 1067 1024" version="1.1" xmlns="http://www.w3.org/2000/svg" p-id="14790" xmlns:xlink="http://www.w3.org/1999/xlink" width="208.3984375" height="200"><path d="M371.560809 1023.976955H207.618895a204.7776 204.7776 0 1 1 0-409.509111h655.214577a204.7776 204.7776 0 0 1 0 409.509111z m491.410933-81.901822a122.875778 122.875778 0 0 0 0-245.705466h-327.745559a204.91587 204.91587 0 0 1 0 245.705466zM260.437965 561.694864a41.112226 41.112226 0 0 1 0-58.211593L751.848898 12.072338a41.158316 41.158316 0 0 1 58.211593 58.211593L318.649559 561.694864a41.480945 41.480945 0 0 1-58.211594 0z m315.716085-152.0968a122.875778 122.875778 0 1 1 122.645328 122.967958 122.921868 122.921868 0 0 1-122.691418-122.783598z m81.901822 0A40.973956 40.973956 0 1 0 698.799378 368.808468a40.927866 40.927866 0 0 0-40.743506 40.973956zM248.546761 164.076958A122.875778 122.875778 0 1 1 371.560809 286.860556a122.921868 122.921868 0 0 1-123.014048-122.783598z m81.901822 0A40.927866 40.927866 0 1 0 371.560809 123.056912a40.881776 40.881776 0 0 0-41.112226 41.020046z" fill="#CC0011" p-id="14791"></path></svg>