<?xml version="1.0" standalone="no"?><!DOCTYPE svg PUBLIC "-//W3C//DTD SVG 1.1//EN" "http://www.w3.org/Graphics/SVG/1.1/DTD/svg11.dtd"><svg t="1747988877418" class="icon" viewBox="0 0 1024 1024" version="1.1" xmlns="http://www.w3.org/2000/svg" p-id="9330" xmlns:xlink="http://www.w3.org/1999/xlink" width="200" height="200"><path d="M512 0C348.408493 0 215.878665 132.529828 215.878665 296.121335s132.529828 296.121335 296.121335 296.121334 296.121335-132.529828 296.121335-296.121334S675.591507 0 512 0z m30.026289 121.140546c-3.106168 11.389282-14.49545 18.637007-26.920121 16.566229-10.353893-2.070779-20.707786-4.141557-32.097068-4.141558-76.618807 0-137.706775 62.123357-137.706774 137.706775 0 9.318504 1.035389 19.672396 3.106167 28.9909 2.070779 11.389282-5.176946 23.813953-16.566228 25.884732h-4.141557c-10.353893 0-19.672396-7.247725-21.743175-17.601618-2.070779-12.424671-4.141557-24.849343-4.141557-37.274014 0-100.43276 81.795753-182.228514 182.228513-182.228514 14.49545 0 27.955511 2.070779 42.450961 5.176947 11.389282 3.106168 18.637007 15.530839 15.530839 26.920121zM557.557128 623.304348c-16.566229 3.106168-32.097068 4.141557-49.698685 4.141557s-33.132457-1.035389-49.698686-4.141557c-13.460061 3.106168-23.813953 15.530839-23.813953 30.026289v339.607685c0 16.566229 13.460061 31.061678 31.061678 31.061678h84.901921c17.601618 0 31.061678-14.49545 31.061679-31.061678V653.330637c0-14.49545-10.353893-25.884732-23.813954-30.026289z" p-id="9331"></path></svg>