<?xml version="1.0" standalone="no"?><!DOCTYPE svg PUBLIC "-//W3C//DTD SVG 1.1//EN" "http://www.w3.org/Graphics/SVG/1.1/DTD/svg11.dtd"><svg t="1759997402021" class="icon" viewBox="0 0 1024 1024" version="1.1" xmlns="http://www.w3.org/2000/svg" p-id="6144" xmlns:xlink="http://www.w3.org/1999/xlink" width="128" height="128"><path d="M870.7278125 482.46125l-335.625-262.5C510.485 200.7078125 474.5 218.2475 474.5 249.5v525c0 31.2525 35.985 48.7921875 60.6028125 29.53875l335.625-262.5c19.19625-15.0140625 19.19625-44.0625 0-59.0775zM786.7559375 512L549.5 697.563125V326.4359375L786.7559375 512z" fill="#000000" p-id="6145"></path><path d="M535.1028125 482.46125l-335.625-262.5C174.86 200.7078125 138.875 218.2475 138.875 249.5v525c0 31.2525 35.985 48.7921875 60.6028125 29.53875l335.625-262.5c19.19625-15.0140625 19.19625-44.0625 0-59.0775zM451.1309375 512L213.875 697.563125V326.4359375L451.1309375 512z" fill="#000000" p-id="6146"></path></svg>