<?xml version="1.0" standalone="no"?><!DOCTYPE svg PUBLIC "-//W3C//DTD SVG 1.1//EN" "http://www.w3.org/Graphics/SVG/1.1/DTD/svg11.dtd"><svg t="1748509742997" class="icon" viewBox="0 0 1024 1024" version="1.1" xmlns="http://www.w3.org/2000/svg" p-id="8558" xmlns:xlink="http://www.w3.org/1999/xlink" width="200" height="200"><path d="M673.2288 603.8016a207.1552 207.1552 0 1 0-43.2128 43.6224l85.4528 86.6816a30.72 30.72 0 0 0 43.7248-43.1104zM360.4992 481.28a145.7152 145.7152 0 1 1 145.7152 145.7152A145.8688 145.8688 0 0 1 360.4992 481.28z" fill="#444444" p-id="8559"></path><path d="M731.392 96.512H292.5056a191.6416 191.6416 0 0 0-191.4368 191.4368V727.04a191.6416 191.6416 0 0 0 191.4368 191.4368h438.8864a191.6928 191.6928 0 0 0 191.488-191.4368V287.9488a191.6928 191.6928 0 0 0-191.488-191.4368zM861.44 727.04a130.1504 130.1504 0 0 1-130.048 129.9968H292.5056A130.1504 130.1504 0 0 1 162.5088 727.04V287.9488a130.1504 130.1504 0 0 1 129.9968-129.9968h438.8864a130.1504 130.1504 0 0 1 130.048 129.9968z" fill="#444444" p-id="8560"></path></svg>