<?xml version="1.0" standalone="no"?><!DOCTYPE svg PUBLIC "-//W3C//DTD SVG 1.1//EN" "http://www.w3.org/Graphics/SVG/1.1/DTD/svg11.dtd"><svg t="1732462454163" class="icon" viewBox="0 0 1024 1024" version="1.1" xmlns="http://www.w3.org/2000/svg" p-id="4059" xmlns:xlink="http://www.w3.org/1999/xlink" width="200" height="200"><path d="M881.539 79.857H780.465V34.564c0-18.501-15.149-33.648-33.655-33.648-18.508 0-33.65 15.14-33.65 33.648v45.293H342.984V34.564c0-18.501-15.142-33.648-33.65-33.648s-33.648 15.14-33.648 33.648v45.293H140.958c-55.385 0-100.835 45.149-100.835 100.836v740.579c0 55.394 45.15 100.835 100.835 100.835h740.581c55.385 0 100.836-45.143 100.836-100.835v-740.58c0-55.387-45.151-100.835-100.836-100.835z m33.531 841.414c0 18.393-15.18 33.533-33.531 33.533H140.958c-18.384 0-33.526-15.182-33.526-33.533V180.692c0-18.386 15.175-33.526 33.526-33.526h134.729v9.523c0 18.506 15.14 33.648 33.648 33.648 18.508 0 33.65-15.142 33.65-33.648v-9.523h370.169v9.523c0 18.506 15.149 33.648 33.649 33.648 18.508 0 33.655-15.142 33.655-33.648v-9.523h101.081c18.384 0 33.524 15.182 33.524 33.526v740.579h0.007z m0 0" fill="#2C2C2C" p-id="4060"></path><path d="M780.465 315.421H242.039c-18.508 0-33.655 15.14-33.655 33.648 0 18.508 15.147 33.655 33.655 33.655h538.426c18.508 0 33.655-15.147 33.655-33.655-0.007-18.501-15.147-33.648-33.655-33.648z m0 201.91H242.039c-18.508 0-33.655 15.147-33.655 33.655 0 18.508 15.147 33.648 33.655 33.648h538.426c18.508 0 33.655-15.14 33.655-33.648-0.007-18.515-15.147-33.655-33.655-33.655zM511.244 719.24H242.032c-18.501 0-33.648 15.14-33.648 33.648s15.14 33.655 33.648 33.655h269.212c18.508 0 33.657-15.147 33.657-33.655s-15.149-33.648-33.657-33.648z m0 0" fill="#2C2C2C" p-id="4061"></path></svg>