<?xml version="1.0" standalone="no"?><!DOCTYPE svg PUBLIC "-//W3C//DTD SVG 1.1//EN" "http://www.w3.org/Graphics/SVG/1.1/DTD/svg11.dtd"><svg t="1732011008232" class="icon" viewBox="0 0 1024 1024" version="1.1" xmlns="http://www.w3.org/2000/svg" p-id="3519" xmlns:xlink="http://www.w3.org/1999/xlink" width="200" height="200"><path d="M512 64c126.72 3.328 232.192 47.168 316.48 131.456C912.832 279.872 956.672 385.344 960 512c-3.328 126.72-47.168 232.192-131.52 316.48C744.192 912.832 638.72 956.672 512 960c-126.72-3.328-232.192-47.168-316.544-131.52C111.232 744.192 67.392 638.72 64 512c3.328-126.72 47.168-232.192 131.456-316.544C279.872 111.232 385.344 67.392 512 64zM288 512c0 10.688 3.648 19.648 11.008 27.008a36.736 36.736 0 0 0 27.008 11.008h371.968a36.736 36.736 0 0 0 27.008-11.008 36.736 36.736 0 0 0 11.072-27.008 36.736 36.736 0 0 0-11.008-27.008 36.736 36.736 0 0 0-27.072-11.008H326.016a36.736 36.736 0 0 0-27.008 11.008A36.736 36.736 0 0 0 288 512z" fill="#000000" p-id="3520"></path></svg>