<?xml version="1.0" standalone="no"?><!DOCTYPE svg PUBLIC "-//W3C//DTD SVG 1.1//EN" "http://www.w3.org/Graphics/SVG/1.1/DTD/svg11.dtd"><svg t="1746269048526" class="icon" viewBox="0 0 1024 1024" version="1.1" xmlns="http://www.w3.org/2000/svg" p-id="11836" xmlns:xlink="http://www.w3.org/1999/xlink" width="200" height="200"><path d="M263.68 539.214769 195.820308 634.092308l69.159385 69.238154 95.862154-67.150769c23.945846 14.375385 50.057846 25.324308 77.902769 32.137846l19.180308 115.554462 97.792 0 20.519385-115.830154c27.687385-7.010462 53.76-17.998769 77.469538-32.452923l96.531692 67.780923 69.159385-69.238154-68.883692-95.625846c14.257231-23.788308 25.088-49.742769 31.901538-77.351385l116.460308-20.401231L898.875077 342.882462l-116.460308-18.983385c-6.852923-27.529846-17.683692-53.444923-31.980308-77.233231l67.899077-96.728615-69.238154-69.12-95.428923 68.647385c-23.788308-14.414769-49.900308-25.442462-77.666462-32.295385L555.716923 1.299692l-97.792 0-18.825846 115.515077c-27.844923 6.813538-53.996308 17.644308-77.942154 31.980308L266.043077 80.777846 196.883692 149.897846l66.953846 95.744C249.344 269.627077 238.316308 295.778462 231.345231 323.741538L116.381538 342.882462l0 97.831385 114.845538 20.322462C238.158769 488.999385 249.186462 515.190154 263.68 539.214769zM507.667692 256.157538c75.303385 0 136.388923 61.085538 136.388923 136.388923 0 75.382154-61.085538 136.428308-136.388923 136.428308-75.382154 0-136.467692-61.046154-136.467692-136.428308C371.2 317.243077 432.285538 256.157538 507.667692 256.157538z" fill="#333333" p-id="11837"></path><path d="M984.615385 943.931077 39.384615 943.931077c-21.740308 0-39.384615 17.604923-39.384615 39.384615s17.604923 39.384615 39.384615 39.384615l945.230769 0c21.740308 0 39.384615-17.604923 39.384615-39.384615S1006.355692 943.931077 984.615385 943.931077z" fill="#333333" p-id="11838"></path></svg>