<?xml version="1.0" standalone="no"?><!DOCTYPE svg PUBLIC "-//W3C//DTD SVG 1.1//EN" "http://www.w3.org/Graphics/SVG/1.1/DTD/svg11.dtd"><svg t="1745241654475" class="icon" viewBox="0 0 1024 1024" version="1.1" xmlns="http://www.w3.org/2000/svg" p-id="4716" xmlns:xlink="http://www.w3.org/1999/xlink" width="200" height="200"><path d="M960 512c0 205.8-140.2 385.1-339.9 434.7-199.7 49.7-407.5-43.1-503.9-224.9C19.8 540 59.7 315.9 212.9 178.5 366.1 41.1 593.2 25.7 763.5 141.2L841.1 64 871 332.3l-269.6-29.8 96.8-96.3C558.6 121 379 140.8 261.4 254.5c-117.7 113.6-143.7 292.3-63.5 434.8 80.3 142.5 246.6 212.9 404.8 171.2 158.1-41.7 268.1-185 267.7-348.5 0-24.8 20.1-44.8 44.8-44.8 24.7 0 44.8 20 44.8 44.8z m0 0" fill="#0A122D" p-id="4717"></path><path d="M422.3 405.7v232c0 27.2 29.4 44.1 52.9 30.6l201.2-116.2c23.5-13.6 23.5-47.6 0-61.1L475.2 375.1c-23.5-13.5-52.9 3.5-52.9 30.6z m0-61" fill="#0A122D" p-id="4718"></path></svg>