<?xml version="1.0" standalone="no"?><!DOCTYPE svg PUBLIC "-//W3C//DTD SVG 1.1//EN" "http://www.w3.org/Graphics/SVG/1.1/DTD/svg11.dtd"><svg t="1747722291700" class="icon" viewBox="0 0 1024 1024" version="1.1" xmlns="http://www.w3.org/2000/svg" p-id="6047" xmlns:xlink="http://www.w3.org/1999/xlink" width="200" height="200"><path d="M973.21006 1024H789.17006a50.893 50.893 0 0 1-50.816-50.944v-666.47c0-28.135 22.759-50.944 50.816-50.944H973.21006c28.057 0 50.79 22.81 50.79 50.944v666.47c0 28.134-22.733 50.944-50.79 50.944zM947.20006 332.442H815.15506V947.2H947.20006V332.442zM635.90406 1024H387.89106a50.867 50.867 0 0 1-50.79-50.944V50.944C337.10006 22.81 359.83406 0 387.89006 0h240.64a58.266 58.266 0 0 1 58.163 58.445v914.611c0 28.134-22.732 50.944-50.79 50.944z m-26.01-947.2H413.90106v870.4h195.993V76.8zM476.85106 455.552h70.272c14.106 0 25.626 11.52 25.626 25.6s-11.52 25.6-25.626 25.6h-70.272c-14.054 0-25.574-11.52-25.574-25.6s11.52-25.6 25.574-25.6z m0 101.94h70.272c14.106 0 25.626 11.52 25.626 25.6s-11.52 25.6-25.626 25.6h-70.272c-14.054 0-25.574-11.52-25.574-25.6s11.52-25.6 25.574-25.6z m0 101.938h70.272c14.106 0 25.626 11.52 25.626 25.6s-11.52 25.6-25.626 25.6h-70.272c-14.054 0-25.574-11.52-25.574-25.6s11.52-25.6 25.574-25.6z m0 101.965h70.272c14.106 0 25.626 11.52 25.626 25.6s-11.52 25.6-25.626 25.6h-70.272c-14.054 0-25.574-11.52-25.574-25.6s11.52-25.6 25.574-25.6zM234.80306 1024H50.79006A50.867 50.867 0 0 1 0.00006 973.056v-554.88c0-28.134 22.733-50.944 50.79-50.944h184.013c28.058 0 50.816 22.81 50.816 50.944v554.88c0 28.134-22.758 50.944-50.816 50.944zM208.82006 444.032H76.80006V947.2h132.02V444.032z" p-id="6048"></path></svg>