<?xml version="1.0" standalone="no"?><!DOCTYPE svg PUBLIC "-//W3C//DTD SVG 1.1//EN" "http://www.w3.org/Graphics/SVG/1.1/DTD/svg11.dtd"><svg t="1752991508511" class="icon" viewBox="0 0 1024 1024" version="1.1" xmlns="http://www.w3.org/2000/svg" p-id="10192" xmlns:xlink="http://www.w3.org/1999/xlink" width="200" height="200"><path d="M987.428571 110.857143H725.942857c-56.114286 0-110.971429 16.114286-158.171428 46.514286L512 193.142857l-55.771429-35.771428A291.657143 291.657143 0 0 0 298.057143 110.857143H36.571429c-20.228571 0-36.571429 16.342857-36.571429 36.571428v649.142858c0 20.228571 16.342857 36.571429 36.571429 36.571428h261.485714c56.114286 0 110.971429 16.114286 158.171428 46.514286l50.742858 32.685714c1.485714 0.914286 3.2 1.485714 4.914285 1.485714s3.428571-0.457143 4.914286-1.485714l50.742857-32.685714C614.857143 849.257143 669.828571 833.142857 725.942857 833.142857H987.428571c20.228571 0 36.571429-16.342857 36.571429-36.571428V147.428571c0-20.228571-16.342857-36.571429-36.571429-36.571428zM388.571429 559.428571c0 4.685714-3.657143 8.571429-8.114286 8.571429H168.114286c-4.457143 0-8.114286-3.885714-8.114286-8.571429v-51.428571c0-4.685714 3.657143-8.571429 8.114286-8.571429h212.228571c4.457143 0 8.114286 3.885714 8.114286 8.571429v51.428571z m0-160c0 4.685714-3.657143 8.571429-8.114286 8.571429H168.114286c-4.457143 0-8.114286-3.885714-8.114286-8.571429v-51.428571c0-4.685714 3.657143-8.571429 8.114286-8.571429h212.228571c4.457143 0 8.114286 3.885714 8.114286 8.571429v51.428571z m475.428571 160c0 4.685714-3.657143 8.571429-8.114286 8.571429H643.542857c-4.457143 0-8.114286-3.885714-8.114286-8.571429v-51.428571c0-4.685714 3.657143-8.571429 8.114286-8.571429h212.228572c4.457143 0 8.114286 3.885714 8.114285 8.571429v51.428571z m0-160c0 4.685714-3.657143 8.571429-8.114286 8.571429H643.542857c-4.457143 0-8.114286-3.885714-8.114286-8.571429v-51.428571c0-4.685714 3.657143-8.571429 8.114286-8.571429h212.228572c4.457143 0 8.114286 3.885714 8.114285 8.571429v51.428571z" p-id="10193"></path></svg>