<?xml version="1.0" standalone="no"?><!DOCTYPE svg PUBLIC "-//W3C//DTD SVG 1.1//EN" "http://www.w3.org/Graphics/SVG/1.1/DTD/svg11.dtd"><svg t="1759996872308" class="icon" viewBox="0 0 1024 1024" version="1.1" xmlns="http://www.w3.org/2000/svg" p-id="3435" xmlns:xlink="http://www.w3.org/1999/xlink" width="128" height="128"><path d="M313.5 432.4l-56-57c-35.9 48.9-59.9 102-63.8 159h79.8c4-36.7 20-69.3 40-102m-40 183.5h-79.8c8 57.2 27.9 110.1 63.8 159.1l56-57.1c-20-32.7-36-65.3-40-102m40 216.2c47.9 36.7 99.8 57.1 155.7 65.2v-81.6c-35.9-4.1-67.9-20.3-99.8-40.7L313.5 832.1z m235.4-579.1V126.6L369.3 310.1l179.6 183.5v-159c111.8 20.4 199.6 118.3 199.6 240.6s-87.8 220.2-199.6 240.5v81.6c155.7-20.4 279.5-159.1 279.5-322.1 0-163.2-123.8-301.8-279.5-322.2" fill="#2c2c2c" p-id="3436"></path></svg>