<?xml version="1.0" standalone="no"?><!DOCTYPE svg PUBLIC "-//W3C//DTD SVG 1.1//EN" "http://www.w3.org/Graphics/SVG/1.1/DTD/svg11.dtd"><svg t="1744266126728" class="icon" viewBox="0 0 1024 1024" version="1.1" xmlns="http://www.w3.org/2000/svg" p-id="5133" xmlns:xlink="http://www.w3.org/1999/xlink" width="200" height="200"><path d="M889.042725 808.550469c-9.253188 9.281405-21.371418 13.925131-33.515849 13.925131-12.023501 0-24.074212-4.576206-33.301198-13.709472-18.480175-18.386454-18.596066-48.302609-0.21062-66.811001 59.098667-59.470528 91.655136-138.217356 91.655136-221.727832 0-83.509468-32.556469-162.256296-91.655136-221.726824-18.386454-18.508392-18.264515-48.424547 0.21062-66.811001 9.225979-9.133265 21.277697-13.714511 33.301198-13.714511 12.143424 0 24.261654 4.642718 33.515849 13.93017 76.781709 77.325896 119.086173 179.723679 119.086173 288.322166C1008.128898 628.827798 965.824434 731.219535 889.042725 808.550469L889.042725 808.550469zM740.163343 689.186157c-8.854118 7.413031-19.617928 11.04195-30.315226 11.04195-13.498852 0-26.902974-5.748223-36.223682-16.883894-16.755909-20.018006-14.141798-49.77796 5.842952-66.5379 28.783441-24.107467 45.28842-59.316342 45.28842-96.578009 0-37.266706-16.505986-72.469534-45.28842-96.577002-19.985758-16.75994-22.598861-46.525941-5.842952-66.5379 9.321715-11.135671 22.72483-16.883894 36.223682-16.883894 10.698306 0 21.461108 3.628919 30.315226 11.039934 50.244549 42.093843 79.056208 103.679645 79.056208 168.958861C819.218543 585.501473 790.407892 647.093321 740.163343 689.186157L740.163343 689.186157zM435.596198 155.81877 260.114152 331.313917l-165.069942 0 0 377.82978 165.069942 0 212.755807 212.772939L472.869959 298.856208l94.461728-102.974218 0 765.142516c0 34.780579-28.194914 62.977509-62.970454 62.977509l-62.977509 0-220.395582-220.401629L63.551928 803.600387c-34.775541 0-62.966423-28.194914-62.966423-62.971462l0-440.801242c0-34.776548 28.190883-62.971462 62.966423-62.971462l157.435206 0 220.395582-220.401629 62.977509 0c17.653817 0 33.559183 7.312256 44.995164 19.014284L435.596198 155.81877 435.596198 155.81877zM435.596198 155.81877" fill="#272636" p-id="5134"></path></svg>