<?xml version="1.0" standalone="no"?><!DOCTYPE svg PUBLIC "-//W3C//DTD SVG 1.1//EN" "http://www.w3.org/Graphics/SVG/1.1/DTD/svg11.dtd"><svg t="1745735535268" class="icon" viewBox="0 0 1024 1024" version="1.1" xmlns="http://www.w3.org/2000/svg" p-id="8538" xmlns:xlink="http://www.w3.org/1999/xlink" width="200" height="200"><path d="M256 128l512 0q53.00224 0 90.50112 37.49888t37.49888 90.50112l0 512q0 53.00224-37.49888 90.50112t-90.50112 37.49888l-512 0q-53.00224 0-90.50112-37.49888t-37.49888-90.50112l0-512q0-53.00224 37.49888-90.50112t90.50112-37.49888zM768 213.34016l-512 0q-17.67424 0-30.16704 12.4928t-12.4928 30.16704l0 512q0 17.67424 12.4928 30.16704t30.16704 12.4928l512 0q17.67424 0 30.16704-12.4928t12.4928-30.16704l0-512q0-17.67424-12.4928-30.16704t-30.16704-12.4928z" fill="#444444" p-id="8539"></path></svg>