<?xml version="1.0" standalone="no"?><!DOCTYPE svg PUBLIC "-//W3C//DTD SVG 1.1//EN" "http://www.w3.org/Graphics/SVG/1.1/DTD/svg11.dtd"><svg t="1744966763096" class="icon" viewBox="0 0 1024 1024" version="1.1" xmlns="http://www.w3.org/2000/svg" p-id="5613" xmlns:xlink="http://www.w3.org/1999/xlink" width="200" height="200"><path d="M736.305 546.133c9.752-19.504 4.876-39.01-14.629-48.762-24.38-14.628-48.762-24.38-73.143-34.133 53.638-43.886 92.648-107.276 92.648-185.295C746.057 151.162 638.781 48.762 512 48.762s-234.057 102.4-234.057 234.057c0 73.143 34.133 141.41 92.647 180.42C204.8 521.751 82.895 677.79 82.895 867.961c0 19.505 14.629 39.01 39.01 39.01s39.01-14.63 39.01-39.01c0-195.048 160.914-351.086 351.085-351.086 63.39 0 121.905 14.629 175.543 48.762 19.505 4.876 39.01 0 48.762-19.505zM355.962 282.82c0-87.771 68.267-160.914 156.038-160.914s156.038 73.143 156.038 156.038S599.771 438.857 512 438.857 355.962 365.714 355.962 282.82z" fill="#333333" p-id="5614"></path><path d="M560.762 707.048h390.095c14.629 0 29.257-9.753 34.133-24.381 4.877-14.629 4.877-29.257-9.752-39.01l-97.524-97.524c-14.628-14.628-39.01-14.628-53.638 0s-14.628 39.01 0 53.638l34.134 34.134H560.762c-19.505 0-39.01 14.628-39.01 39.01s19.505 34.133 39.01 34.133z m390.095 73.142H560.762c-14.629 0-29.257 9.753-34.133 24.381s-4.877 29.258 9.752 39.01l97.524 97.524c4.876 4.876 14.628 9.752 24.38 9.752s19.505-4.876 24.382-9.752c14.628-14.629 14.628-39.01 0-53.638l-34.134-34.134h302.324c19.505 0 39.01-14.628 39.01-39.01s-19.505-34.133-39.01-34.133z" fill="#333333" p-id="5615"></path></svg>