<?xml version="1.0" standalone="no"?><!DOCTYPE svg PUBLIC "-//W3C//DTD SVG 1.1//EN" "http://www.w3.org/Graphics/SVG/1.1/DTD/svg11.dtd"><svg t="1746457658116" class="icon" viewBox="0 0 1024 1024" version="1.1" xmlns="http://www.w3.org/2000/svg" p-id="15261" xmlns:xlink="http://www.w3.org/1999/xlink" width="200" height="200"><path d="M832.196923 236.307692C894.621538 236.307692 945.230769 293.612308 945.230769 364.307692v295.384616c0 70.695385-50.609231 128-113.033846 128h-56.477538l-0.039385-85.346462h56.516923c19.337846 0 35.249231-16.462769 37.415385-37.691077l0.275692-4.962461v-295.384616c0-21.897846-14.572308-39.896615-33.28-42.377846l-4.411077-0.275692-56.516923-0.039385V236.307692h56.516923zM248.280615 321.614769H191.803077c-19.337846 0-35.249231 16.502154-37.415385 37.730462l-0.275692 4.962461v295.384616c0 21.897846 14.572308 39.896615 33.28 42.377846l4.411077 0.275692h56.477538V787.692308H191.803077C129.378462 787.692308 78.769231 730.387692 78.769231 659.692308v-295.384616C78.769231 293.612308 129.378462 236.307692 191.803077 236.307692h56.477538v85.307077z" fill="#888888" p-id="15262"></path><path d="M701.046154 137.846154a118.153846 118.153846 0 0 1 118.153846 118.153846v512a118.153846 118.153846 0 0 1-118.153846 118.153846H322.953846a118.153846 118.153846 0 0 1-118.153846-118.153846v-512a118.153846 118.153846 0 0 1 118.153846-118.153846h378.092308z m0 78.769231H322.953846a39.384615 39.384615 0 0 0-39.108923 34.776615L283.569231 256v512a39.384615 39.384615 0 0 0 34.776615 39.108923l4.608 0.275692h378.092308a39.384615 39.384615 0 0 0 39.108923-34.776615l0.275692-4.608v-512a39.384615 39.384615 0 0 0-34.776615-39.108923L701.046154 216.615385z" fill="#888888" p-id="15263"></path></svg>