<?xml version="1.0" standalone="no"?><!DOCTYPE svg PUBLIC "-//W3C//DTD SVG 1.1//EN" "http://www.w3.org/Graphics/SVG/1.1/DTD/svg11.dtd"><svg t="1745127317064" class="icon" viewBox="0 0 1024 1024" version="1.1" xmlns="http://www.w3.org/2000/svg" p-id="4700" xmlns:xlink="http://www.w3.org/1999/xlink" width="200" height="200"><path d="M64 512c0 247.36 200.576 448 448 448 247.36 0 448-200.64 448-448 0-247.424-200.64-448-448-448C264.576 64 64 264.576 64 512zM896.768 512.064c0 212.416-172.224 384.704-384.768 384.704S127.232 724.48 127.232 512.064C127.232 299.584 299.52 127.36 512 127.36S896.768 299.584 896.768 512.064zM548.16 491.904c12.544-12.48 32.832-12.48 45.44 0l123.904 123.904c6.272 6.4 9.344 14.656 9.344 22.72 0 8.256-3.136 16.448-9.344 22.656l-123.904 123.968c-12.608 12.544-32.896 12.544-45.44 0-12.48-12.544-12.48-32.832 0-45.376L615.936 672 329.152 672c-17.6 0-32-14.336-32-32s14.4-32 32-32l288 0-1.28-3.072L548.16 537.28C535.68 524.736 535.68 504.512 548.16 491.904zM475.84 243.968c12.48 12.544 12.48 32.832 0 45.376L408.064 356.992l286.784 0c17.6 0 32 14.336 32 32s-14.4 32-32 32l-288 0 1.28 3.072 67.712 67.712c12.48 12.48 12.48 32.768 0 45.376-12.544 12.48-32.832 12.48-45.44 0L306.496 413.248c-6.272-6.4-9.344-14.656-9.344-22.72 0-8.256 3.136-16.448 9.344-22.656l123.904-123.968C443.008 231.36 463.232 231.36 475.84 243.968z" fill="#020202" p-id="4701"></path></svg>