<?xml version="1.0" standalone="no"?><!DOCTYPE svg PUBLIC "-//W3C//DTD SVG 1.1//EN" "http://www.w3.org/Graphics/SVG/1.1/DTD/svg11.dtd"><svg t="1753265031102" class="icon" viewBox="0 0 1024 1024" version="1.1" xmlns="http://www.w3.org/2000/svg" p-id="13031" xmlns:xlink="http://www.w3.org/1999/xlink" width="200" height="200"><path d="M467.90242 978.469929v-181.267081A429.471898 429.471898 0 0 1 135.463093 165.599152a44.444175 44.444175 0 0 1 26.604453-21.562794 146.906226 146.906226 0 0 1 42.660203-5.739736 338.1015 338.1015 0 0 1 138.83957 35.679442A585.763369 585.763369 0 0 1 487.526113 7.911529a45.064687 45.064687 0 0 1 25.440994-7.756401 44.444175 44.444175 0 0 1 23.269202 6.437812A518.515376 518.515376 0 0 1 687.873939 174.053628a416.363581 416.363581 0 0 1 143.49341-31.025602 197.71065 197.71065 0 0 1 26.682018 1.706408 45.142251 45.142251 0 0 1 33.740343 23.269202 429.70459 429.70459 0 0 1-333.525224 629.35434v181.267081a45.064687 45.064687 0 0 1-90.129374 0z m-294.743221-608.101803a339.342524 339.342524 0 1 0 649.831238-137.365854 422.33601 422.33601 0 0 0-138.917134 39.324951 44.754431 44.754431 0 0 1-34.981366 0.620512 45.452507 45.452507 0 0 1-24.742918-24.665354A480.896834 480.896834 0 0 0 513.742747 101.608847a609.342827 609.342827 0 0 0-113.010756 154.042115 44.987123 44.987123 0 0 1-66.317224 16.676261 264.415695 264.415695 0 0 0-130.152402-44.133919 340.42842 340.42842 0 0 0-30.79291 142.174822z m461.660961 615.858203a45.219815 45.219815 0 0 1-29.474322-11.014088 44.211483 44.211483 0 0 1-15.512801-31.025603 45.297379 45.297379 0 0 1 10.936524-32.654446 432.109074 432.109074 0 0 1 305.524618-129.376761 44.987123 44.987123 0 0 1 0 89.896682 351.830329 351.830329 0 0 0-237.578549 98.428723 44.289047 44.289047 0 0 1-33.50765 15.512801z m-243.395849 0a44.676867 44.676867 0 0 1-33.973035-15.512801 351.054689 351.054689 0 0 0-237.268293-98.428723 44.987123 44.987123 0 1 1-0.542948-89.896682h0.38782a438.003939 438.003939 0 0 1 305.214362 129.376761 45.219815 45.219815 0 0 1 10.858961 32.73201 44.599303 44.599303 0 0 1-15.512801 31.025603 43.513407 43.513407 0 0 1-29.086502 11.014088z" fill="#7A808C" p-id="13032"></path></svg>