<?xml version="1.0" standalone="no"?><!DOCTYPE svg PUBLIC "-//W3C//DTD SVG 1.1//EN" "http://www.w3.org/Graphics/SVG/1.1/DTD/svg11.dtd"><svg t="1747384754407" class="icon" viewBox="0 0 1024 1024" version="1.1" xmlns="http://www.w3.org/2000/svg" p-id="4612" xmlns:xlink="http://www.w3.org/1999/xlink" width="200" height="200"><path d="M849.1 443.9A841.9 841.9 0 0 0 953.9 330a32 32 0 0 0-51.8-37.7 798.2 798.2 0 0 1-120 125.7 535.1 535.1 0 0 1-166.9 99 314.2 314.2 0 0 1-103.2 18.1 314.2 314.2 0 0 1-102.8-18.2 535.1 535.1 0 0 1-166.9-99 805.2 805.2 0 0 1-120-125.6A32 32 0 0 0 70 330a841.9 841.9 0 0 0 104.8 114L74.2 544.6A32 32 0 0 0 120 590l104-104.7A600 600 0 0 0 360 566.7l-37 137.9a32 32 0 0 0 22.6 39.2 30 30 0 0 0 8.3 1.1 31.9 31.9 0 0 0 30.9-23.7l35.9-133.9a356 356 0 0 0 181.8 0l35.9 133.9A31.9 31.9 0 0 0 670 744.9a30 30 0 0 0 8.3-1.1 32 32 0 0 0 22.6-39.2l-37-137.9A600 600 0 0 0 800 485.3L904.5 590A32 32 0 0 0 950 544.6z" fill="#333333" p-id="4613"></path></svg>