<?xml version="1.0" standalone="no"?><!DOCTYPE svg PUBLIC "-//W3C//DTD SVG 1.1//EN" "http://www.w3.org/Graphics/SVG/1.1/DTD/svg11.dtd"><svg t="1729749054191" class="icon" viewBox="0 0 1024 1024" version="1.1" xmlns="http://www.w3.org/2000/svg" p-id="3446" xmlns:xlink="http://www.w3.org/1999/xlink" width="200" height="200"><path d="M1012.705882 111.691294a72.779294 72.779294 0 0 1-72.779294 72.779294H76.544A72.779294 72.779294 0 0 1 3.764706 111.691294V76.544A72.779294 72.779294 0 0 1 76.544 3.764706h863.367529a72.779294 72.779294 0 0 1 72.779295 72.779294v35.147294zM530.823529 969.035294a43.670588 43.670588 0 0 1-43.670588 43.670588H47.435294a43.670588 43.670588 0 0 1-43.670588-43.670588v-680.658823a43.670588 43.670588 0 0 1 43.670588-43.670589h439.717647a43.670588 43.670588 0 0 1 43.670588 43.670589v680.658823zM1012.705882 969.035294a43.670588 43.670588 0 0 1-43.670588 43.670588h-319.247059a43.670588 43.670588 0 0 1-43.670588-43.670588v-680.658823a43.670588 43.670588 0 0 1 43.670588-43.670589h319.247059a43.670588 43.670588 0 0 1 43.670588 43.670589v680.658823z" p-id="3447"></path></svg>