<svg xmlns="http://www.w3.org/2000/svg" xmlns:xlink="http://www.w3.org/1999/xlink" fill="none" version="1.1" width="119" height="111" viewBox="0 0 119 111"><defs><clipPath id="master_svg0_33_4517"><rect x="0" y="0" width="119" height="111" rx="0"/></clipPath><linearGradient x1="0.5" y1="0.5" x2="0.506956421121746" y2="0.7659746984996356" id="master_svg1_33_5772"><stop offset="0%" stop-color="#F8F8F8" stop-opacity="0.7099999785423279"/><stop offset="100%" stop-color="#E2E7F2" stop-opacity="0"/></linearGradient><linearGradient x1="0.5" y1="0.5" x2="0.5" y2="0.5220000147819519" id="master_svg2_33_5773"><stop offset="0%" stop-color="#F8F8F8" stop-opacity="1"/><stop offset="100%" stop-color="#F8F8F8" stop-opacity="0"/></linearGradient><linearGradient x1="0.7649999856948853" y1="-0.01899999938905239" x2="0.36128265962643946" y2="1.006766661880909" id="master_svg3_33_5774"><stop offset="0%" stop-color="#F8F8F8" stop-opacity="1"/><stop offset="100%" stop-color="#E2E7F2" stop-opacity="0"/></linearGradient><linearGradient x1="0.7649999856948853" y1="-0.01899999938905239" x2="0.7079994708562303" y2="0.8171314429902705" id="master_svg4_33_5775"><stop offset="0%" stop-color="#F8F8F8" stop-opacity="1"/><stop offset="100%" stop-color="#E2E7F2" stop-opacity="0"/></linearGradient><linearGradient x1="0.5" y1="0.5" x2="0.5" y2="1" id="master_svg5_33_5776"><stop offset="0%" stop-color="#EAEEF2" stop-opacity="1"/><stop offset="100%" stop-color="#E1E6ED" stop-opacity="1"/></linearGradient><linearGradient x1="0.5" y1="0" x2="0.5" y2="1" id="master_svg6_33_5779"><stop offset="0%" stop-color="#F8F8F8" stop-opacity="1"/><stop offset="100%" stop-color="#E2E7F2" stop-opacity="0"/></linearGradient><linearGradient x1="0.5" y1="0" x2="0.5" y2="1" id="master_svg7_33_5779"><stop offset="0%" stop-color="#F8F8F8" stop-opacity="1"/><stop offset="100%" stop-color="#E2E7F2" stop-opacity="0"/></linearGradient></defs><g clip-path="url(#master_svg0_33_4517)"><g><g style="opacity:0;"><rect x="0" y="0" width="119" height="110.99998474121094" rx="0" fill="#FFFFFF" fill-opacity="1" style="mix-blend-mode:passthrough"/></g><g><g transform="matrix(0.9935052990913391,-0.11378630250692368,0.13050806522369385,0.9914472699165344,-6.739959309645201,0.7141635147299894)"><path d="M3.0316101171875,84.80742583007813Q1.0155601171875,67.02822583007813,5.2913601171875,64.51612583007812Q9.5671601171875,62.00402583007813,12.6304201171875,68.89952583007812Q9.7694001171875,52.662178830078126,15.7554201171875,51.80564213007813Q21.7415201171875,50.94910483007813,23.6117201171875,67.18762583007812Q23.4593201171875,56.82299583007813,29.0939201171875,56.47682583007813Q34.7285201171875,56.13064583007812,38.2237201171875,76.49022583007812L3.0316101171875,84.80742583007813Z" fill="url(#master_svg1_33_5772)" fill-opacity="1" style="mix-blend-mode:passthrough"/></g><g><ellipse cx="60.33583450317383" cy="87.69436454772949" rx="56.10768508911133" ry="14.633787155151367" fill="url(#master_svg2_33_5773)" fill-opacity="1" style="mix-blend-mode:passthrough"/></g><g transform="matrix(0.9935052394866943,0.1137862503528595,-0.13050806522369385,0.9914472699165344,9.172776158829947,-9.993569564632708)"><path d="M94.5298898046875,73.24094168945312C97.8735398046875,71.05234168945313,95.6096098046875,69.23357168945313,97.3715298046875,68.45690168945312C99.1334398046875,67.68023168945312,100.2878098046875,67.14458168945312,100.4208598046875,65.66873168945312C101.1187298046875,67.59483168945313,102.6476398046875,68.55782168945312,101.5756998046875,71.08196168945312C100.5037598046875,73.60610168945313,102.3110598046875,76.04123168945313,100.3294898046875,78.00953168945313Q98.3479198046875,79.97793168945313,94.1726598046875,79.52403168945312Q91.1858998046875,75.42954168945312,94.5298898046875,73.24094168945312Z" fill="url(#master_svg3_33_5774)" fill-opacity="1" style="mix-blend-mode:passthrough"/></g><g transform="matrix(0.8552536368370056,0.5182096362113953,-0.5714778304100037,0.8206175565719604,55.30291849544119,-41.33699072561649)"><path d="M105.3238008203125,75.68783833007812C107.5710208203125,74.15843833007813,106.0496508203125,72.88702833007812,107.2334508203125,72.34419833007813C108.4172608203125,71.80137833007812,109.1932708203125,71.42688833007813,109.2826508203125,70.39553833007812C109.7516508203125,71.74163833007813,110.7790408203125,72.41479833007813,110.0587808203125,74.17893833007813C109.33851082031251,75.94307833007812,110.5529808203125,77.64481833007812,109.2212008203125,79.02083833007812Q107.8894208203125,80.39683833007813,105.0837118203125,80.07923833007813Q103.0767008203125,77.21757833007813,105.3238008203125,75.68783833007812Z" fill="url(#master_svg4_33_5775)" fill-opacity="1" style="mix-blend-mode:passthrough"/></g><g><path d="M74.7091935546875,76.92774458007813L46.4688335546875,76.92774458007813C43.1592635546875,76.93034458007813,40.4756327846875,74.42714458007814,40.4783956049975,71.34004458007813L40.4783956049975,38.61216458007812C40.4756964046875,35.525114580078125,43.1592935546875,33.02192692007812,46.4688335546875,33.024447061118124L52.1967935546875,33.024447061118124C49.9592035546875,33.04660978007813,48.1615935546875,34.75140458007812,48.1749335546875,36.83861458007812C48.1882735546875,38.92582458007813,50.0075435546875,40.61050458007813,52.2451935546875,40.607784580078125L52.3877935546875,40.607784580078125C54.6327935546875,40.620324580078126,56.4636935546875,38.93290458007812,56.4770935546875,36.838824580078125C56.490493554687504,34.74474458007813,54.6814935546875,33.036989880078124,52.4364935546875,33.024447061118124L68.8841935546875,33.024447061118124C66.6465935546875,33.04660978007813,64.8489935546875,34.75140458007812,64.8623935546875,36.83861458007812C64.8756935546875,38.92582458007813,66.6949935546875,40.61050458007813,68.9326935546875,40.607784580078125L69.0751935546875,40.607784580078125C71.3202935546875,40.62044458007813,73.1511935546875,38.93312458007813,73.16479355468749,36.839044580078124C73.1782935546875,34.744964580078125,71.36939355468749,33.037109180078126,69.1243935546875,33.024447061118124L74.7096935546875,33.024447061118124C78.0192935546875,33.021927020078124,80.7028935546875,35.525114580078125,80.7001935546875,38.61216458007812L80.7001935546875,71.34004458007813C80.7028935546875,74.42714458007814,78.0192935546875,76.93034458007813,74.7096935546875,76.92774458007813L74.7091935546875,76.92774458007813Z" fill="url(#master_svg5_33_5776)" fill-opacity="1" style="mix-blend-mode:passthrough"/></g><g><rect x="48.7242431640625" y="28.564727783203125" width="7.131400108337402" height="11.308448791503906" rx="3.565700054168701" fill="#F5F8FE" fill-opacity="1" style="mix-blend-mode:passthrough"/></g><g><rect x="65.3189697265625" y="28.564727783203125" width="7.131400108337402" height="11.308448791503906" rx="3.565700054168701" fill="#F5F8FE" fill-opacity="1" style="mix-blend-mode:passthrough"/></g><g><rect x="47.8714599609375" y="49.521514892578125" width="25.4356689453125" height="4.3359375" rx="2.16796875" fill="#FFFFFF" fill-opacity="1" style="mix-blend-mode:passthrough"/></g><g><rect x="47.8714599609375" y="58.262969970703125" width="15.107421875" height="4.3359375" rx="2.16796875" fill="#FFFFFF" fill-opacity="1" style="mix-blend-mode:passthrough"/></g><g transform="matrix(0.6945128440856934,-0.7194802761077881,0.7657529711723328,0.6431348323822021,-15.218786594317862,85.61488189371448)"><path d="M105.1329970703125,61.800781923828126C104.7227970703125,61.80005192382812,104.3129970703125,61.775281923828125,103.9056970703125,61.726571923828125C103.0818970703125,61.63211192382813,102.26639707031251,61.474821923828124,101.4660970703125,61.256051923828124C100.7992270703125,61.074241923828126,100.1490270703125,60.83513192382812,99.5226770703125,60.54137192382812C99.0589870703125,60.32423192382812,98.6162570703125,60.06429192382812,98.2001670703125,59.76488192382813Q98.1479870703125,59.78563192382813,98.0943570703125,59.80446192382813C97.4941170703125,60.016041923828126,96.7549370703125,60.05495192382813,95.8968470703125,59.91950192382812C95.1383870703125,59.78913192382812,94.3956470703125,59.578801923828124,93.6808570703125,59.29199192382813C92.8398870703125,58.964731923828126,92.0256010703125,58.57178192382813,91.2454210703125,58.11671192382813C91.1128449303125,58.036611923828126,91.0698352703125,57.86342192382813,91.1493562703125,57.729881923828124C91.2288770703125,57.596331923828124,91.4008160703125,57.55301192382812,91.5333920703125,57.633111923828125C92.2889070703125,58.07177192382812,93.0766770703125,58.451481923828126,93.8897770703125,58.768921923828124C95.45380707031251,59.37500192382812,96.75672707031251,59.56966192382812,97.6808770703125,59.34037192382812C97.4818570703125,59.159011923828125,97.3012970703125,58.95809192382813,97.1418770703125,58.740611923828126C96.7960270703125,58.26130192382813,96.6564070703125,57.790211923828124,96.7381370703125,57.378341923828124C96.8329770703125,56.90117192382812,97.2130870703125,56.506554923828126,97.7548870703125,56.32272392382813C98.0191170703125,56.231867923828126,98.3001870703125,56.201771123828124,98.5774770703125,56.234642723828124C98.8599370703125,56.26494112382812,99.1266570703125,56.380696923828125,99.3425270703125,56.56666692382812C99.5315570703125,56.73604892382812,99.66534707031249,56.959027923828124,99.7263370703125,57.20635492382812C99.7960270703125,57.506231923828125,99.7964570703125,57.818221923828126,99.7275670703125,58.118291923828124C99.7246570703125,58.13268192382812,99.7206570703125,58.14682192382813,99.7155970703125,58.160581923828126C99.5352570703125,58.68447192382813,99.1995770703125,59.13995192382812,98.7539370703125,59.46545192382813C99.0758370703125,59.677971923828125,99.4123570703125,59.867131923828126,99.7609370703125,60.03149192382813C100.9292770703125,60.587271923828126,102.3848970703125,60.97974192382812,103.9707970703125,61.166511923828125C106.37039707031249,61.44846192382813,107.9217970703125,60.81858192382813,108.8003970703125,60.23957192382812C109.7373970703125,59.622321923828125,110.1156970703125,58.949481923828124,110.1193970703125,58.94260192382812C110.19449707031251,58.80650192382812,110.36489707031251,58.757531923828125,110.5000970703125,58.83320192382813C110.6351970703125,58.908881923828126,110.6837970703125,59.08056192382813,110.6086970703125,59.216651923828124C110.5906970703125,59.24914192382813,110.1581970703125,60.01875192382813,109.1068970703125,60.711441923828126C108.4721970703125,61.12415192382812,107.7705970703125,61.421571923828125,107.0339970703125,61.590221923828125C106.4103970703125,61.733691923828125,105.7725970703125,61.804341923828126,105.1329970703125,61.800781923828126ZM98.3632970703125,56.784219923828125C98.2171270703125,56.78491892382812,98.0720470703125,56.80948592382813,97.9336870703125,56.85696292382813C97.5839170703125,56.975606923828124,97.3422970703125,57.211880923828126,97.2873270703125,57.48853192382813C97.2377270703125,57.73822192382813,97.3469970703125,58.065061923828125,97.5948870703125,58.408701923828126C97.7895470703125,58.669781923828126,98.0165070703125,58.904761923828126,98.2702570703125,59.10794192382812C98.6987870703125,58.85581192382813,99.0230470703125,58.456891923828124,99.1838770703125,57.98397192382812C99.2453470703125,57.66458192382812,99.2553070703125,57.24064192382812,98.9725970703125,56.989140923828124C98.8007070703125,56.84901192382812,98.5842870703125,56.77622892382813,98.3632970703125,56.784219923828125Z" fill="#E1E6ED" fill-opacity="1" style="mix-blend-mode:passthrough"/></g><g><path d="M85.2937920703125,25.652586767578125C82.7555120703125,25.615186767578123,80.7188720703125,23.685086767578127,80.7188720703125,21.317196767578125C80.7188725309385,18.949266767578123,82.7555120703125,17.019256767578124,85.2937920703125,16.981796767578125C85.8780620703125,16.981286767578126,86.4569420703125,17.086076767578124,86.9986020703125,17.290406767578126Q86.9859320703125,17.137786767578124,86.9858220703125,16.981906767578124C86.9559720703125,14.844946767578126,88.8049120703125,13.097686767578125,91.0960720703125,13.097686767578125C93.3872720703125,13.097686893165125,95.2361720703125,14.844946767578126,95.2063720703125,16.981906767578124C95.2070720703125,17.484316767578125,95.1039720703125,17.982136767578126,94.9025720703125,18.448106767578125C95.54017207031251,18.085296767578125,96.2727720703125,17.893766767578125,97.0196720703125,17.894626767578124C99.2992720703125,17.917106767578126,101.1345720703125,19.647206767578126,101.1345720703125,21.773656767578125C101.1345720703125,23.900086767578124,99.2992720703125,25.630186767578124,97.0196720703125,25.652686767578125L85.2937920703125,25.652586767578125Z" fill="url(#master_svg6_33_5779)" fill-opacity="1" style="mix-blend-mode:passthrough"/></g><g><path d="M20.9792109765625,29.933871845703123C19.2619609765625,29.933871845703123,17.8697509765625,28.609451845703127,17.8697509765625,26.975561845703126C17.8697509765625,25.341681845703125,19.2619609765625,24.017261845703125,20.9792109765625,24.017261845703125C21.3749809765625,24.016881845703125,21.7670509765625,24.088381845703125,22.1335309765625,24.227771845703124Q22.1249309765625,24.123601845703124,22.1248109765625,24.017261845703125C22.0946209765625,22.564341845703126,23.3490309765625,21.371368064703123,24.9069609765625,21.371368064703123C26.4648909765625,21.371368234703127,27.7193009765625,22.564341845703126,27.6891109765625,24.017261845703125C27.6896609765625,24.359951845703126,27.6198809765625,24.699571845703126,27.4835309765625,25.017781845703126C27.9144509765625,24.770391845703124,28.4106509765625,24.639641845703125,28.9166509765625,24.640121845703124C30.4614509765625,24.669281845703125,31.6974509765625,25.845741845703124,31.6974509765625,27.286991845703124C31.6974509765625,28.728241845703124,30.4614509765625,29.904701845703123,28.9166509765625,29.933871845703123L20.9792109765625,29.933871845703123Z" fill="url(#master_svg7_33_5779)" fill-opacity="1" style="mix-blend-mode:passthrough"/></g></g></g></g></svg>