<?xml version="1.0" standalone="no"?><!DOCTYPE svg PUBLIC "-//W3C//DTD SVG 1.1//EN" "http://www.w3.org/Graphics/SVG/1.1/DTD/svg11.dtd"><svg t="1746772043496" class="icon" viewBox="0 0 1024 1024" version="1.1" xmlns="http://www.w3.org/2000/svg" p-id="2314" xmlns:xlink="http://www.w3.org/1999/xlink" width="200" height="200"><path d="M372.434824 631.747765a34.063059 34.063059 0 0 1-45.116236-13.793883l-2.228706-4.909176-93.214117-204.528941a17.076706 17.076706 0 0 1 25.660235-20.87153l109.989647 78.305883a50.838588 50.838588 0 0 0 45.477647 5.210353L930.273882 240.941176C837.511529 131.704471 684.815059 60.295529 512 60.295529c-282.774588 0-512 191.006118-512 426.646589 0 128.572235 68.969412 244.284235 176.911059 322.499764 8.673882 6.174118 14.336 16.323765 14.336 27.798589 0 3.794824-0.813176 7.258353-1.807059 10.87247l-23.070118 86.076235c-1.084235 4.035765-2.770824 8.252235-2.770823 12.468706 0 9.426824 7.649882 17.076706 17.076706 17.076706a19.456 19.456 0 0 0 9.84847-3.162353l112.097883-64.692706c8.432941-4.879059 17.347765-7.890824 27.196235-7.890823 5.240471 0 10.300235 0.813176 15.058823 2.258823 52.284235 15.028706 108.694588 23.401412 167.122824 23.401412 282.774588 0 512-191.036235 512-426.676706 0-71.378824-21.142588-138.601412-58.307765-197.692235l-589.522823 340.329412-3.734588 2.138353z" fill="#A8A8A8" p-id="2315"></path></svg>