<?xml version="1.0" standalone="no"?><!DOCTYPE svg PUBLIC "-//W3C//DTD SVG 1.1//EN" "http://www.w3.org/Graphics/SVG/1.1/DTD/svg11.dtd"><svg t="1754483015011" class="icon" viewBox="0 0 1024 1024" version="1.1" xmlns="http://www.w3.org/2000/svg" p-id="15178" xmlns:xlink="http://www.w3.org/1999/xlink" width="200" height="200"><path d="M713.955556 583.111111c14.222222 11.377778 34.133333 5.688889 45.511111-11.377778 5.688889-8.533333 5.688889-14.222222 5.688889-22.755555-2.844444-8.533333-8.533333-14.222222-14.222223-19.911111-17.066667-11.377778-36.977778-22.755556-56.888889-31.288889 25.6-25.6 85.333333-108.088889 82.488889-216.177778C770.844444 122.311111 645.688889 2.844444 483.555556 2.844444c-162.133333 0-284.444444 122.311111-284.444445 284.444445 0 93.866667 42.666667 164.977778 99.555556 219.022222C91.022222 605.866667 0 804.977778 0 989.866667c0 17.066667 14.222222 31.288889 31.288889 31.288889 17.066667 0 25.6-5.688889 25.6-25.6 0-173.511111 85.333333-364.088889 284.444444-455.111112 45.511111 22.755556 73.955556 25.6 142.222223 28.444445 59.733333 2.844444 125.155556-19.911111 153.6-34.133333 28.444444 14.222222 54.044444 34.133333 76.8 48.355555zM483.555556 514.844444c-125.155556 0-227.555556-102.4-227.555556-227.555555s102.4-227.555556 227.555556-227.555556 227.555556 102.4 227.555555 227.555556c0 31.288889-2.844444 71.111111-17.066667 99.555555-11.377778 25.6-28.444444 48.355556-51.2 71.111112-39.822222 39.822222-99.555556 56.888889-159.288888 56.888888z m426.666666 284.444445h-85.333333v-85.333333c0-19.911111-11.377778-31.288889-31.288889-31.288889-19.911111 0-25.6 14.222222-25.6 31.288889v85.333333h-85.333333c-19.911111 0-31.288889 8.533333-31.288889 25.6 0 19.911111 14.222222 31.288889 31.288889 31.288889h85.333333v85.333333c0 11.377778-2.844444 17.066667 8.533333 22.755556 11.377778 5.688889 22.755556 5.688889 34.133334 0 11.377778-5.688889 14.222222-11.377778 14.222222-22.755556v-85.333333h85.333333c19.911111 0 28.444444-11.377778 28.444445-31.288889 0-19.911111-8.533333-25.6-28.444445-25.6z" fill="#545E68" p-id="15179"></path></svg>